<?xml version="1.0" encoding="utf-8"?>
<!-- Generator: Adobe Illustrator 15.0.0, SVG Export Plug-In . SVG Version: 6.00 Build 0)  -->
<!DOCTYPE svg PUBLIC "-//W3C//DTD SVG 1.1 Basic//EN" "http://www.w3.org/Graphics/SVG/1.1/DTD/svg11-basic.dtd">
<svg version="1.1" baseProfile="basic" id="Layer_1"
	 xmlns="http://www.w3.org/2000/svg" xmlns:xlink="http://www.w3.org/1999/xlink" x="0px" y="0px" width="260px" height="260px"
	 viewBox="0 0 260 260" xml:space="preserve">
<symbol  id="Bar_4_" viewBox="-75 -15 150 30">
	<polygon fill="#2E86C7" points="75,-15 -75,-15 -75,15 75,15 	"/>
</symbol>
<rect width="260" height="260"/>
<g id="Bar_Block_3_">
	<g id="Bar_3_">
	</g>
</g>
<g id="Bar_Block_2_">
	<g id="Bar_2_">
	</g>
</g>
<g id="Bar_Block_1_">
	<g id="Bar_1_">
	</g>
</g>
<g id="Bar_Block">
	<g id="Bar">
	</g>
</g>
<rect x="220" y="165" fill="#2D87C8" width="30" height="30"/>
<rect x="220" y="130" fill="#2D87C8" width="30" height="30"/>
<rect x="186" y="165" fill="#2D87C8" width="29" height="30"/>
<rect x="186" y="130" fill="#2D87C8" width="29" height="30"/>
<path fill="#2D87C8" d="M160,75v25c0,16.568,13.432,30,30,30v5v25H85c-41.422,0-75-33.578-75-75V75H160z"/>
<path fill="#2D87C8" d="M160,250v-25c0-16.568,13.432-30,30-30v-5v-25H85c-41.422,0-75,33.578-75,75v10H160z"/>
<rect x="10" y="10" fill="#2D87C8" width="150" height="60"/>
<text transform="matrix(1 0 0 1 85 64.9995)"><tspan x="0" y="0" font-family="'LCARSGTJ3'" font-size="25">L</tspan><tspan x="6.909" y="0" font-family="'LCARSGTJ3'" font-size="25">C</tspan><tspan x="15.405" y="0" font-family="'LCARSGTJ3'" font-size="25">ARS SDK</tspan></text>
<text transform="matrix(1 0 0 1 86.8589 245)" font-family="'LCARSGTJ3'" font-size="25">-340242.4</text>
</svg>
