<?xml version="1.0" encoding="utf-8"?>
<!-- Generator: Adobe Illustrator 15.0.0, SVG Export Plug-In . SVG Version: 6.00 Build 0)  -->
<!DOCTYPE svg PUBLIC "-//W3C//DTD SVG 1.1 Basic//EN" "http://www.w3.org/Graphics/SVG/1.1/DTD/svg11-basic.dtd">
<svg version="1.1" baseProfile="basic" id="Layer_1"
	 xmlns="http://www.w3.org/2000/svg" xmlns:xlink="http://www.w3.org/1999/xlink" x="0px" y="0px" width="260px" height="260px"
	 viewBox="0 0 260 260" xml:space="preserve">
<symbol  id="Bar_4_" viewBox="-75 -15 150 30">
	<polygon fill="#2E86C7" points="75,-15 -75,-15 -75,15 75,15 	"/>
</symbol>
<rect width="260" height="260"/>
<g id="Bar_Block_3_">
	<g id="Bar_3_">
	</g>
</g>
<g id="Bar_Block_2_">
	<g id="Bar_2_">
	</g>
</g>
<g id="Bar_Block_1_">
	<g id="Bar_1_">
	</g>
</g>
<g id="Bar_Block">
	<g id="Bar">
	</g>
</g>
<rect x="220" y="165" fill="#2D87C8" width="30" height="30"/>
<rect x="220" y="130" fill="#2D87C8" width="30" height="30"/>
<rect x="186" y="165" fill="#2D87C8" width="29" height="30"/>
<rect x="186" y="130" fill="#2D87C8" width="29" height="30"/>
<path fill="#2D87C8" d="M160,75v25c0,16.568,13.432,30,30,30v5v25H85c-41.422,0-75-33.578-75-75V75H160z"/>
<path fill="#2D87C8" d="M160,250v-25c0-16.568,13.432-30,30-30v-5v-25H85c-41.422,0-75,33.578-75,75v10H160z"/>
<rect x="10" y="10" fill="#2D87C8" width="150" height="60"/>
<g>
	<path d="M85.488,65V46.994h2.673v15.527h3.259V65H85.488z"/>
	<path d="M96.584,49.777c0-0.391-0.059-0.663-0.177-0.818c-0.118-0.154-0.315-0.232-0.592-0.232c-0.277,0-0.476,0.078-0.598,0.232
		c-0.122,0.155-0.183,0.427-0.183,0.818v11.938c0,0.399,0.061,0.677,0.183,0.836c0.122,0.158,0.321,0.238,0.598,0.238
		c0.276,0,0.474-0.08,0.592-0.238c0.118-0.159,0.177-0.438,0.177-0.836v-3.955h2.698v3.857c0,1.107-0.293,1.949-0.879,2.527
		c-0.586,0.578-1.449,0.867-2.588,0.867c-1.147,0-2.014-0.289-2.6-0.867c-0.586-0.578-0.879-1.42-0.879-2.527V49.997
		c0-1.106,0.293-1.945,0.879-2.515c0.586-0.569,1.453-0.854,2.6-0.854c1.139,0,2.002,0.285,2.588,0.854
		c0.586,0.57,0.879,1.408,0.879,2.515V53.5h-2.698V49.777z"/>
	<path d="M100.759,65l2.148-18.005h4.077L108.938,65h-2.734l-0.549-4.846h-1.672L103.408,65H100.759z M104.214,57.822h1.245
		l-0.281-4.48c-0.017-0.391-0.042-0.846-0.08-1.367c-0.036-0.521-0.1-1.277-0.189-2.271h-0.122
		c-0.024,0.261-0.069,0.908-0.134,1.941c-0.049,0.716-0.09,1.294-0.122,1.733L104.214,57.822z"/>
	<path d="M109.841,46.994h3.174c1.334,0,2.299,0.258,2.893,0.775c0.594,0.517,0.891,1.361,0.891,2.533v2.1
		c0,0.928-0.206,1.63-0.617,2.105c-0.411,0.477-1.088,0.792-2.032,0.946v0.098c0.887,0.017,1.55,0.23,1.99,0.641
		c0.439,0.411,0.659,1.024,0.659,1.837v3.674c0,0.806,0.039,1.475,0.116,2.008c0.078,0.533,0.197,0.963,0.36,1.288h-2.832
		c-0.122-0.285-0.209-0.629-0.263-1.031c-0.053-0.403-0.079-0.91-0.079-1.52v-0.793v-3.931c0-0.382-0.12-0.665-0.36-0.849
		c-0.24-0.183-0.612-0.274-1.117-0.274h-0.11V65h-2.673V46.994z M114.102,53.195v-2.942c0-0.398-0.083-0.696-0.25-0.891
		c-0.167-0.195-0.417-0.293-0.751-0.293h-0.586v5.31h0.586c0.333,0,0.584-0.098,0.751-0.293
		C114.018,53.891,114.102,53.594,114.102,53.195z"/>
	<path d="M118.289,49.997c0-1.106,0.291-1.945,0.873-2.515c0.582-0.569,1.438-0.854,2.57-0.854c1.147,0,2.014,0.285,2.6,0.854
		c0.586,0.57,0.879,1.408,0.879,2.515V53.5h-2.673v-3.723c0-0.382-0.063-0.653-0.189-0.812c-0.126-0.158-0.332-0.238-0.617-0.238
		c-0.277,0-0.474,0.078-0.592,0.232c-0.118,0.155-0.177,0.427-0.177,0.818v1.27c0,0.439,0.028,0.79,0.085,1.05
		c0.057,0.261,0.146,0.476,0.269,0.647l2.917,3.906c0.366,0.497,0.621,0.944,0.763,1.343c0.143,0.399,0.214,0.834,0.214,1.306v2.319
		c0,1.107-0.293,1.949-0.879,2.527c-0.586,0.578-1.453,0.867-2.6,0.867c-1.131,0-1.988-0.287-2.57-0.861
		c-0.582-0.573-0.873-1.417-0.873-2.533v-3.857h2.673v3.955c0,0.399,0.059,0.677,0.177,0.836c0.118,0.158,0.315,0.238,0.592,0.238
		c0.285,0,0.49-0.081,0.617-0.244c0.126-0.163,0.189-0.439,0.189-0.83v-1.831c0-0.236-0.037-0.466-0.11-0.69
		c-0.073-0.224-0.188-0.441-0.342-0.653l-3.052-4.163c-0.261-0.358-0.45-0.728-0.567-1.111c-0.118-0.382-0.177-0.838-0.177-1.367
		V49.997z"/>
	<path d="M130.264,49.997c0-1.106,0.291-1.945,0.873-2.515c0.582-0.569,1.438-0.854,2.569-0.854c1.147,0,2.015,0.285,2.601,0.854
		c0.586,0.57,0.879,1.408,0.879,2.515V53.5h-2.674v-3.723c0-0.382-0.063-0.653-0.189-0.812c-0.126-0.158-0.332-0.238-0.616-0.238
		c-0.276,0-0.474,0.078-0.592,0.232c-0.118,0.155-0.177,0.427-0.177,0.818v1.27c0,0.439,0.027,0.79,0.085,1.05
		c0.057,0.261,0.146,0.476,0.269,0.647l2.918,3.906c0.365,0.497,0.62,0.944,0.763,1.343c0.142,0.399,0.214,0.834,0.214,1.306v2.319
		c0,1.107-0.293,1.949-0.879,2.527c-0.586,0.578-1.453,0.867-2.601,0.867c-1.132,0-1.987-0.287-2.569-0.861
		c-0.582-0.573-0.873-1.417-0.873-2.533v-3.857h2.674v3.955c0,0.399,0.059,0.677,0.177,0.836c0.118,0.158,0.315,0.238,0.592,0.238
		c0.284,0,0.49-0.081,0.616-0.244c0.127-0.163,0.189-0.439,0.189-0.83v-1.831c0-0.236-0.037-0.466-0.109-0.69
		c-0.074-0.224-0.188-0.441-0.342-0.653l-3.053-4.163c-0.26-0.358-0.449-0.728-0.567-1.111c-0.118-0.382-0.177-0.838-0.177-1.367
		V49.997z"/>
	<path d="M138.357,46.994h3.174c1.334,0,2.299,0.261,2.893,0.781c0.594,0.521,0.891,1.363,0.891,2.527v11.401
		c0,1.156-0.297,1.994-0.891,2.515C143.83,64.739,142.865,65,141.531,65h-3.174V46.994z M141.03,49.069v13.733h0.586
		c0.333,0,0.584-0.098,0.751-0.293c0.166-0.195,0.25-0.488,0.25-0.879V50.253c0-0.398-0.084-0.696-0.25-0.891
		c-0.167-0.195-0.418-0.293-0.751-0.293H141.03z"/>
	<path d="M146.463,65V46.994h2.673v7.983h0.11l2.074-7.983h2.601l-2.21,8.228l2.21,9.778h-2.832l-1.843-9.07h-0.11V65H146.463z"/>
</g>
<g>
	<path d="M87.457,238.75v-1.904h3.174v1.904H87.457z"/>
	<path d="M91.876,238.188h2.698v3.528c0,0.414,0.061,0.697,0.183,0.848s0.321,0.227,0.598,0.227c0.276,0,0.47-0.078,0.58-0.232
		c0.11-0.154,0.165-0.436,0.165-0.842v-3.369c0-0.586-0.098-0.977-0.293-1.172s-0.545-0.293-1.05-0.293h-0.183v-2.015h0.232
		c0.439,0,0.765-0.13,0.977-0.391c0.211-0.261,0.317-0.651,0.317-1.172v-3.528c0-0.129-0.004-0.26-0.012-0.391
		c-0.008-0.04-0.012-0.064-0.012-0.072c0-0.163-0.067-0.301-0.201-0.416c-0.135-0.113-0.308-0.17-0.519-0.17
		c-0.277,0-0.476,0.072-0.598,0.219s-0.183,0.424-0.183,0.83v3.626h-2.698v-3.405c0-1.115,0.291-1.955,0.873-2.521
		c0.582-0.565,1.45-0.848,2.606-0.848c1.155,0,2.014,0.278,2.576,0.836c0.562,0.557,0.842,1.402,0.842,2.533v3.051
		c0,0.871-0.163,1.528-0.488,1.972c-0.326,0.444-0.842,0.71-1.55,0.8c0.789,0.122,1.326,0.344,1.611,0.665
		c0.285,0.321,0.427,0.89,0.427,1.703v3.431c0,1.139-0.281,1.989-0.842,2.551s-1.42,0.842-2.576,0.842
		c-1.156,0-2.024-0.284-2.606-0.854c-0.582-0.57-0.873-1.416-0.873-2.539V238.188z"/>
	<path d="M104.278,245v-4.48h-4.395v-2.014l3.406-11.512h3.674v11.328h1.123v2.197h-1.123V245H104.278z M102.203,238.322h2.185
		l0.146-6.518c0-0.139,0.053-0.814,0.159-2.027l0.037-0.451h-0.244c-0.09,0.505-0.173,0.944-0.25,1.318
		c-0.077,0.375-0.152,0.708-0.226,1.001L102.203,238.322z"/>
	<path d="M109.112,230.07c0-1.131,0.295-1.987,0.885-2.569c0.59-0.581,1.455-0.872,2.594-0.872c1.139,0,2.004,0.291,2.594,0.872
		c0.59,0.582,0.885,1.438,0.885,2.569v11.878c0,1.132-0.295,1.989-0.885,2.575c-0.59,0.586-1.455,0.879-2.594,0.879
		c-1.14,0-2.004-0.293-2.594-0.879c-0.59-0.586-0.885-1.443-0.885-2.575V230.07z M111.81,229.852v12.194
		c0,0.407,0.061,0.692,0.183,0.854c0.122,0.163,0.321,0.244,0.598,0.244c0.276,0,0.478-0.084,0.604-0.25
		c0.126-0.167,0.189-0.449,0.189-0.849v-12.194c0-0.391-0.061-0.668-0.183-0.83c-0.122-0.163-0.326-0.244-0.61-0.244
		c-0.277,0-0.476,0.079-0.598,0.237C111.871,229.174,111.81,229.453,111.81,229.852z"/>
	<path d="M120.318,242.814l3.918,0.013V245h-6.958c-0.017-0.122-0.026-0.25-0.031-0.385c-0.004-0.134-0.006-0.331-0.006-0.592
		c0-1.001,0.126-1.969,0.378-2.905c0.252-0.936,0.708-2.051,1.367-3.345c0.195-0.374,0.496-0.907,0.903-1.6
		c1.147-1.961,1.721-3.568,1.721-4.821v-1.526c0-0.357-0.061-0.609-0.183-0.756s-0.326-0.221-0.61-0.221
		c-0.236,0-0.421,0.086-0.555,0.257c-0.135,0.171-0.202,0.411-0.202,0.72v3.418h-2.698v-3.174c0-1.123,0.305-1.977,0.916-2.563
		s1.497-0.879,2.661-0.879c1.115,0,1.957,0.256,2.527,0.769c0.569,0.513,0.854,1.274,0.854,2.282v2.174
		c0,1.318-0.554,2.958-1.66,4.919c-0.179,0.31-0.31,0.546-0.391,0.708c-0.765,1.408-1.278,2.488-1.538,3.241
		C120.473,241.475,120.334,242.172,120.318,242.814z"/>
	<path d="M129.742,245v-4.48h-4.395v-2.014l3.406-11.512h3.674v11.328h1.123v2.197h-1.123V245H129.742z M127.667,238.322h2.185
		l0.146-6.518c0-0.139,0.053-0.814,0.159-2.027l0.037-0.451h-0.244c-0.09,0.505-0.173,0.944-0.25,1.318
		c-0.077,0.375-0.152,0.708-0.226,1.001L127.667,238.322z"/>
	<path d="M137.555,242.814l3.918,0.013V245h-6.957c-0.018-0.122-0.027-0.25-0.031-0.385c-0.004-0.134-0.006-0.331-0.006-0.592
		c0-1.001,0.126-1.969,0.379-2.905c0.252-0.936,0.707-2.051,1.367-3.345c0.195-0.374,0.496-0.907,0.902-1.6
		c1.148-1.961,1.722-3.568,1.722-4.821v-1.526c0-0.357-0.062-0.609-0.183-0.756c-0.123-0.146-0.326-0.221-0.611-0.221
		c-0.236,0-0.421,0.086-0.555,0.257c-0.135,0.171-0.201,0.411-0.201,0.72v3.418h-2.698v-3.174c0-1.123,0.306-1.977,0.915-2.563
		c0.611-0.586,1.498-0.879,2.662-0.879c1.114,0,1.957,0.256,2.526,0.769s0.854,1.274,0.854,2.282v2.174
		c0,1.318-0.554,2.958-1.66,4.919c-0.18,0.31-0.31,0.546-0.391,0.708c-0.766,1.408-1.277,2.488-1.538,3.241
		S137.57,242.172,137.555,242.814z"/>
	<path d="M143.035,245v-2.844h2.418V245H143.035z"/>
	<path d="M151.08,245v-4.48h-4.395v-2.014l3.406-11.512h3.674v11.328h1.123v2.197h-1.123V245H151.08z M149.005,238.322h2.185
		l0.146-6.518c0-0.139,0.053-0.814,0.159-2.027l0.036-0.451h-0.244c-0.09,0.505-0.172,0.944-0.25,1.318
		c-0.077,0.375-0.152,0.708-0.226,1.001L149.005,238.322z"/>
</g>
</svg>
