<?xml version="1.0" encoding="utf-8"?>
<!-- Generator: Adobe Illustrator 15.0.0, SVG Export Plug-In . SVG Version: 6.00 Build 0)  -->
<!DOCTYPE svg PUBLIC "-//W3C//DTD SVG 1.1//EN" "http://www.w3.org/Graphics/SVG/1.1/DTD/svg11.dtd">
<svg version="1.1" id="Layer_1" xmlns="http://www.w3.org/2000/svg" xmlns:xlink="http://www.w3.org/1999/xlink" x="0px" y="0px"
	 width="1860px" height="840px" viewBox="0 0 1860 840" enable-background="new 0 0 1860 840" xml:space="preserve">
<g>
	<path fill="#2F87C8" d="M768,227v26.001L644.781,253C627.436,253,613,267.654,613,285v98H467v-84c0-39.701,33.196-72,74-72H768
		 M770,225H541c-41.422,0-76,32.578-76,74v86h150V285c0-16.568,13.781-30,29.781-30L770,255.001V225L770,225z"/>
</g>
<g>
	<path fill="#2F87C8" d="M613,132v28c0,17.346,14.654,32,32,32h123v26H541c-19.499,0-38.009-7.771-52.119-21.881
		C474.771,182.009,467,163.499,467,144v-12H613 M615,130H465v14c0,41.422,34.578,76,76,76h229v-30H645c-16,0-30-13.432-30-30V130
		L615,130z"/>
</g>
<g>
	<path fill="#2F87C8" d="M923,192v26H812v-26H923 M925,190H810v30h115V190L925,190z"/>
</g>
<g>
	<path fill="#2F87C8" d="M1233,192v26H932v-26H1233 M1235,190H930v30h305V190L1235,190z"/>
</g>
<g>
	<path fill="#2F87C8" d="M1323,192v26h-81v-26H1323 M1325,190h-85v30h85V190L1325,190z"/>
</g>
<g>
	<path fill="#2F87C8" d="M1388,192v26h-56v-26H1388 M1390,190h-60v30h60V190L1390,190z"/>
</g>
<g>
	<path fill="#2F87C8" d="M923,227v11H812v-11H923 M925,225H810v15h115V225L925,225z"/>
</g>
<g>
	<path fill="#2F87C8" d="M1233,227v26H932v-26H1233 M1235,225H930v30h305V225L1235,225z"/>
</g>
<g>
	<path fill="#2F87C8" d="M1323,227v26h-81v-26H1323 M1325,225h-85v30h85V225L1325,225z"/>
</g>
<g>
	<path fill="#2F87C8" d="M1388,227v26h-56v-26H1388 M1390,225h-60v30h60V225L1390,225z"/>
</g>
<g>
	<path fill="#2F87C8" d="M803,192v26h-26v-26H803 M805,190h-30v30h30V190L805,190z"/>
</g>
<g>
	<path fill="#2F87C8" d="M803,227v26h-26v-26H803 M805,225h-30v30h30V225L805,225z"/>
</g>
<g>
	<path fill="#2F87C8" d="M613,392v121H467V392H613 M615,390H465v125h150V390L615,390z"/>
</g>
<g>
	<path fill="#2F87C8" d="M613,522v56H467v-56H613 M615,520H465v60h150V520L615,520z"/>
</g>
<g>
	<path fill="#2F87C8" d="M613,587v186H467V587H613 M615,585H465v190h150V585L615,585z"/>
</g>
<g>
	<g>
		<path fill="#2F87C8" d="M1371,328c10.01,0,17,6.991,17,17v27h-4v-11v-2h-2h-11v-13c0-5.551-3.448-9-9-9h-11v-9H1371 M1371,326h-22
			v13h13c4.418,0,7,2.582,7,7v15h13v13h8v-29C1390,333.954,1382.046,326,1371,326L1371,326z"/>
	</g>
	<g>
		<path fill="#2F87C8" d="M1388,535v25c0,10.477-7.626,19-17,19h-20v-9h11c5.634,0,9-5.593,9-11v-11h11h2v-2v-11H1388 M1390,533h-8
			v13h-13v13c0,4.418-2.582,9-7,9h-13v13h22c11.046,0,19-9.954,19-21V533L1390,533z"/>
	</g>
	<g>
		<path fill="#2F87C8" d="M1124,328v9h-9c-5.407,0-11,3.366-11,9v26h-4v-11v-2h-2h-11v-14c0-9.374,8.523-17,19-17H1124 M1126,326
			h-20c-11.046,0-21,7.954-21,19v16h13v13h8v-28c0-4.418,4.582-7,9-7h11V326L1126,326z"/>
	</g>
	<g>
		<path fill="#2F87C8" d="M1104,535v24c0,5.552,5.448,11,11,11h9v9h-18c-9.944,0-19-9.056-19-19v-12h11h2v-2v-11H1104 M1106,533h-8
			v13h-13v14c0,11.046,9.954,21,21,21h20v-13h-11c-4.418,0-9-4.582-9-9V533L1106,533z"/>
	</g>
	<g>
		<path fill="#2F87C8" d="M1091,433v41h-4v-41H1091 M1093,431h-8v45h8V431L1093,431z"/>
	</g>
	<g>
		<path fill="#2F87C8" d="M1091,366v60h-4v-60H1091 M1093,364h-8v64h8V364L1093,364z"/>
	</g>
	<g>
		<path fill="#2F87C8" d="M1091,481v60h-4v-60H1091 M1093,479h-8v64h8V479L1093,479z"/>
	</g>
	<g>
		<path fill="#2F87C8" d="M1104,438v31h-4v-31H1104 M1106,436h-8v35h8V436L1106,436z"/>
	</g>
	<g>
		<path fill="#2F87C8" d="M1104,379v52h-4v-52H1104 M1106,377h-8v56h8V377L1106,377z"/>
	</g>
	<g>
		<path fill="#2F87C8" d="M1104,476v52h-4v-52H1104 M1106,474h-8v56h8V474L1106,474z"/>
	</g>
	<g>
		<path fill="#2F87C8" d="M1388,438v31h-4v-31H1388 M1390,436h-8v35h8V436L1390,436z"/>
	</g>
	<g>
		<path fill="#2F87C8" d="M1388,379v52h-4v-52H1388 M1390,377h-8v56h8V377L1390,377z"/>
	</g>
	<g>
		<path fill="#2F87C8" d="M1388,476v52h-4v-52H1388 M1390,474h-8v56h8V474L1390,474z"/>
	</g>
	<g>
		<path fill="#2F87C8" d="M1375,433v41h-4v-41H1375 M1377,431h-8v45h8V431L1377,431z"/>
	</g>
	<g>
		<path fill="#2F87C8" d="M1375,366v60h-4v-60H1375 M1377,364h-8v64h8V364L1377,364z"/>
	</g>
	<g>
		<path fill="#2F87C8" d="M1375,481v60h-4v-60H1375 M1377,479h-8v64h8V479L1377,479z"/>
	</g>
</g>
<g>
	<path fill="#2F87C8" d="M1360,97c15.439,0,28,12.561,28,28s-12.561,28-28,28h-90c-15.439,0-28-12.561-28-28s12.561-28,28-28H1360
		 M1360,95h-90c-16.5,0-30,13.5-30,30s13.5,30,30,30h90c16.5,0,30-13.5,30-30S1376.5,95,1360,95L1360,95z"/>
</g>
<g>
	<path fill="#2F87C8" d="M1205,97c15.439,0,28,12.561,28,28s-12.561,28-28,28h-90c-15.439,0-28-12.561-28-28s12.561-28,28-28H1205
		 M1205,95h-90c-16.5,0-30,13.5-30,30s13.5,30,30,30h90c16.5,0,30-13.5,30-30S1221.5,95,1205,95L1205,95z"/>
</g>
<g>
	<path fill="#2F87C8" d="M922.999,717v56H777v-56H922.999 M924.999,715H775v60h149.999V715L924.999,715z"/>
</g>
<g>
	<path fill="#2F87C8" d="M923,652v56H777v-56H923 M925,650H775v60h150V650L925,650z"/>
</g>
<g>
	<path fill="#2F87C8" d="M922.999,587v56H777v-56H922.999 M924.999,585H775v60h149.999V585L924.999,585z"/>
</g>
<g>
	<path fill="#2F87C8" d="M923,522v56H777v-56H923 M925,520H775v60h150V520L925,520z"/>
</g>
<g>
	<path fill="#2F87C8" d="M923,457v56H777v-56H923 M925,455H775v60h150V455L925,455z"/>
</g>
<g>
	<path fill="#2F87C8" d="M922.999,392v56H777v-56H922.999 M924.999,390H775v60h149.999V390L924.999,390z"/>
</g>
<g>
	<path fill="#2F87C8" d="M923,327v56H777v-56H923 M925,325H775v60h150V325L925,325z"/>
</g>
<g>
	<path fill="#2F87C8" d="M1360,717c15.439,0,28,12.561,28,28s-12.561,28-28,28h-148v-56H1360 M1360,715h-150v60h150
		c16.568,0,30-13.432,30-30S1376.568,715,1360,715L1360,715z"/>
</g>
<g>
	<path fill="#2F87C8" d="M960,717c15.439,0,28,12.561,28,28s-12.561,28-28,28h-28v-56H960 M960,715h-30v60h30
		c16.568,0,30-13.432,30-30S976.568,715,960,715L960,715z"/>
</g>
<g>
	<path fill="#2F87C8" d="M960,652c15.439,0,28,12.561,28,28s-12.561,28-28,28h-28v-56H960 M960,650h-30v60h30
		c16.568,0,30-13.432,30-30S976.568,650,960,650L960,650z"/>
</g>
<g>
	<path fill="#2F87C8" d="M960,587c15.439,0,28,12.561,28,28s-12.561,28-28,28h-28v-56H960 M960,585h-30v60h30
		c16.568,0,30-13.432,30-30S976.568,585,960,585L960,585z"/>
</g>
<g>
	<path fill="#2F87C8" d="M960,522c15.439,0,28,12.561,28,28s-12.561,28-28,28h-28v-56H960 M960,520h-30v60h30
		c16.568,0,30-13.432,30-30S976.568,520,960,520L960,520z"/>
</g>
<g>
	<path fill="#2F87C8" d="M960,457c15.439,0,28,12.561,28,28s-12.561,28-28,28h-28v-56H960 M960,455h-30v60h30
		c16.568,0,30-13.432,30-30S976.568,455,960,455L960,455z"/>
</g>
<g>
	<path fill="#2F87C8" d="M960,392c15.439,0,28,12.561,28,28s-12.561,28-28,28h-28v-56H960 M960,390h-30v60h30
		c16.568,0,30-13.432,30-30S976.568,390,960,390L960,390z"/>
</g>
<g>
	<path fill="#2F87C8" d="M960,327c15.439,0,28,12.561,28,28s-12.561,28-28,28h-28v-56H960 M960,325h-30v60h30
		c16.568,0,30-13.432,30-30S976.568,325,960,325L960,325z"/>
</g>
<g>
	<path fill="#2F87C8" d="M1143,717v56h-28c-15.439,0-28-12.561-28-28s12.561-28,28-28H1143 M1145,715h-30c-16.568,0-30,13.432-30,30
		s13.432,30,30,30h30V715L1145,715z"/>
</g>
<g>
	<path fill="#2F87C8" d="M707,718v56h-21v-56H707 M709,716h-25v60h25V716L709,716z"/>
</g>
<g>
	<path fill="#2F87C8" d="M1202,717v56h-21v-56H1202 M1204,715h-25v60h25V715L1204,715z"/>
</g>
<g>
	<path fill="#2F87C8" d="M1172,717v56h-21v-56H1172 M1174,715h-25v60h25V715L1174,715z"/>
</g>
<g>
	<g>
		<path fill="#FFFFFF" d="M746.026,725.381c0-3.681,0.96-6.468,2.88-8.362c1.92-1.893,4.733-2.84,8.441-2.84
			c3.707,0,6.521,0.947,8.441,2.84c1.92,1.895,2.879,4.682,2.879,8.362v38.65c0,3.681-0.959,6.475-2.879,8.382
			c-1.921,1.906-4.734,2.859-8.441,2.859c-3.708,0-6.521-0.953-8.441-2.859c-1.92-1.907-2.88-4.701-2.88-8.382V725.381z
			 M754.805,724.666v39.683c0,1.325,0.199,2.252,0.596,2.781c0.398,0.529,1.047,0.794,1.947,0.794s1.555-0.271,1.966-0.814
			c0.411-0.542,0.616-1.463,0.616-2.761v-39.683c0-1.271-0.199-2.172-0.596-2.701c-0.397-0.529-1.061-0.795-1.986-0.795
			c-0.9,0-1.549,0.259-1.947,0.774C755.004,722.461,754.805,723.368,754.805,724.666z"/>
	</g>
</g>
<g>
	<g>
		<path fill="#FFFFFF" d="M755.719,701.852l12.752,0.04v7.07h-22.643c-0.053-0.397-0.086-0.814-0.1-1.251
			c-0.014-0.438-0.02-1.079-0.02-1.927c0-3.258,0.41-6.408,1.231-9.454c0.821-3.045,2.304-6.674,4.449-10.884
			c0.636-1.218,1.614-2.953,2.939-5.204c3.733-6.382,5.601-11.612,5.601-15.69v-4.966c0-1.165-0.198-1.986-0.596-2.463
			c-0.396-0.477-1.06-0.715-1.986-0.715c-0.768,0-1.37,0.278-1.807,0.834c-0.438,0.557-0.656,1.338-0.656,2.344v11.123h-8.778
			v-10.328c0-3.654,0.993-6.436,2.979-8.342c1.986-1.907,4.872-2.86,8.659-2.86c3.628,0,6.368,0.834,8.223,2.503
			c1.854,1.668,2.78,4.145,2.78,7.428v7.071c0,4.29-1.801,9.626-5.402,16.008c-0.582,1.007-1.006,1.774-1.271,2.304
			c-2.488,4.582-4.157,8.098-5.004,10.547C756.223,697.489,755.771,699.76,755.719,701.852z"/>
	</g>
</g>
<g>
	<g>
		<path fill="#FFFFFF" d="M738.828,699.031c0,3.681-0.961,6.475-2.881,8.382c-1.92,1.906-4.733,2.859-8.44,2.859
			c-3.761,0-6.548-0.92-8.362-2.761c-1.813-1.84-2.721-4.667-2.721-8.48v-11.56h8.541v11.877c0,1.325,0.198,2.252,0.596,2.781
			c0.396,0.529,1.046,0.794,1.946,0.794c0.899,0,1.562-0.271,1.986-0.814c0.423-0.542,0.636-1.463,0.636-2.761v-16.326
			c0-1.006-0.193-1.787-0.576-2.344c-0.385-0.556-0.934-0.834-1.648-0.834c-0.477,0-0.9,0.14-1.271,0.417
			c-0.371,0.278-0.715,0.709-1.033,1.291h-8.818V650.37h22.364v7.19h-13.585v17.716c1.059-1.138,2.098-1.952,3.118-2.442
			c1.019-0.49,2.178-0.735,3.476-0.735c2.41,0,4.125,0.669,5.145,2.006c1.02,1.338,1.529,4.006,1.529,8.005V699.031z"/>
	</g>
</g>
<g>
	<g>
		<path fill="#FFFFFF" d="M746.781,643.962l13.148-51.401h-15.215v-7.19h23.953v7.35l-12.473,51.242H746.781z"/>
	</g>
</g>
<g>
	<g>
		<path fill="#FFFFFF" d="M723.256,643.962v-44.49h-6.316v-6.435c2.622-0.159,4.602-0.874,5.939-2.146
			c1.336-1.271,2.006-3.045,2.006-5.322v-0.199h7.189v58.592H723.256z"/>
	</g>
</g>
<g>
	<g>
		<path fill="#FFFFFF" d="M746.266,569.031v-38.65c0-3.681,0.959-6.468,2.879-8.362c1.92-1.893,4.734-2.84,8.441-2.84
			s6.521,0.947,8.441,2.84c1.92,1.895,2.88,4.682,2.88,8.362v11.241h-8.778v-11.956c0-1.298-0.199-2.205-0.596-2.722
			c-0.398-0.516-1.047-0.774-1.947-0.774c-0.927,0-1.596,0.266-2.006,0.795s-0.615,1.43-0.615,2.701v16.684
			c1.033-1.033,2.065-1.781,3.098-2.245c1.033-0.463,2.172-0.694,3.416-0.694c2.225,0,4.02,0.781,5.383,2.344
			s2.046,3.654,2.046,6.275v17.002c0,3.681-0.96,6.475-2.88,8.382c-1.92,1.906-4.734,2.859-8.441,2.859s-6.521-0.953-8.441-2.859
			C747.225,575.506,746.266,572.712,746.266,569.031z M754.965,554.651v14.697c0,1.298,0.205,2.219,0.615,2.761
			c0.41,0.543,1.079,0.814,2.006,0.814c0.9,0,1.549-0.265,1.947-0.794c0.396-0.529,0.596-1.456,0.596-2.781v-14.697
			c0-1.324-0.199-2.25-0.596-2.78c-0.398-0.529-1.047-0.795-1.947-0.795c-0.927,0-1.596,0.272-2.006,0.814
			C755.17,552.434,754.965,553.354,754.965,554.651z"/>
	</g>
</g>
<g>
	<g>
		<path fill="#FFFFFF" d="M728.301,578.962v-14.578h-14.3v-6.555l11.083-37.459h11.957v36.863h3.654v7.15h-3.654v14.578H728.301z
			 M721.549,557.233h7.109l0.477-21.212c0-0.45,0.172-2.647,0.518-6.594l0.119-1.47h-0.795c-0.291,1.642-0.563,3.072-0.814,4.29
			s-0.496,2.304-0.734,3.257L721.549,557.233z"/>
	</g>
</g>
<g>
	<g>
		<path fill="#FFFFFF" d="M746.027,465.381c0-3.681,0.959-6.468,2.879-8.362c1.92-1.893,4.734-2.84,8.441-2.84
			s6.521,0.947,8.441,2.84c1.92,1.895,2.88,4.682,2.88,8.362v8.699c0,2.489-0.596,4.528-1.788,6.117
			c-1.191,1.589-2.966,2.701-5.322,3.337c2.488,0.45,4.297,1.391,5.422,2.82s1.688,3.495,1.688,6.196v11.48
			c0,3.681-0.96,6.475-2.88,8.382c-1.92,1.906-4.734,2.859-8.441,2.859s-6.521-0.953-8.441-2.859
			c-1.92-1.907-2.879-4.701-2.879-8.382V492.71c0-2.647,0.489-4.647,1.469-5.998c0.98-1.351,2.662-2.409,5.045-3.178
			c-2.489-0.636-4.197-1.582-5.124-2.84s-1.39-3.37-1.39-6.336V465.381z M759.93,475.907v-11.241c0-1.271-0.198-2.172-0.596-2.701
			c-0.396-0.529-1.06-0.795-1.986-0.795c-0.9,0-1.549,0.259-1.946,0.774c-0.397,0.517-0.596,1.424-0.596,2.722v11.241
			c0,1.298,0.198,2.219,0.596,2.761c0.397,0.543,1.046,0.814,1.946,0.814s1.556-0.278,1.967-0.834
			C759.725,478.092,759.93,477.179,759.93,475.907z M754.806,491.121v13.228c0,1.325,0.198,2.252,0.596,2.781
			s1.046,0.794,1.946,0.794s1.556-0.271,1.967-0.814c0.41-0.542,0.615-1.463,0.615-2.761v-13.228c0-1.297-0.205-2.225-0.615-2.78
			c-0.411-0.557-1.066-0.834-1.967-0.834s-1.549,0.271-1.946,0.813C755.004,488.864,754.806,489.797,754.806,491.121z"/>
	</g>
</g>
<g>
	<g>
		<path fill="#FFFFFF" d="M753.256,448.962v-44.49h-6.316v-6.435c2.622-0.159,4.602-0.874,5.939-2.146
			c1.336-1.271,2.006-3.045,2.006-5.322v-0.199h7.189v58.592H753.256z"/>
	</g>
</g>
<g>
	<g>
		<path fill="#FFFFFF" d="M728.301,448.962v-14.578H714v-6.555l11.083-37.459h11.957v36.863h3.654v7.15h-3.654v14.578H728.301z
			 M721.548,427.233h7.11l0.477-21.212c0-0.45,0.172-2.647,0.517-6.594l0.119-1.47h-0.794c-0.292,1.642-0.563,3.072-0.814,4.29
			c-0.252,1.218-0.497,2.304-0.735,3.257L721.548,427.233z"/>
	</g>
</g>
<g>
	<g>
		<path fill="#FFFFFF" d="M755.719,376.852l12.752,0.04v7.07h-22.643c-0.053-0.397-0.086-0.814-0.1-1.251
			c-0.014-0.438-0.02-1.079-0.02-1.927c0-3.258,0.41-6.408,1.231-9.454c0.821-3.045,2.304-6.674,4.449-10.884
			c0.636-1.218,1.614-2.953,2.939-5.204c3.733-6.382,5.601-11.612,5.601-15.69v-4.966c0-1.165-0.198-1.986-0.596-2.463
			c-0.396-0.477-1.06-0.715-1.986-0.715c-0.768,0-1.37,0.278-1.807,0.834c-0.438,0.557-0.656,1.338-0.656,2.344v11.123h-8.778
			v-10.328c0-3.654,0.993-6.436,2.979-8.342c1.986-1.907,4.872-2.86,8.659-2.86c3.628,0,6.368,0.834,8.223,2.503
			c1.854,1.668,2.78,4.145,2.78,7.428v7.071c0,4.29-1.801,9.626-5.402,16.008c-0.582,1.007-1.006,1.774-1.271,2.304
			c-2.488,4.582-4.157,8.098-5.004,10.547C756.223,372.489,755.771,374.76,755.719,376.852z"/>
	</g>
</g>
<g>
	<g>
		<path fill="#FFFFFF" d="M716.027,362.631h8.778v11.718c0,1.378,0.198,2.318,0.596,2.82c0.397,0.504,1.046,0.755,1.946,0.755
			s1.529-0.258,1.887-0.774s0.537-1.45,0.537-2.801v-11.201c0-1.96-0.318-3.264-0.953-3.913c-0.637-0.648-1.775-0.974-3.417-0.974
			h-0.596v-6.673h0.755c1.43,0,2.488-0.431,3.178-1.291c0.688-0.86,1.033-2.165,1.033-3.913v-11.718c0-0.424-0.014-0.86-0.04-1.312
			c-0.026-0.132-0.04-0.211-0.04-0.238c0-0.529-0.219-0.986-0.655-1.37s-1-0.576-1.688-0.576c-0.9,0-1.549,0.245-1.946,0.735
			s-0.596,1.41-0.596,2.761v12.036h-8.778v-11.321c0-3.707,0.945-6.501,2.84-8.382c1.893-1.88,4.721-2.82,8.48-2.82
			s6.555,0.928,8.382,2.78c1.827,1.854,2.741,4.662,2.741,8.422v10.169c0,2.887-0.53,5.064-1.59,6.534
			c-1.059,1.47-2.74,2.363-5.045,2.682c2.568,0.397,4.316,1.132,5.244,2.204c0.927,1.073,1.391,2.96,1.391,5.661v11.4
			c0,3.787-0.914,6.607-2.741,8.461s-4.622,2.78-8.382,2.78s-6.588-0.94-8.48-2.82c-1.895-1.88-2.84-4.688-2.84-8.421V362.631z"/>
	</g>
</g>
<g>
	<path fill="#2F87C8" d="M707,653v56h-21v-56H707 M709,651h-25v60h25V651L709,651z"/>
</g>
<g>
	<path fill="#2F87C8" d="M707,588v56h-21v-56H707 M709,586h-25v60h25V586L709,586z"/>
</g>
<g>
	<path fill="#2F87C8" d="M707,523v56h-21v-56H707 M709,521h-25v60h25V521L709,521z"/>
</g>
<g>
	<path fill="#2F87C8" d="M707,458v56h-21v-56H707 M709,456h-25v60h25V456L709,456z"/>
</g>
<g>
	<path fill="#2F87C8" d="M707,393v56h-21v-56H707 M709,391h-25v60h25V391L709,391z"/>
</g>
<g>
	<path fill="#2F87C8" d="M707,328v56h-21v-56H707 M709,326h-25v60h25V326L709,326z"/>
</g>
<g>
	<g>
		<g>
			<path fill="#FFFFFF" d="M925.414,60V1.409h10.328c4.289,0,7.414,0.841,9.374,2.522s2.939,4.376,2.939,8.083v14.38
				c0,3.76-0.974,6.495-2.919,8.203c-1.947,1.708-5.079,2.562-9.395,2.562h-1.629V60H925.414z M939.277,26.395v-14.38
				c0-1.297-0.272-2.264-0.814-2.9c-0.543-0.635-1.357-0.953-2.443-0.953h-1.906v22.046h1.906c1.086,0,1.9-0.311,2.443-0.933
				C939.005,28.652,939.277,27.692,939.277,26.395z"/>
		</g>
		<g>
			<path fill="#FFFFFF" d="M948.691,60l6.991-58.591h13.268L975.306,60h-8.897l-1.788-15.77h-5.442L957.312,60H948.691z
				 M959.934,36.643h4.051l-0.913-14.579c-0.054-1.271-0.14-2.754-0.259-4.449s-0.324-4.157-0.615-7.389H961.8
				c-0.079,0.848-0.226,2.953-0.437,6.316c-0.159,2.331-0.292,4.211-0.397,5.641L959.934,36.643z"/>
		</g>
		<g>
			<path fill="#FFFFFF" d="M977.649,60V1.409h13.268l3.257,24.032c0.582,4.317,1.125,8.753,1.629,13.307
				c0.503,4.555,0.967,9.203,1.391,13.943l0.477-0.04c-0.105-4.767-0.186-8.998-0.238-12.691c-0.054-3.694-0.08-6.177-0.08-7.448
				l-0.238-31.103h7.23V60h-12.95l-4.21-32.374c-0.716-5.562-1.238-9.686-1.57-12.374c-0.33-2.688-0.589-4.958-0.773-6.813h-0.596
				c0.078,4.29,0.139,7.647,0.178,10.07c0.04,2.423,0.061,3.966,0.061,4.628L984.76,60H977.649z"/>
		</g>
		<g>
			<path fill="#FFFFFF" d="M1008.871,60V1.409h19.307v7.984h-10.607V24.13h10.368v7.706h-10.368v20.1h10.607V60H1008.871z"/>
		</g>
		<g>
			<path fill="#FFFFFF" d="M1031.076,60V1.409h8.699v50.527h10.607V60H1031.076z"/>
		</g>
		<g>
			<path fill="#FFFFFF" d="M1051.653,39.662v-6.197h10.328v6.197H1051.653z"/>
		</g>
		<g>
			<path fill="#FFFFFF" d="M1067.781,1.409h10.328c4.342,0,7.48,0.848,9.414,2.542c1.933,1.695,2.899,4.436,2.899,8.223v37.102
				c0,3.761-0.967,6.488-2.899,8.183c-1.934,1.695-5.072,2.542-9.414,2.542h-10.328V1.409z M1076.48,8.162V52.85h1.906
				c1.086,0,1.9-0.318,2.443-0.954c0.542-0.636,0.814-1.589,0.814-2.86V12.015c0-1.297-0.272-2.264-0.814-2.9
				c-0.543-0.635-1.357-0.953-2.443-0.953H1076.48z"/>
		</g>
		<g>
			<path fill="#FFFFFF" d="M1106.868,11.419c0-3.681,0.946-6.468,2.841-8.362c1.893-1.893,4.68-2.84,8.361-2.84
				c3.734,0,6.555,0.947,8.461,2.84c1.906,1.894,2.859,4.681,2.859,8.362v11.639h-8.699V10.704c0-1.271-0.205-2.171-0.615-2.701
				c-0.411-0.529-1.08-0.794-2.006-0.794c-0.9,0-1.543,0.258-1.927,0.775c-0.384,0.516-0.576,1.424-0.576,2.721v4.211
				c0,1.457,0.093,2.622,0.278,3.496c0.185,0.874,0.477,1.589,0.873,2.145l9.494,12.989c1.191,1.643,2.02,3.125,2.482,4.449
				c0.464,1.324,0.695,2.78,0.695,4.369v7.707c0,3.681-0.953,6.475-2.859,8.381s-4.727,2.86-8.461,2.86
				c-3.682,0-6.469-0.947-8.361-2.84c-1.895-1.893-2.841-4.693-2.841-8.401V37.239h8.699v13.148c0,1.324,0.192,2.251,0.576,2.78
				c0.384,0.53,1.026,0.794,1.927,0.794c0.926,0,1.595-0.271,2.006-0.814c0.41-0.542,0.615-1.463,0.615-2.761V44.31
				c0-0.794-0.119-1.563-0.357-2.304c-0.238-0.741-0.609-1.47-1.111-2.185l-9.932-13.824c-0.848-1.192-1.463-2.423-1.847-3.694
				c-0.384-1.271-0.576-2.78-0.576-4.528V11.419z"/>
		</g>
		<g>
			<path fill="#FFFFFF" d="M1132.49,50.069V1.409h8.778v48.979c0,1.324,0.198,2.251,0.596,2.78c0.397,0.53,1.046,0.794,1.946,0.794
				s1.556-0.271,1.967-0.814c0.41-0.542,0.615-1.463,0.615-2.761V1.409h8.739v48.661c0,3.681-0.96,6.475-2.88,8.381
				s-4.734,2.86-8.441,2.86s-6.521-0.954-8.441-2.86S1132.49,53.75,1132.49,50.069z"/>
		</g>
		<g>
			<path fill="#FFFFFF" d="M1159.501,1.409h10.328c4.343,0,7.481,0.841,9.414,2.522s2.899,4.429,2.899,8.242v7.707
				c0,2.41-0.729,4.376-2.184,5.899c-1.457,1.523-3.603,2.576-6.436,3.158v0.318c2.886,0.238,5.045,1.026,6.475,2.363
				c1.43,1.338,2.145,3.238,2.145,5.701v11.957c0,3.761-0.967,6.488-2.899,8.183c-1.933,1.695-5.071,2.542-9.414,2.542h-10.328
				V1.409z M1173.364,21.588v-9.573c0-1.297-0.272-2.264-0.814-2.9c-0.543-0.635-1.357-0.953-2.442-0.953h-1.907v17.279h1.907
				c1.085,0,1.899-0.318,2.442-0.953C1173.092,23.852,1173.364,22.886,1173.364,21.588z M1168.2,32.591V52.85h1.907
				c1.085,0,1.899-0.318,2.442-0.954c0.542-0.636,0.814-1.589,0.814-2.86V36.325c0-1.271-0.265-2.211-0.794-2.82
				c-0.53-0.609-1.352-0.914-2.463-0.914H1168.2z"/>
		</g>
		<g>
			<path fill="#FFFFFF" d="M1185.917,11.419c0-3.681,0.946-6.468,2.841-8.362c1.893-1.893,4.68-2.84,8.361-2.84
				c3.734,0,6.555,0.947,8.461,2.84c1.906,1.894,2.859,4.681,2.859,8.362v11.639h-8.699V10.704c0-1.271-0.205-2.171-0.615-2.701
				c-0.411-0.529-1.08-0.794-2.006-0.794c-0.9,0-1.543,0.258-1.927,0.775c-0.384,0.516-0.576,1.424-0.576,2.721v4.211
				c0,1.457,0.093,2.622,0.278,3.496c0.185,0.874,0.477,1.589,0.873,2.145l9.494,12.989c1.191,1.643,2.02,3.125,2.482,4.449
				c0.464,1.324,0.695,2.78,0.695,4.369v7.707c0,3.681-0.953,6.475-2.859,8.381s-4.727,2.86-8.461,2.86
				c-3.682,0-6.469-0.947-8.361-2.84c-1.895-1.893-2.841-4.693-2.841-8.401V37.239h8.699v13.148c0,1.324,0.192,2.251,0.576,2.78
				c0.384,0.53,1.026,0.794,1.927,0.794c0.926,0,1.595-0.271,2.006-0.814c0.41-0.542,0.615-1.463,0.615-2.761V44.31
				c0-0.794-0.119-1.563-0.357-2.304c-0.238-0.741-0.609-1.47-1.111-2.185l-9.932-13.824c-0.848-1.192-1.463-2.423-1.847-3.694
				c-0.384-1.271-0.576-2.78-0.576-4.528V11.419z"/>
		</g>
		<g>
			<path fill="#FFFFFF" d="M1211.777,60V1.409h19.305v7.984h-10.605V24.13h10.367v7.706h-10.367v20.1h10.605V60H1211.777z"/>
		</g>
		<g>
			<path fill="#FFFFFF" d="M1247.408,10.704c0-1.297-0.192-2.205-0.576-2.721c-0.384-0.517-1.026-0.775-1.926-0.775
				c-0.9,0-1.55,0.258-1.947,0.775c-0.396,0.516-0.596,1.424-0.596,2.721v39.684c0,1.324,0.199,2.251,0.596,2.78
				c0.397,0.53,1.047,0.794,1.947,0.794c0.899,0,1.542-0.264,1.926-0.794c0.384-0.529,0.576-1.456,0.576-2.78V37.239h8.779v12.831
				c0,3.681-0.953,6.475-2.86,8.381s-4.714,2.86-8.421,2.86c-3.734,0-6.555-0.954-8.461-2.86c-1.907-1.907-2.86-4.7-2.86-8.381
				v-38.65c0-3.681,0.953-6.468,2.86-8.362c1.906-1.893,4.727-2.84,8.461-2.84c3.707,0,6.514,0.947,8.421,2.84
				c1.907,1.894,2.86,4.681,2.86,8.362v11.639h-8.779V10.704z"/>
		</g>
		<g>
			<path fill="#FFFFFF" d="M1273.229,60h-8.739V8.996h-7.548V1.409h23.834v7.587h-7.547V60z"/>
		</g>
		<g>
			<path fill="#FFFFFF" d="M1291.58,60h-8.699V1.409h8.699V60z"/>
		</g>
		<g>
			<path fill="#FFFFFF" d="M1295.91,11.419c0-3.681,0.959-6.468,2.879-8.362c1.92-1.893,4.734-2.84,8.441-2.84
				s6.521,0.947,8.441,2.84c1.92,1.894,2.88,4.681,2.88,8.362v38.65c0,3.681-0.96,6.475-2.88,8.381s-4.734,2.86-8.441,2.86
				s-6.521-0.954-8.441-2.86s-2.879-4.7-2.879-8.381V11.419z M1304.688,10.704v39.684c0,1.324,0.198,2.251,0.596,2.78
				c0.397,0.53,1.046,0.794,1.946,0.794s1.556-0.271,1.967-0.814c0.41-0.542,0.615-1.463,0.615-2.761V10.704
				c0-1.271-0.198-2.171-0.596-2.701c-0.396-0.529-1.06-0.794-1.986-0.794c-0.9,0-1.549,0.258-1.946,0.775
				C1304.887,8.499,1304.688,9.407,1304.688,10.704z"/>
		</g>
		<g>
			<path fill="#FFFFFF" d="M1322.922,60V1.409h13.268l3.257,24.032c0.582,4.317,1.125,8.753,1.628,13.307
				c0.504,4.555,0.967,9.203,1.391,13.943l0.477-0.04c-0.105-4.767-0.186-8.998-0.238-12.691c-0.053-3.694-0.079-6.177-0.079-7.448
				l-0.238-31.103h7.229V60h-12.949l-4.211-32.374c-0.715-5.562-1.238-9.686-1.569-12.374c-0.331-2.688-0.589-4.958-0.774-6.813
				h-0.596c0.079,4.29,0.139,7.647,0.179,10.07c0.04,2.423,0.06,3.966,0.06,4.628L1330.031,60H1322.922z"/>
		</g>
		<g>
			<path fill="#FFFFFF" d="M1367.252,11.419c0-3.681,0.96-6.468,2.881-8.362c1.92-1.893,4.732-2.84,8.441-2.84
				c3.707,0,6.52,0.947,8.44,2.84c1.92,1.894,2.88,4.681,2.88,8.362v8.699c0,2.489-0.596,4.528-1.787,6.117
				s-2.967,2.701-5.323,3.337c2.489,0.451,4.296,1.39,5.423,2.82c1.125,1.43,1.688,3.496,1.688,6.197v11.48
				c0,3.681-0.96,6.475-2.88,8.381c-1.921,1.907-4.733,2.86-8.44,2.86c-3.709,0-6.521-0.954-8.441-2.86
				c-1.921-1.907-2.881-4.7-2.881-8.381V38.748c0-2.647,0.49-4.647,1.471-5.998c0.979-1.351,2.661-2.41,5.045-3.178
				c-2.49-0.636-4.198-1.582-5.125-2.84c-0.928-1.257-1.391-3.37-1.391-6.336V11.419z M1381.155,21.945V10.704
				c0-1.271-0.198-2.171-0.596-2.701c-0.397-0.529-1.06-0.794-1.985-0.794c-0.901,0-1.55,0.258-1.947,0.775
				c-0.396,0.516-0.596,1.424-0.596,2.721v11.242c0,1.298,0.199,2.218,0.596,2.761c0.397,0.543,1.046,0.814,1.947,0.814
				c0.899,0,1.555-0.278,1.965-0.834C1380.95,24.13,1381.155,23.216,1381.155,21.945z M1376.031,37.159v13.228
				c0,1.324,0.199,2.251,0.596,2.78c0.397,0.53,1.046,0.794,1.947,0.794c0.899,0,1.555-0.271,1.965-0.814
				c0.411-0.542,0.616-1.463,0.616-2.761V37.159c0-1.297-0.205-2.225-0.616-2.78c-0.41-0.556-1.065-0.834-1.965-0.834
				c-0.901,0-1.55,0.272-1.947,0.814C1376.23,34.902,1376.031,35.835,1376.031,37.159z"/>
		</g>
	</g>
</g>
<g>
	<path fill="#2F87C8" d="M613,2v121H467V2H613 M615,0H465v125h150V0L615,0z"/>
</g>
<g>
	<g>
		<path fill="#FFFFFF" d="M1561.344,708.962h-3.438v-20.063h-2.969v-2.984h9.375v2.984h-2.969V708.962z"/>
		<path fill="#FFFFFF" d="M1563.391,708.962l2.75-23.047h5.219l2.5,23.047h-3.5l-0.703-6.203h-2.141l-0.734,6.203H1563.391z
			 M1567.813,699.774h1.594l-0.359-5.734c-0.021-0.5-0.055-1.083-0.102-1.75c-0.047-0.666-0.128-1.635-0.242-2.906h-0.156
			c-0.031,0.334-0.089,1.162-0.172,2.484c-0.063,0.917-0.114,1.656-0.156,2.219L1567.813,699.774z"/>
		<path fill="#FFFFFF" d="M1574.781,685.915h4.063c1.708,0,2.942,0.331,3.703,0.992c0.761,0.662,1.141,1.742,1.141,3.242v3.031
			c0,0.948-0.286,1.722-0.859,2.32c-0.573,0.6-1.417,1.014-2.531,1.242v0.125c1.136,0.094,1.984,0.404,2.547,0.93
			c0.563,0.526,0.844,1.273,0.844,2.242v4.703c0,1.479-0.38,2.553-1.141,3.219c-0.761,0.667-1.995,1-3.703,1h-4.063V685.915z
			 M1580.234,693.853v-3.766c0-0.51-0.106-0.891-0.32-1.141s-0.534-0.375-0.961-0.375h-0.75v6.797h0.75
			c0.427,0,0.747-0.125,0.961-0.375S1580.234,694.363,1580.234,693.853z M1578.203,698.181v7.969h0.75
			c0.427,0,0.747-0.125,0.961-0.375s0.32-0.625,0.32-1.125v-5c0-0.5-0.104-0.869-0.313-1.109c-0.208-0.239-0.531-0.359-0.969-0.359
			H1578.203z"/>
		<path fill="#FFFFFF" d="M1590.234,685.915h4.063c1.708,0,2.942,0.331,3.703,0.992c0.761,0.662,1.141,1.742,1.141,3.242v3.031
			c0,0.948-0.286,1.722-0.859,2.32c-0.573,0.6-1.417,1.014-2.531,1.242v0.125c1.136,0.094,1.984,0.404,2.547,0.93
			c0.563,0.526,0.844,1.273,0.844,2.242v4.703c0,1.479-0.38,2.553-1.141,3.219c-0.761,0.667-1.995,1-3.703,1h-4.063V685.915z
			 M1595.688,693.853v-3.766c0-0.51-0.106-0.891-0.32-1.141s-0.534-0.375-0.961-0.375h-0.75v6.797h0.75
			c0.427,0,0.747-0.125,0.961-0.375S1595.688,694.363,1595.688,693.853z M1593.656,698.181v7.969h0.75
			c0.427,0,0.747-0.125,0.961-0.375s0.32-0.625,0.32-1.125v-5c0-0.5-0.104-0.869-0.313-1.109c-0.208-0.239-0.531-0.359-0.969-0.359
			H1593.656z"/>
		<path fill="#FFFFFF" d="M1600.344,705.056v-19.141h3.453v19.266c0,0.521,0.078,0.886,0.234,1.094
			c0.156,0.209,0.411,0.313,0.766,0.313s0.612-0.106,0.773-0.32c0.161-0.213,0.242-0.575,0.242-1.086v-19.266h3.438v19.141
			c0,1.448-0.378,2.547-1.133,3.297s-1.862,1.125-3.32,1.125s-2.565-0.375-3.32-1.125S1600.344,706.504,1600.344,705.056z"/>
		<path fill="#FFFFFF" d="M1616.422,708.962h-3.438v-20.063h-2.969v-2.984h9.375v2.984h-2.969V708.962z"/>
		<path fill="#FFFFFF" d="M1625.672,708.962h-3.438v-20.063h-2.969v-2.984h9.375v2.984h-2.969V708.962z"/>
		<path fill="#FFFFFF" d="M1629.375,689.853c0-1.447,0.378-2.544,1.133-3.289c0.755-0.744,1.862-1.117,3.32-1.117
			s2.565,0.373,3.32,1.117c0.755,0.745,1.133,1.842,1.133,3.289v15.203c0,1.448-0.378,2.547-1.133,3.297s-1.862,1.125-3.32,1.125
			s-2.565-0.375-3.32-1.125s-1.133-1.849-1.133-3.297V689.853z M1632.828,689.571v15.609c0,0.521,0.078,0.886,0.234,1.094
			c0.156,0.209,0.411,0.313,0.766,0.313s0.612-0.106,0.773-0.32c0.161-0.213,0.242-0.575,0.242-1.086v-15.609
			c0-0.5-0.078-0.854-0.234-1.063c-0.156-0.208-0.417-0.313-0.781-0.313c-0.354,0-0.609,0.102-0.766,0.305
			S1632.828,689.062,1632.828,689.571z"/>
		<path fill="#FFFFFF" d="M1640,708.962v-23.047h5.219l1.281,9.453c0.229,1.698,0.442,3.443,0.641,5.234
			c0.198,1.792,0.38,3.62,0.547,5.484l0.188-0.016c-0.042-1.875-0.073-3.539-0.094-4.992s-0.031-2.43-0.031-2.93l-0.094-12.234
			h2.844v23.047h-5.094l-1.656-12.734c-0.281-2.188-0.487-3.81-0.617-4.867c-0.13-1.057-0.231-1.95-0.305-2.68h-0.234
			c0.031,1.688,0.055,3.008,0.07,3.961s0.023,1.561,0.023,1.82l0.109,14.5H1640z"/>
	</g>
</g>
<g>
	<g>
		<path fill="#FFFFFF" d="M1555.891,651.68h4.063c1.708,0,2.942,0.331,3.703,0.992c0.761,0.662,1.141,1.742,1.141,3.242v3.031
			c0,0.948-0.286,1.722-0.859,2.32c-0.573,0.6-1.417,1.014-2.531,1.242v0.125c1.136,0.094,1.984,0.404,2.547,0.93
			c0.563,0.526,0.844,1.273,0.844,2.242v4.703c0,1.479-0.38,2.553-1.141,3.219c-0.761,0.667-1.995,1-3.703,1h-4.063V651.68z
			 M1561.344,659.617v-3.766c0-0.51-0.106-0.891-0.32-1.141s-0.534-0.375-0.961-0.375h-0.75v6.797h0.75
			c0.427,0,0.747-0.125,0.961-0.375S1561.344,660.128,1561.344,659.617z M1559.313,663.945v7.969h0.75
			c0.427,0,0.747-0.125,0.961-0.375s0.32-0.625,0.32-1.125v-5c0-0.5-0.104-0.869-0.313-1.109c-0.208-0.239-0.531-0.359-0.969-0.359
			H1559.313z"/>
		<path fill="#FFFFFF" d="M1566.094,674.727V651.68h3.422v19.875h4.172v3.172H1566.094z"/>
		<path fill="#FFFFFF" d="M1574.813,655.617c0-1.447,0.378-2.544,1.133-3.289c0.755-0.744,1.862-1.117,3.32-1.117
			s2.565,0.373,3.32,1.117c0.755,0.745,1.133,1.842,1.133,3.289v15.203c0,1.448-0.378,2.547-1.133,3.297s-1.862,1.125-3.32,1.125
			s-2.565-0.375-3.32-1.125s-1.133-1.849-1.133-3.297V655.617z M1578.266,655.336v15.609c0,0.521,0.078,0.886,0.234,1.094
			c0.156,0.209,0.411,0.313,0.766,0.313s0.612-0.106,0.773-0.32c0.161-0.213,0.242-0.575,0.242-1.086v-15.609
			c0-0.5-0.078-0.854-0.234-1.063c-0.156-0.208-0.417-0.313-0.781-0.313c-0.354,0-0.609,0.102-0.766,0.305
			S1578.266,654.826,1578.266,655.336z"/>
		<path fill="#FFFFFF" d="M1590.719,655.336c0-0.51-0.075-0.867-0.227-1.07s-0.403-0.305-0.758-0.305s-0.609,0.102-0.766,0.305
			s-0.234,0.561-0.234,1.07v15.609c0,0.521,0.078,0.886,0.234,1.094c0.156,0.209,0.411,0.313,0.766,0.313s0.606-0.104,0.758-0.313
			c0.151-0.208,0.227-0.572,0.227-1.094v-5.172h3.453v5.047c0,1.448-0.375,2.547-1.125,3.297s-1.854,1.125-3.313,1.125
			c-1.469,0-2.578-0.375-3.328-1.125s-1.125-1.849-1.125-3.297v-15.203c0-1.447,0.375-2.544,1.125-3.289
			c0.75-0.744,1.859-1.117,3.328-1.117c1.458,0,2.563,0.373,3.313,1.117c0.75,0.745,1.125,1.842,1.125,3.289v4.578h-3.453V655.336z"
			/>
		<path fill="#FFFFFF" d="M1595.422,674.727V651.68h3.422v10.219h0.141l2.656-10.219h3.328l-2.828,10.531l2.828,12.516h-3.625
			l-2.359-11.609h-0.141v11.609H1595.422z"/>
	</g>
</g>
<g>
	<g>
		<path fill="#FFFFFF" d="M1561.172,624.571c0-0.51-0.075-0.867-0.227-1.07s-0.403-0.305-0.758-0.305s-0.609,0.102-0.766,0.305
			s-0.234,0.561-0.234,1.07v15.609c0,0.521,0.078,0.886,0.234,1.094c0.156,0.209,0.411,0.313,0.766,0.313s0.606-0.104,0.758-0.313
			c0.151-0.208,0.227-0.572,0.227-1.094v-5.172h3.453v5.047c0,1.448-0.375,2.547-1.125,3.297s-1.854,1.125-3.313,1.125
			c-1.469,0-2.578-0.375-3.328-1.125s-1.125-1.849-1.125-3.297v-15.203c0-1.447,0.375-2.544,1.125-3.289
			c0.75-0.744,1.859-1.117,3.328-1.117c1.458,0,2.563,0.373,3.313,1.117c0.75,0.745,1.125,1.842,1.125,3.289v4.578h-3.453V624.571z"
			/>
		<path fill="#FFFFFF" d="M1565.875,643.962l2.75-23.047h5.219l2.5,23.047h-3.5l-0.703-6.203H1570l-0.734,6.203H1565.875z
			 M1570.297,634.774h1.594l-0.359-5.734c-0.021-0.5-0.055-1.083-0.102-1.75c-0.047-0.666-0.128-1.635-0.242-2.906h-0.156
			c-0.031,0.334-0.089,1.162-0.172,2.484c-0.063,0.917-0.114,1.656-0.156,2.219L1570.297,634.774z"/>
		<path fill="#FFFFFF" d="M1577.266,643.962v-23.047h4.063c1.688,0,2.917,0.331,3.688,0.992c0.771,0.662,1.156,1.722,1.156,3.18
			v5.656c0,1.479-0.383,2.555-1.148,3.227s-1.997,1.008-3.695,1.008h-0.641v8.984H1577.266z M1582.719,630.743v-5.656
			c0-0.51-0.106-0.891-0.32-1.141s-0.534-0.375-0.961-0.375h-0.75v8.672h0.75c0.427,0,0.747-0.122,0.961-0.367
			C1582.612,631.632,1582.719,631.254,1582.719,630.743z"/>
	</g>
</g>
<g>
	<g>
		<path fill="#FFFFFF" d="M1561.172,734.609c0-0.51-0.075-0.867-0.227-1.07s-0.403-0.305-0.758-0.305s-0.609,0.102-0.766,0.305
			s-0.234,0.561-0.234,1.07v15.609c0,0.521,0.078,0.886,0.234,1.094c0.156,0.209,0.411,0.313,0.766,0.313s0.606-0.104,0.758-0.313
			c0.151-0.208,0.227-0.572,0.227-1.094v-5.172h3.453v5.047c0,1.448-0.375,2.547-1.125,3.297s-1.854,1.125-3.313,1.125
			c-1.469,0-2.578-0.375-3.328-1.125s-1.125-1.849-1.125-3.297v-15.203c0-1.447,0.375-2.544,1.125-3.289
			c0.75-0.744,1.859-1.117,3.328-1.117c1.458,0,2.563,0.373,3.313,1.117c0.75,0.745,1.125,1.842,1.125,3.289v4.578h-3.453V734.609z"
			/>
		<path fill="#FFFFFF" d="M1565.781,734.891c0-1.447,0.378-2.544,1.133-3.289c0.755-0.744,1.862-1.117,3.32-1.117
			s2.565,0.373,3.32,1.117c0.755,0.745,1.133,1.842,1.133,3.289v15.203c0,1.448-0.378,2.547-1.133,3.297s-1.862,1.125-3.32,1.125
			s-2.565-0.375-3.32-1.125s-1.133-1.849-1.133-3.297V734.891z M1569.234,734.609v15.609c0,0.521,0.078,0.886,0.234,1.094
			c0.156,0.209,0.411,0.313,0.766,0.313s0.612-0.106,0.773-0.32c0.161-0.213,0.242-0.575,0.242-1.086v-15.609
			c0-0.5-0.078-0.854-0.234-1.063c-0.156-0.208-0.417-0.313-0.781-0.313c-0.354,0-0.609,0.102-0.766,0.305
			S1569.234,734.1,1569.234,734.609z"/>
		<path fill="#FFFFFF" d="M1576.406,754v-23.047h5.188l1,8.672v0.141c0,0.073,0.016,0.35,0.047,0.828
			c0.156,2.417,0.266,4.859,0.328,7.328h0.188c0.042-1.416,0.104-2.791,0.188-4.125c0.083-1.333,0.192-2.646,0.328-3.938
			l0.938-8.906h5.016V754h-3.141l0.078-12v-0.313c0-0.479,0.013-1.359,0.039-2.641s0.06-2.708,0.102-4.281h-0.172
			c-0.063,1.188-0.136,2.303-0.219,3.344c-0.083,1.042-0.161,1.901-0.234,2.578L1584.547,754h-3.266
			c-0.552-4.708-0.974-8.557-1.266-11.547c-0.292-2.989-0.5-5.552-0.625-7.688h-0.188c0.011,0.761,0.036,1.761,0.078,3
			c0.052,1.99,0.078,3.115,0.078,3.375V754H1576.406z"/>
		<path fill="#FFFFFF" d="M1591.375,754v-23.047h4.063c1.688,0,2.917,0.331,3.688,0.992c0.771,0.662,1.156,1.722,1.156,3.18v5.656
			c0,1.479-0.383,2.555-1.148,3.227s-1.997,1.008-3.695,1.008h-0.641V754H1591.375z M1596.828,740.781v-5.656
			c0-0.51-0.106-0.891-0.32-1.141s-0.534-0.375-0.961-0.375h-0.75v8.672h0.75c0.427,0,0.747-0.122,0.961-0.367
			C1596.722,741.67,1596.828,741.292,1596.828,740.781z"/>
		<path fill="#FFFFFF" d="M1601.422,754v-23.047h3.422v19.875h4.172V754H1601.422z"/>
		<path fill="#FFFFFF" d="M1609.641,754v-23.047h7.594v3.141h-4.172v5.797h4.078v3.031h-4.078v7.906h4.172V754H1609.641z"/>
		<path fill="#FFFFFF" d="M1617.094,754l2.984-11.578l-2.75-11.469h3.641l0.703,3.359c0.011,0.031,0.021,0.073,0.031,0.125
			c0.375,1.667,0.63,3.516,0.766,5.547h0.141c0.125-1.229,0.269-2.313,0.43-3.25s0.347-1.797,0.555-2.578l0.859-3.203h3.203
			l-2.75,10.375l2.813,12.672h-3.609l-1.219-5.734c-0.104-0.51-0.198-1.114-0.281-1.813c-0.083-0.697-0.151-1.469-0.203-2.313
			h-0.156c-0.063,1.281-0.245,2.589-0.547,3.922c-0.011,0.042-0.021,0.078-0.031,0.109l-1.281,5.828H1617.094z"/>
		<path fill="#FFFFFF" d="M1633.516,730.953h4.063c1.708,0,2.942,0.331,3.703,0.992c0.761,0.662,1.141,1.742,1.141,3.242v3.031
			c0,0.948-0.286,1.722-0.859,2.32c-0.573,0.6-1.417,1.014-2.531,1.242v0.125c1.136,0.094,1.984,0.404,2.547,0.93
			c0.563,0.526,0.844,1.273,0.844,2.242v4.703c0,1.479-0.38,2.553-1.141,3.219c-0.761,0.667-1.995,1-3.703,1h-4.063V730.953z
			 M1638.969,738.891v-3.766c0-0.51-0.106-0.891-0.32-1.141s-0.534-0.375-0.961-0.375h-0.75v6.797h0.75
			c0.427,0,0.747-0.125,0.961-0.375S1638.969,739.401,1638.969,738.891z M1636.938,743.219v7.969h0.75
			c0.427,0,0.747-0.125,0.961-0.375s0.32-0.625,0.32-1.125v-5c0-0.5-0.104-0.869-0.313-1.109c-0.208-0.239-0.531-0.359-0.969-0.359
			H1636.938z"/>
		<path fill="#FFFFFF" d="M1643.625,750.094v-19.141h3.453v19.266c0,0.521,0.078,0.886,0.234,1.094
			c0.156,0.209,0.411,0.313,0.766,0.313s0.612-0.106,0.773-0.32c0.161-0.213,0.242-0.575,0.242-1.086v-19.266h3.438v19.141
			c0,1.448-0.378,2.547-1.133,3.297s-1.862,1.125-3.32,1.125s-2.565-0.375-3.32-1.125S1643.625,751.542,1643.625,750.094z"/>
		<path fill="#FFFFFF" d="M1659.703,754h-3.438v-20.063h-2.969v-2.984h9.375v2.984h-2.969V754z"/>
		<path fill="#FFFFFF" d="M1668.953,754h-3.438v-20.063h-2.969v-2.984h9.375v2.984h-2.969V754z"/>
		<path fill="#FFFFFF" d="M1672.656,734.891c0-1.447,0.378-2.544,1.133-3.289c0.755-0.744,1.862-1.117,3.32-1.117
			s2.565,0.373,3.32,1.117c0.755,0.745,1.133,1.842,1.133,3.289v15.203c0,1.448-0.378,2.547-1.133,3.297s-1.862,1.125-3.32,1.125
			s-2.565-0.375-3.32-1.125s-1.133-1.849-1.133-3.297V734.891z M1676.109,734.609v15.609c0,0.521,0.078,0.886,0.234,1.094
			c0.156,0.209,0.411,0.313,0.766,0.313s0.612-0.106,0.773-0.32c0.161-0.213,0.242-0.575,0.242-1.086v-15.609
			c0-0.5-0.078-0.854-0.234-1.063c-0.156-0.208-0.417-0.313-0.781-0.313c-0.354,0-0.609,0.102-0.766,0.305
			S1676.109,734.1,1676.109,734.609z"/>
		<path fill="#FFFFFF" d="M1683.281,754v-23.047h5.219l1.281,9.453c0.229,1.698,0.442,3.443,0.641,5.234
			c0.198,1.792,0.38,3.62,0.547,5.484l0.188-0.016c-0.042-1.875-0.073-3.539-0.094-4.992s-0.031-2.43-0.031-2.93l-0.094-12.234
			h2.844V754h-5.094l-1.656-12.734c-0.281-2.188-0.487-3.81-0.617-4.867c-0.13-1.057-0.231-1.95-0.305-2.68h-0.234
			c0.031,1.688,0.055,3.008,0.07,3.961s0.023,1.561,0.023,1.82l0.109,14.5H1683.281z"/>
	</g>
</g>
<g>
	<g>
		<path fill="#FFFFFF" d="M1555.484,559.853c0-1.447,0.372-2.544,1.117-3.289c0.745-0.744,1.841-1.117,3.289-1.117
			c1.469,0,2.578,0.373,3.328,1.117c0.75,0.745,1.125,1.842,1.125,3.289v4.578h-3.422v-4.859c0-0.5-0.081-0.854-0.242-1.063
			c-0.161-0.208-0.425-0.313-0.789-0.313c-0.354,0-0.606,0.102-0.758,0.305s-0.227,0.561-0.227,1.07v1.656
			c0,0.573,0.036,1.031,0.109,1.375s0.188,0.625,0.344,0.844l3.734,5.109c0.469,0.646,0.794,1.229,0.977,1.75
			c0.183,0.521,0.273,1.094,0.273,1.719v3.031c0,1.448-0.375,2.547-1.125,3.297s-1.859,1.125-3.328,1.125
			c-1.448,0-2.544-0.373-3.289-1.117s-1.117-1.846-1.117-3.305v-5.047h3.422v5.172c0,0.521,0.075,0.886,0.227,1.094
			c0.151,0.209,0.403,0.313,0.758,0.313c0.364,0,0.628-0.106,0.789-0.32c0.161-0.213,0.242-0.575,0.242-1.086v-2.391
			c0-0.313-0.047-0.614-0.141-0.906c-0.094-0.291-0.239-0.578-0.438-0.859l-3.906-5.438c-0.333-0.469-0.575-0.953-0.727-1.453
			s-0.227-1.094-0.227-1.781V559.853z"/>
		<path fill="#FFFFFF" d="M1565.656,578.962v-23.047h5.188l1,8.672v0.141c0,0.073,0.016,0.35,0.047,0.828
			c0.156,2.417,0.266,4.859,0.328,7.328h0.188c0.042-1.416,0.104-2.791,0.188-4.125c0.083-1.333,0.192-2.646,0.328-3.938
			l0.938-8.906h5.016v23.047h-3.141l0.078-12v-0.313c0-0.479,0.013-1.359,0.039-2.641s0.06-2.708,0.102-4.281h-0.172
			c-0.063,1.188-0.136,2.303-0.219,3.344c-0.083,1.042-0.161,1.901-0.234,2.578l-1.531,13.313h-3.266
			c-0.552-4.708-0.974-8.557-1.266-11.547c-0.292-2.989-0.5-5.552-0.625-7.688h-0.188c0.011,0.761,0.036,1.761,0.078,3
			c0.052,1.99,0.078,3.115,0.078,3.375v12.859H1565.656z"/>
		<path fill="#FFFFFF" d="M1579.734,578.962l2.75-23.047h5.219l2.5,23.047h-3.5l-0.703-6.203h-2.141l-0.734,6.203H1579.734z
			 M1584.156,569.774h1.594l-0.359-5.734c-0.021-0.5-0.055-1.083-0.102-1.75c-0.047-0.666-0.128-1.635-0.242-2.906h-0.156
			c-0.031,0.334-0.089,1.162-0.172,2.484c-0.063,0.917-0.114,1.656-0.156,2.219L1584.156,569.774z"/>
		<path fill="#FFFFFF" d="M1591.125,578.962v-23.047h3.422v19.875h4.172v3.172H1591.125z"/>
		<path fill="#FFFFFF" d="M1599.344,578.962v-23.047h3.422v19.875h4.172v3.172H1599.344z"/>
		<path fill="#FFFFFF" d="M1612.813,578.962v-23.047h7.594v3.141h-4.172v5.797h4.078v3.031h-4.078v7.906h4.172v3.172H1612.813z"/>
		<path fill="#FFFFFF" d="M1621.547,578.962v-23.047h3.422v19.875h4.172v3.172H1621.547z"/>
		<path fill="#FFFFFF" d="M1629.766,555.915h4.063c1.708,0,2.942,0.331,3.703,0.992c0.761,0.662,1.141,1.742,1.141,3.242v3.031
			c0,0.948-0.286,1.722-0.859,2.32c-0.573,0.6-1.417,1.014-2.531,1.242v0.125c1.136,0.094,1.984,0.404,2.547,0.93
			c0.563,0.526,0.844,1.273,0.844,2.242v4.703c0,1.479-0.38,2.553-1.141,3.219c-0.761,0.667-1.995,1-3.703,1h-4.063V555.915z
			 M1635.219,563.853v-3.766c0-0.51-0.106-0.891-0.32-1.141s-0.534-0.375-0.961-0.375h-0.75v6.797h0.75
			c0.427,0,0.747-0.125,0.961-0.375S1635.219,564.363,1635.219,563.853z M1633.188,568.181v7.969h0.75
			c0.427,0,0.747-0.125,0.961-0.375s0.32-0.625,0.32-1.125v-5c0-0.5-0.104-0.869-0.313-1.109c-0.208-0.239-0.531-0.359-0.969-0.359
			H1633.188z"/>
		<path fill="#FFFFFF" d="M1640.469,559.853c0-1.447,0.378-2.544,1.133-3.289c0.755-0.744,1.862-1.117,3.32-1.117
			s2.565,0.373,3.32,1.117c0.755,0.745,1.133,1.842,1.133,3.289v15.203c0,1.448-0.378,2.547-1.133,3.297s-1.862,1.125-3.32,1.125
			s-2.565-0.375-3.32-1.125s-1.133-1.849-1.133-3.297V559.853z M1643.922,559.571v15.609c0,0.521,0.078,0.886,0.234,1.094
			c0.156,0.209,0.411,0.313,0.766,0.313s0.612-0.106,0.773-0.32c0.161-0.213,0.242-0.575,0.242-1.086v-15.609
			c0-0.5-0.078-0.854-0.234-1.063c-0.156-0.208-0.417-0.313-0.781-0.313c-0.354,0-0.609,0.102-0.766,0.305
			S1643.922,559.062,1643.922,559.571z"/>
		<path fill="#FFFFFF" d="M1651.938,578.962c-0.031-1.052-0.097-2.283-0.195-3.695c-0.099-1.411-0.237-3.133-0.414-5.164
			l-1.344-14.188h3.391l0.641,8.172c0.073,1.115,0.144,2.412,0.211,3.891c0.067,1.479,0.128,3.125,0.18,4.938h0.203
			c0.083-2.291,0.156-4.172,0.219-5.641s0.109-2.338,0.141-2.609l0.828-8.75h3.719l0.703,9.25c0.042,0.511,0.081,1.472,0.117,2.883
			c0.036,1.412,0.065,3.034,0.086,4.867h0.203c0.083-2.364,0.161-4.211,0.234-5.539s0.156-2.424,0.25-3.289l0.844-8.172h2.719
			l-2.25,23.047h-3.766l-1.031-13.859c-0.031-0.521-0.055-1.023-0.07-1.508s-0.023-0.961-0.023-1.43v-0.938h-0.156
			c-0.104,1.834-0.273,4.308-0.508,7.422c-0.234,3.115-0.513,6.553-0.836,10.313H1651.938z"/>
	</g>
</g>
<g>
	<g>
		<path fill="#FFFFFF" d="M1555.891,440.248h4.063c1.708,0,2.942,0.331,3.703,0.992c0.761,0.662,1.141,1.742,1.141,3.242v3.031
			c0,0.948-0.286,1.722-0.859,2.32c-0.573,0.6-1.417,1.014-2.531,1.242v0.125c1.136,0.094,1.984,0.404,2.547,0.93
			c0.563,0.526,0.844,1.273,0.844,2.242v4.703c0,1.479-0.38,2.553-1.141,3.219c-0.761,0.667-1.995,1-3.703,1h-4.063V440.248z
			 M1561.344,448.186v-3.766c0-0.51-0.106-0.891-0.32-1.141s-0.534-0.375-0.961-0.375h-0.75v6.797h0.75
			c0.427,0,0.747-0.125,0.961-0.375S1561.344,448.696,1561.344,448.186z M1559.313,452.514v7.969h0.75
			c0.427,0,0.747-0.125,0.961-0.375s0.32-0.625,0.32-1.125v-5c0-0.5-0.104-0.869-0.313-1.109c-0.208-0.239-0.531-0.359-0.969-0.359
			H1559.313z"/>
		<path fill="#FFFFFF" d="M1565.203,463.295l2.75-23.047h5.219l2.5,23.047h-3.5l-0.703-6.203h-2.141l-0.734,6.203H1565.203z
			 M1569.625,454.107h1.594l-0.359-5.734c-0.021-0.5-0.055-1.083-0.102-1.75c-0.047-0.666-0.128-1.635-0.242-2.906h-0.156
			c-0.031,0.334-0.089,1.162-0.172,2.484c-0.063,0.917-0.114,1.656-0.156,2.219L1569.625,454.107z"/>
		<path fill="#FFFFFF" d="M1576.594,440.248h4.063c1.708,0,2.942,0.331,3.703,0.992c0.761,0.662,1.141,1.742,1.141,3.242v2.688
			c0,1.188-0.263,2.086-0.789,2.695s-1.394,1.014-2.602,1.211v0.125c1.136,0.021,1.984,0.295,2.547,0.82
			c0.563,0.526,0.844,1.311,0.844,2.352v4.703c0,1.031,0.05,1.889,0.148,2.57c0.099,0.683,0.253,1.232,0.461,1.648h-3.625
			c-0.156-0.364-0.269-0.805-0.336-1.32s-0.102-1.164-0.102-1.945v-1.016v-5.031c0-0.489-0.153-0.852-0.461-1.086
			s-0.784-0.352-1.43-0.352h-0.141v10.75h-3.422V440.248z M1582.047,448.186v-3.766c0-0.51-0.106-0.891-0.32-1.141
			s-0.534-0.375-0.961-0.375h-0.75v6.797h0.75c0.427,0,0.747-0.125,0.961-0.375S1582.047,448.696,1582.047,448.186z"/>
		<path fill="#FFFFFF" d="M1586.531,444.186c0-1.447,0.372-2.544,1.117-3.289c0.745-0.744,1.841-1.117,3.289-1.117
			c1.469,0,2.578,0.373,3.328,1.117c0.75,0.745,1.125,1.842,1.125,3.289v4.578h-3.422v-4.859c0-0.5-0.081-0.854-0.242-1.063
			c-0.161-0.208-0.425-0.313-0.789-0.313c-0.354,0-0.606,0.102-0.758,0.305s-0.227,0.561-0.227,1.07v1.656
			c0,0.573,0.036,1.031,0.109,1.375s0.188,0.625,0.344,0.844l3.734,5.109c0.469,0.646,0.794,1.229,0.977,1.75
			c0.183,0.521,0.273,1.094,0.273,1.719v3.031c0,1.448-0.375,2.547-1.125,3.297s-1.859,1.125-3.328,1.125
			c-1.448,0-2.544-0.373-3.289-1.117s-1.117-1.846-1.117-3.305v-5.047h3.422v5.172c0,0.521,0.075,0.886,0.227,1.094
			c0.151,0.209,0.403,0.313,0.758,0.313c0.364,0,0.628-0.106,0.789-0.32c0.161-0.213,0.242-0.575,0.242-1.086v-2.391
			c0-0.313-0.047-0.614-0.141-0.906c-0.094-0.291-0.239-0.578-0.438-0.859l-3.906-5.438c-0.333-0.469-0.575-0.953-0.727-1.453
			s-0.227-1.094-0.227-1.781V444.186z"/>
	</g>
</g>
<g>
	<g>
		<path fill="#FFFFFF" d="M1555.891,296.953h4.063c1.708,0,2.942,0.331,3.703,0.992c0.761,0.662,1.141,1.742,1.141,3.242v3.031
			c0,0.948-0.286,1.722-0.859,2.32c-0.573,0.6-1.417,1.014-2.531,1.242v0.125c1.136,0.094,1.984,0.404,2.547,0.93
			c0.563,0.526,0.844,1.273,0.844,2.242v4.703c0,1.479-0.38,2.553-1.141,3.219c-0.761,0.667-1.995,1-3.703,1h-4.063V296.953z
			 M1561.344,304.89v-3.766c0-0.51-0.106-0.891-0.32-1.141s-0.534-0.375-0.961-0.375h-0.75v6.797h0.75
			c0.427,0,0.747-0.125,0.961-0.375S1561.344,305.401,1561.344,304.89z M1559.313,309.218v7.969h0.75
			c0.427,0,0.747-0.125,0.961-0.375s0.32-0.625,0.32-1.125v-5c0-0.5-0.104-0.869-0.313-1.109c-0.208-0.239-0.531-0.359-0.969-0.359
			H1559.313z"/>
		<path fill="#FFFFFF" d="M1566.094,296.953h4.063c1.708,0,2.942,0.331,3.703,0.992c0.761,0.662,1.141,1.742,1.141,3.242v2.688
			c0,1.188-0.263,2.086-0.789,2.695s-1.394,1.014-2.602,1.211v0.125c1.136,0.021,1.984,0.295,2.547,0.82
			c0.563,0.526,0.844,1.311,0.844,2.352v4.703c0,1.031,0.05,1.889,0.148,2.57c0.099,0.683,0.253,1.232,0.461,1.648h-3.625
			c-0.156-0.364-0.269-0.805-0.336-1.32s-0.102-1.164-0.102-1.945v-1.016v-5.031c0-0.489-0.153-0.852-0.461-1.086
			s-0.784-0.352-1.43-0.352h-0.141V320h-3.422V296.953z M1571.547,304.89v-3.766c0-0.51-0.106-0.891-0.32-1.141
			s-0.534-0.375-0.961-0.375h-0.75v6.797h0.75c0.427,0,0.747-0.125,0.961-0.375S1571.547,305.401,1571.547,304.89z"/>
		<path fill="#FFFFFF" d="M1576.141,320l2.75-23.047h5.219l2.5,23.047h-3.5l-0.703-6.203h-2.141l-0.734,6.203H1576.141z
			 M1580.563,310.812h1.594l-0.359-5.734c-0.021-0.5-0.055-1.083-0.102-1.75c-0.047-0.666-0.128-1.635-0.242-2.906h-0.156
			c-0.031,0.334-0.089,1.162-0.172,2.484c-0.063,0.917-0.114,1.656-0.156,2.219L1580.563,310.812z"/>
		<path fill="#FFFFFF" d="M1593.406,300.609c0-0.51-0.075-0.867-0.227-1.07s-0.403-0.305-0.758-0.305s-0.609,0.102-0.766,0.305
			s-0.234,0.561-0.234,1.07v15.609c0,0.521,0.078,0.886,0.234,1.094c0.156,0.209,0.411,0.313,0.766,0.313s0.606-0.104,0.758-0.313
			c0.151-0.208,0.227-0.572,0.227-1.094v-5.172h3.453v5.047c0,1.448-0.375,2.547-1.125,3.297s-1.854,1.125-3.313,1.125
			c-1.469,0-2.578-0.375-3.328-1.125s-1.125-1.849-1.125-3.297V300.89c0-1.447,0.375-2.544,1.125-3.289
			c0.75-0.744,1.859-1.117,3.328-1.117c1.458,0,2.563,0.373,3.313,1.117c0.75,0.745,1.125,1.842,1.125,3.289v4.578h-3.453V300.609z"
			/>
		<path fill="#FFFFFF" d="M1598.109,320v-23.047h3.422v10.219h0.141l2.656-10.219h3.328l-2.828,10.531l2.828,12.516h-3.625
			l-2.359-11.609h-0.141V320H1598.109z"/>
		<path fill="#FFFFFF" d="M1608.188,320v-23.047h7.594v3.141h-4.172v5.797h4.078v3.031h-4.078v7.906h4.172V320H1608.188z"/>
		<path fill="#FFFFFF" d="M1622.375,320h-3.438v-20.063h-2.969v-2.984h9.375v2.984h-2.969V320z"/>
	</g>
</g>
<rect x="1406.667" y="25.626" fill="#2F87C8" width="143.499" height="2"/>
<rect x="1406.917" y="746" fill="#2F87C8" width="143.083" height="2"/>
<rect x="1292" y="687" fill="#2F87C8" width="258" height="2"/>
<rect x="1408.584" y="566.334" fill="#2F87C8" width="141.416" height="2"/>
<rect x="1403.834" y="451.334" fill="#2F87C8" width="146.166" height="2"/>
<g>
	<g>
		<path fill="#FFFFFF" d="M1555.057,209.914h4.063c1.708,0,2.942,0.331,3.703,0.992c0.761,0.662,1.141,1.742,1.141,3.242v3.031
			c0,0.948-0.286,1.722-0.859,2.32c-0.573,0.6-1.417,1.014-2.531,1.242v0.125c1.136,0.094,1.984,0.404,2.547,0.93
			c0.563,0.526,0.844,1.273,0.844,2.242v4.703c0,1.479-0.38,2.553-1.141,3.219c-0.761,0.667-1.995,1-3.703,1h-4.063V209.914z
			 M1560.51,217.851v-3.766c0-0.51-0.106-0.891-0.32-1.141s-0.534-0.375-0.961-0.375h-0.75v6.797h0.75
			c0.427,0,0.747-0.125,0.961-0.375S1560.51,218.362,1560.51,217.851z M1558.479,222.179v7.969h0.75
			c0.427,0,0.747-0.125,0.961-0.375s0.32-0.625,0.32-1.125v-5c0-0.5-0.104-0.869-0.313-1.109c-0.208-0.239-0.531-0.359-0.969-0.359
			H1558.479z"/>
		<path fill="#FFFFFF" d="M1564.369,232.96l2.75-23.047h5.219l2.5,23.047h-3.5l-0.703-6.203h-2.141l-0.734,6.203H1564.369z
			 M1568.791,223.773h1.594l-0.359-5.734c-0.021-0.5-0.055-1.083-0.102-1.75c-0.047-0.666-0.128-1.635-0.242-2.906h-0.156
			c-0.031,0.334-0.089,1.162-0.172,2.484c-0.063,0.917-0.114,1.656-0.156,2.219L1568.791,223.773z"/>
		<path fill="#FFFFFF" d="M1575.76,209.914h4.063c1.708,0,2.942,0.331,3.703,0.992c0.761,0.662,1.141,1.742,1.141,3.242v2.688
			c0,1.188-0.263,2.086-0.789,2.695s-1.394,1.014-2.602,1.211v0.125c1.136,0.021,1.984,0.295,2.547,0.82
			c0.563,0.526,0.844,1.311,0.844,2.352v4.703c0,1.031,0.05,1.889,0.148,2.57c0.099,0.683,0.253,1.232,0.461,1.648h-3.625
			c-0.156-0.364-0.269-0.805-0.336-1.32s-0.102-1.164-0.102-1.945v-1.016v-5.031c0-0.489-0.153-0.852-0.461-1.086
			s-0.784-0.352-1.43-0.352h-0.141v10.75h-3.422V209.914z M1581.213,217.851v-3.766c0-0.51-0.106-0.891-0.32-1.141
			s-0.534-0.375-0.961-0.375h-0.75v6.797h0.75c0.427,0,0.747-0.125,0.961-0.375S1581.213,218.362,1581.213,217.851z"/>
		<path fill="#FFFFFF" d="M1585.697,213.851c0-1.447,0.372-2.544,1.117-3.289c0.745-0.744,1.841-1.117,3.289-1.117
			c1.469,0,2.578,0.373,3.328,1.117c0.75,0.745,1.125,1.842,1.125,3.289v4.578h-3.422v-4.859c0-0.5-0.081-0.854-0.242-1.063
			c-0.161-0.208-0.425-0.313-0.789-0.313c-0.354,0-0.606,0.102-0.758,0.305s-0.227,0.561-0.227,1.07v1.656
			c0,0.573,0.036,1.031,0.109,1.375s0.188,0.625,0.344,0.844l3.734,5.109c0.469,0.646,0.794,1.229,0.977,1.75
			c0.183,0.521,0.273,1.094,0.273,1.719v3.031c0,1.448-0.375,2.547-1.125,3.297s-1.859,1.125-3.328,1.125
			c-1.448,0-2.544-0.373-3.289-1.117s-1.117-1.846-1.117-3.305v-5.047h3.422v5.172c0,0.521,0.075,0.886,0.227,1.094
			c0.151,0.209,0.403,0.313,0.758,0.313c0.364,0,0.628-0.106,0.789-0.32c0.161-0.213,0.242-0.575,0.242-1.086v-2.391
			c0-0.313-0.047-0.614-0.141-0.906c-0.094-0.291-0.239-0.578-0.438-0.859l-3.906-5.438c-0.333-0.469-0.575-0.953-0.727-1.453
			s-0.227-1.094-0.227-1.781V213.851z"/>
	</g>
</g>
<g>
	<g>
		<path fill="#FFFFFF" d="M244.473,65.664h4.063c1.708,0,2.942,0.331,3.703,0.992c0.761,0.662,1.141,1.742,1.141,3.242v3.031
			c0,0.948-0.286,1.722-0.859,2.32c-0.573,0.6-1.417,1.014-2.531,1.242v0.125c1.136,0.094,1.984,0.404,2.547,0.93
			c0.563,0.526,0.844,1.273,0.844,2.242v4.703c0,1.479-0.38,2.553-1.141,3.219c-0.761,0.667-1.995,1-3.703,1h-4.063V65.664z
			 M249.926,73.601v-3.766c0-0.51-0.106-0.891-0.32-1.141s-0.534-0.375-0.961-0.375h-0.75v6.797h0.75
			c0.427,0,0.747-0.125,0.961-0.375S249.926,74.112,249.926,73.601z M247.895,77.929v7.969h0.75c0.427,0,0.747-0.125,0.961-0.375
			s0.32-0.625,0.32-1.125v-5c0-0.5-0.104-0.869-0.313-1.109c-0.208-0.239-0.531-0.359-0.969-0.359H247.895z"/>
		<path fill="#FFFFFF" d="M254.583,84.804V65.664h3.453v19.266c0,0.521,0.078,0.886,0.234,1.094
			c0.156,0.209,0.411,0.313,0.766,0.313s0.612-0.106,0.773-0.32c0.161-0.213,0.242-0.575,0.242-1.086V65.664h3.438v19.141
			c0,1.448-0.378,2.547-1.133,3.297s-1.862,1.125-3.32,1.125s-2.565-0.375-3.32-1.125S254.583,86.252,254.583,84.804z"/>
		<path fill="#FFFFFF" d="M270.661,88.71h-3.438V68.648h-2.969v-2.984h9.375v2.984h-2.969V88.71z"/>
		<path fill="#FFFFFF" d="M279.911,88.71h-3.438V68.648h-2.969v-2.984h9.375v2.984h-2.969V88.71z"/>
		<path fill="#FFFFFF" d="M283.614,69.601c0-1.447,0.378-2.544,1.133-3.289c0.755-0.744,1.862-1.117,3.32-1.117
			s2.565,0.373,3.32,1.117c0.755,0.745,1.133,1.842,1.133,3.289v15.203c0,1.448-0.378,2.547-1.133,3.297s-1.862,1.125-3.32,1.125
			s-2.565-0.375-3.32-1.125s-1.133-1.849-1.133-3.297V69.601z M287.067,69.32v15.609c0,0.521,0.078,0.886,0.234,1.094
			c0.156,0.209,0.411,0.313,0.766,0.313s0.612-0.106,0.773-0.32c0.161-0.213,0.242-0.575,0.242-1.086V69.32
			c0-0.5-0.078-0.854-0.234-1.063c-0.156-0.208-0.417-0.313-0.781-0.313c-0.354,0-0.609,0.102-0.766,0.305
			S287.067,68.81,287.067,69.32z"/>
		<path fill="#FFFFFF" d="M294.239,88.71V65.664h5.219l1.281,9.453c0.229,1.698,0.442,3.443,0.641,5.234
			c0.198,1.792,0.38,3.62,0.547,5.484l0.188-0.016c-0.042-1.875-0.073-3.539-0.094-4.992s-0.031-2.43-0.031-2.93l-0.094-12.234
			h2.844V88.71h-5.094l-1.656-12.734c-0.281-2.188-0.487-3.81-0.617-4.867c-0.13-1.057-0.231-1.95-0.305-2.68h-0.234
			c0.031,1.688,0.055,3.008,0.07,3.961s0.023,1.561,0.023,1.82l0.109,14.5H294.239z"/>
	</g>
</g>
<g>
	<g>
		<path fill="#FFFFFF" d="M142.223,166.664h4.063c1.708,0,2.942,0.331,3.703,0.992c0.761,0.662,1.141,1.742,1.141,3.242v3.031
			c0,0.948-0.286,1.722-0.859,2.32c-0.573,0.6-1.417,1.014-2.531,1.242v0.125c1.136,0.094,1.984,0.404,2.547,0.93
			c0.563,0.526,0.844,1.273,0.844,2.242v4.703c0,1.479-0.38,2.553-1.141,3.219c-0.761,0.667-1.995,1-3.703,1h-4.063V166.664z
			 M147.676,174.601v-3.766c0-0.51-0.106-0.891-0.32-1.141s-0.534-0.375-0.961-0.375h-0.75v6.797h0.75
			c0.427,0,0.747-0.125,0.961-0.375S147.676,175.112,147.676,174.601z M145.645,178.929v7.969h0.75c0.427,0,0.747-0.125,0.961-0.375
			s0.32-0.625,0.32-1.125v-5c0-0.5-0.104-0.869-0.313-1.109c-0.208-0.239-0.531-0.359-0.969-0.359H145.645z"/>
		<path fill="#FFFFFF" d="M152.926,170.601c0-1.447,0.378-2.544,1.133-3.289c0.755-0.744,1.862-1.117,3.32-1.117
			s2.565,0.373,3.32,1.117c0.755,0.745,1.133,1.842,1.133,3.289v15.203c0,1.448-0.378,2.547-1.133,3.297s-1.862,1.125-3.32,1.125
			s-2.565-0.375-3.32-1.125s-1.133-1.849-1.133-3.297V170.601z M156.379,170.32v15.609c0,0.521,0.078,0.886,0.234,1.094
			c0.156,0.209,0.411,0.313,0.766,0.313s0.612-0.106,0.773-0.32c0.161-0.213,0.242-0.575,0.242-1.086V170.32
			c0-0.5-0.078-0.854-0.234-1.063c-0.156-0.208-0.417-0.313-0.781-0.313c-0.354,0-0.609,0.102-0.766,0.305
			S156.379,169.81,156.379,170.32z"/>
		<path fill="#FFFFFF" d="M169.004,189.71h-3.438v-20.063h-2.969v-2.984h9.375v2.984h-2.969V189.71z"/>
		<path fill="#FFFFFF" d="M178.254,189.71h-3.438v-20.063h-2.969v-2.984h9.375v2.984h-2.969V189.71z"/>
		<path fill="#FFFFFF" d="M181.958,170.601c0-1.447,0.378-2.544,1.133-3.289c0.755-0.744,1.862-1.117,3.32-1.117
			s2.565,0.373,3.32,1.117c0.755,0.745,1.133,1.842,1.133,3.289v15.203c0,1.448-0.378,2.547-1.133,3.297s-1.862,1.125-3.32,1.125
			s-2.565-0.375-3.32-1.125s-1.133-1.849-1.133-3.297V170.601z M185.411,170.32v15.609c0,0.521,0.078,0.886,0.234,1.094
			c0.156,0.209,0.411,0.313,0.766,0.313s0.612-0.106,0.773-0.32c0.161-0.213,0.242-0.575,0.242-1.086V170.32
			c0-0.5-0.078-0.854-0.234-1.063c-0.156-0.208-0.417-0.313-0.781-0.313c-0.354,0-0.609,0.102-0.766,0.305
			S185.411,169.81,185.411,170.32z"/>
		<path fill="#FFFFFF" d="M192.583,189.71v-23.047h5.188l1,8.672v0.141c0,0.073,0.016,0.35,0.047,0.828
			c0.156,2.417,0.266,4.859,0.328,7.328h0.188c0.042-1.416,0.104-2.791,0.188-4.125c0.083-1.333,0.192-2.646,0.328-3.938
			l0.938-8.906h5.016v23.047h-3.141l0.078-12v-0.313c0-0.479,0.013-1.359,0.039-2.641s0.06-2.708,0.102-4.281h-0.172
			c-0.063,1.188-0.136,2.303-0.219,3.344c-0.083,1.042-0.161,1.901-0.234,2.578l-1.531,13.313h-3.266
			c-0.552-4.708-0.974-8.557-1.266-11.547c-0.292-2.989-0.5-5.552-0.625-7.688h-0.188c0.011,0.761,0.036,1.761,0.078,3
			c0.052,1.99,0.078,3.115,0.078,3.375v12.859H192.583z"/>
		<path fill="#FFFFFF" d="M212.801,189.71v-23.047h3.422v19.875h4.172v3.172H212.801z"/>
		<path fill="#FFFFFF" d="M221.02,189.71v-23.047h7.594v3.141h-4.172v5.797h4.078v3.031h-4.078v7.906h4.172v3.172H221.02z"/>
		<path fill="#FFFFFF" d="M229.754,189.71v-23.047h7.594v3.141h-4.172v5.797h4.078v3.031h-4.078v11.078H229.754z"/>
		<path fill="#FFFFFF" d="M243.598,189.71h-3.438v-20.063h-2.969v-2.984h9.375v2.984h-2.969V189.71z"/>
		<path fill="#FFFFFF" d="M252.645,189.71v-23.047h7.594v3.141h-4.172v5.797h4.078v3.031h-4.078v7.906h4.172v3.172H252.645z"/>
		<path fill="#FFFFFF" d="M261.379,189.71v-23.047h3.422v19.875h4.172v3.172H261.379z"/>
		<path fill="#FFFFFF" d="M269.598,166.664h4.063c1.708,0,2.942,0.331,3.703,0.992c0.761,0.662,1.141,1.742,1.141,3.242v3.031
			c0,0.948-0.286,1.722-0.859,2.32c-0.573,0.6-1.417,1.014-2.531,1.242v0.125c1.136,0.094,1.984,0.404,2.547,0.93
			c0.563,0.526,0.844,1.273,0.844,2.242v4.703c0,1.479-0.38,2.553-1.141,3.219c-0.761,0.667-1.995,1-3.703,1h-4.063V166.664z
			 M275.051,174.601v-3.766c0-0.51-0.106-0.891-0.32-1.141s-0.534-0.375-0.961-0.375h-0.75v6.797h0.75
			c0.427,0,0.747-0.125,0.961-0.375S275.051,175.112,275.051,174.601z M273.02,178.929v7.969h0.75c0.427,0,0.747-0.125,0.961-0.375
			s0.32-0.625,0.32-1.125v-5c0-0.5-0.104-0.869-0.313-1.109c-0.208-0.239-0.531-0.359-0.969-0.359H273.02z"/>
		<path fill="#FFFFFF" d="M280.301,170.601c0-1.447,0.378-2.544,1.133-3.289c0.755-0.744,1.862-1.117,3.32-1.117
			s2.565,0.373,3.32,1.117c0.755,0.745,1.133,1.842,1.133,3.289v15.203c0,1.448-0.378,2.547-1.133,3.297s-1.862,1.125-3.32,1.125
			s-2.565-0.375-3.32-1.125s-1.133-1.849-1.133-3.297V170.601z M283.754,170.32v15.609c0,0.521,0.078,0.886,0.234,1.094
			c0.156,0.209,0.411,0.313,0.766,0.313s0.612-0.106,0.773-0.32c0.161-0.213,0.242-0.575,0.242-1.086V170.32
			c0-0.5-0.078-0.854-0.234-1.063c-0.156-0.208-0.417-0.313-0.781-0.313c-0.354,0-0.609,0.102-0.766,0.305
			S283.754,169.81,283.754,170.32z"/>
		<path fill="#FFFFFF" d="M291.77,189.71c-0.031-1.052-0.097-2.283-0.195-3.695c-0.099-1.411-0.237-3.133-0.414-5.164l-1.344-14.188
			h3.391l0.641,8.172c0.073,1.115,0.144,2.412,0.211,3.891c0.067,1.479,0.128,3.125,0.18,4.938h0.203
			c0.083-2.291,0.156-4.172,0.219-5.641s0.109-2.338,0.141-2.609l0.828-8.75h3.719l0.703,9.25c0.042,0.511,0.081,1.472,0.117,2.883
			c0.036,1.412,0.065,3.034,0.086,4.867h0.203c0.083-2.364,0.161-4.211,0.234-5.539s0.156-2.424,0.25-3.289l0.844-8.172h2.719
			l-2.25,23.047h-3.766l-1.031-13.859c-0.031-0.521-0.055-1.023-0.07-1.508s-0.023-0.961-0.023-1.43v-0.938h-0.156
			c-0.104,1.834-0.273,4.308-0.508,7.422c-0.234,3.115-0.513,6.553-0.836,10.313H291.77z"/>
	</g>
</g>
<g>
	<g>
		<path fill="#FFFFFF" d="M183.938,283.377H180.5v-20.063h-2.969v-2.984h9.375v2.984h-2.969V283.377z"/>
		<path fill="#FFFFFF" d="M187.641,264.268c0-1.447,0.378-2.544,1.133-3.289c0.755-0.744,1.862-1.117,3.32-1.117
			s2.565,0.373,3.32,1.117c0.755,0.745,1.133,1.842,1.133,3.289v15.203c0,1.448-0.378,2.547-1.133,3.297s-1.862,1.125-3.32,1.125
			s-2.565-0.375-3.32-1.125s-1.133-1.849-1.133-3.297V264.268z M191.094,263.987v15.609c0,0.521,0.078,0.886,0.234,1.094
			c0.156,0.209,0.411,0.313,0.766,0.313s0.612-0.106,0.773-0.32c0.161-0.213,0.242-0.575,0.242-1.086v-15.609
			c0-0.5-0.078-0.854-0.234-1.063c-0.156-0.208-0.417-0.313-0.781-0.313c-0.354,0-0.609,0.102-0.766,0.305
			S191.094,263.477,191.094,263.987z"/>
		<path fill="#FFFFFF" d="M198.266,283.377v-23.047h4.063c1.688,0,2.917,0.331,3.688,0.992c0.771,0.662,1.156,1.722,1.156,3.18
			v5.656c0,1.479-0.383,2.555-1.148,3.227s-1.997,1.008-3.695,1.008h-0.641v8.984H198.266z M203.719,270.159v-5.656
			c0-0.51-0.106-0.891-0.32-1.141s-0.534-0.375-0.961-0.375h-0.75v8.672h0.75c0.427,0,0.747-0.122,0.961-0.367
			C203.612,271.047,203.719,270.669,203.719,270.159z"/>
		<path fill="#FFFFFF" d="M213.563,283.377v-23.047h3.422v19.875h4.172v3.172H213.563z"/>
		<path fill="#FFFFFF" d="M221.781,283.377v-23.047h7.594v3.141h-4.172v5.797h4.078v3.031h-4.078v7.906h4.172v3.172H221.781z"/>
		<path fill="#FFFFFF" d="M230.516,283.377v-23.047h7.594v3.141h-4.172v5.797h4.078v3.031h-4.078v11.078H230.516z"/>
		<path fill="#FFFFFF" d="M244.359,283.377h-3.438v-20.063h-2.969v-2.984h9.375v2.984h-2.969V283.377z"/>
		<path fill="#FFFFFF" d="M253.406,283.377v-23.047H261v3.141h-4.172v5.797h4.078v3.031h-4.078v7.906H261v3.172H253.406z"/>
		<path fill="#FFFFFF" d="M262.141,283.377v-23.047h3.422v19.875h4.172v3.172H262.141z"/>
		<path fill="#FFFFFF" d="M270.359,260.331h4.063c1.708,0,2.942,0.331,3.703,0.992c0.761,0.662,1.141,1.742,1.141,3.242v3.031
			c0,0.948-0.286,1.722-0.859,2.32c-0.573,0.6-1.417,1.014-2.531,1.242v0.125c1.136,0.094,1.984,0.404,2.547,0.93
			c0.563,0.526,0.844,1.273,0.844,2.242v4.703c0,1.479-0.38,2.553-1.141,3.219c-0.761,0.667-1.995,1-3.703,1h-4.063V260.331z
			 M275.813,268.268v-3.766c0-0.51-0.106-0.891-0.32-1.141s-0.534-0.375-0.961-0.375h-0.75v6.797h0.75
			c0.427,0,0.747-0.125,0.961-0.375S275.813,268.779,275.813,268.268z M273.781,272.596v7.969h0.75c0.427,0,0.747-0.125,0.961-0.375
			s0.32-0.625,0.32-1.125v-5c0-0.5-0.104-0.869-0.313-1.109c-0.208-0.239-0.531-0.359-0.969-0.359H273.781z"/>
		<path fill="#FFFFFF" d="M281.063,264.268c0-1.447,0.378-2.544,1.133-3.289c0.755-0.744,1.862-1.117,3.32-1.117
			s2.565,0.373,3.32,1.117c0.755,0.745,1.133,1.842,1.133,3.289v15.203c0,1.448-0.378,2.547-1.133,3.297s-1.862,1.125-3.32,1.125
			s-2.565-0.375-3.32-1.125s-1.133-1.849-1.133-3.297V264.268z M284.516,263.987v15.609c0,0.521,0.078,0.886,0.234,1.094
			c0.156,0.209,0.411,0.313,0.766,0.313s0.612-0.106,0.773-0.32c0.161-0.213,0.242-0.575,0.242-1.086v-15.609
			c0-0.5-0.078-0.854-0.234-1.063c-0.156-0.208-0.417-0.313-0.781-0.313c-0.354,0-0.609,0.102-0.766,0.305
			S284.516,263.477,284.516,263.987z"/>
		<path fill="#FFFFFF" d="M292.531,283.377c-0.031-1.052-0.097-2.283-0.195-3.695c-0.099-1.411-0.237-3.133-0.414-5.164
			l-1.344-14.188h3.391l0.641,8.172c0.073,1.115,0.144,2.412,0.211,3.891c0.067,1.479,0.128,3.125,0.18,4.938h0.203
			c0.083-2.291,0.156-4.172,0.219-5.641s0.109-2.338,0.141-2.609l0.828-8.75h3.719l0.703,9.25c0.042,0.511,0.081,1.472,0.117,2.883
			c0.036,1.412,0.065,3.034,0.086,4.867h0.203c0.083-2.364,0.161-4.211,0.234-5.539s0.156-2.424,0.25-3.289l0.844-8.172h2.719
			l-2.25,23.047h-3.766l-1.031-13.859c-0.031-0.521-0.055-1.023-0.07-1.508s-0.023-0.961-0.023-1.43v-0.938h-0.156
			c-0.104,1.834-0.273,4.308-0.508,7.422c-0.234,3.115-0.513,6.553-0.836,10.313H292.531z"/>
	</g>
</g>
<g>
	<g>
		<path fill="#FFFFFF" d="M89.906,775.002v-23.047h5.219l1.281,9.453c0.229,1.698,0.442,3.443,0.641,5.234
			c0.198,1.792,0.38,3.62,0.547,5.484l0.188-0.016c-0.042-1.875-0.073-3.539-0.094-4.992s-0.031-2.43-0.031-2.93l-0.094-12.234
			h2.844v23.047h-5.094l-1.656-12.734c-0.281-2.188-0.487-3.81-0.617-4.867c-0.13-1.057-0.231-1.95-0.305-2.68H92.5
			c0.031,1.688,0.055,3.008,0.07,3.961s0.023,1.561,0.023,1.82l0.109,14.5H89.906z"/>
		<path fill="#FFFFFF" d="M102.094,771.096v-19.141h3.453v19.266c0,0.521,0.078,0.886,0.234,1.094
			c0.156,0.209,0.411,0.313,0.766,0.313s0.612-0.106,0.773-0.32c0.161-0.213,0.242-0.575,0.242-1.086v-19.266H111v19.141
			c0,1.448-0.378,2.547-1.133,3.297s-1.862,1.125-3.32,1.125s-2.565-0.375-3.32-1.125S102.094,772.544,102.094,771.096z"/>
		<path fill="#FFFFFF" d="M112.719,775.002v-23.047h5.188l1,8.672v0.141c0,0.073,0.016,0.35,0.047,0.828
			c0.156,2.417,0.266,4.859,0.328,7.328h0.188c0.042-1.416,0.104-2.791,0.188-4.125c0.083-1.333,0.192-2.646,0.328-3.938
			l0.938-8.906h5.016v23.047h-3.141l0.078-12v-0.313c0-0.479,0.013-1.359,0.039-2.641s0.06-2.708,0.102-4.281h-0.172
			c-0.063,1.188-0.136,2.303-0.219,3.344c-0.083,1.042-0.161,1.901-0.234,2.578l-1.531,13.313h-3.266
			c-0.552-4.708-0.974-8.557-1.266-11.547c-0.292-2.989-0.5-5.552-0.625-7.688h-0.188c0.011,0.761,0.036,1.761,0.078,3
			c0.052,1.99,0.078,3.115,0.078,3.375v12.859H112.719z"/>
		<path fill="#FFFFFF" d="M127.688,775.002v-23.047h7.594v3.141h-4.172v5.797h4.078v3.031h-4.078v7.906h4.172v3.172H127.688z"/>
		<path fill="#FFFFFF" d="M136.422,751.955h4.063c1.708,0,2.942,0.331,3.703,0.992c0.761,0.662,1.141,1.742,1.141,3.242v2.688
			c0,1.188-0.263,2.086-0.789,2.695s-1.394,1.014-2.602,1.211v0.125c1.136,0.021,1.984,0.295,2.547,0.82
			c0.563,0.526,0.844,1.311,0.844,2.352v4.703c0,1.031,0.05,1.889,0.148,2.57c0.099,0.683,0.253,1.232,0.461,1.648h-3.625
			c-0.156-0.364-0.269-0.805-0.336-1.32s-0.102-1.164-0.102-1.945v-1.016v-5.031c0-0.489-0.153-0.852-0.461-1.086
			s-0.784-0.352-1.43-0.352h-0.141v10.75h-3.422V751.955z M141.875,759.893v-3.766c0-0.51-0.106-0.891-0.32-1.141
			s-0.534-0.375-0.961-0.375h-0.75v6.797h0.75c0.427,0,0.747-0.125,0.961-0.375S141.875,760.403,141.875,759.893z"/>
		<path fill="#FFFFFF" d="M150.188,775.002h-3.422v-23.047h3.422V775.002z"/>
		<path fill="#FFFFFF" d="M157.266,755.611c0-0.51-0.075-0.867-0.227-1.07s-0.403-0.305-0.758-0.305s-0.609,0.102-0.766,0.305
			s-0.234,0.561-0.234,1.07v15.609c0,0.521,0.078,0.886,0.234,1.094c0.156,0.209,0.411,0.313,0.766,0.313s0.606-0.104,0.758-0.313
			c0.151-0.208,0.227-0.572,0.227-1.094v-5.172h3.453v5.047c0,1.448-0.375,2.547-1.125,3.297s-1.854,1.125-3.313,1.125
			c-1.469,0-2.578-0.375-3.328-1.125s-1.125-1.849-1.125-3.297v-15.203c0-1.447,0.375-2.544,1.125-3.289
			c0.75-0.744,1.859-1.117,3.328-1.117c1.458,0,2.563,0.373,3.313,1.117c0.75,0.745,1.125,1.842,1.125,3.289v4.578h-3.453V755.611z"
			/>
		<path fill="#FFFFFF" d="M172.5,755.611c0-0.51-0.075-0.867-0.227-1.07s-0.403-0.305-0.758-0.305s-0.609,0.102-0.766,0.305
			s-0.234,0.561-0.234,1.07v15.609c0,0.521,0.078,0.886,0.234,1.094c0.156,0.209,0.411,0.313,0.766,0.313s0.606-0.104,0.758-0.313
			c0.151-0.208,0.227-0.572,0.227-1.094v-5.172h3.453v5.047c0,1.448-0.375,2.547-1.125,3.297s-1.854,1.125-3.313,1.125
			c-1.469,0-2.578-0.375-3.328-1.125s-1.125-1.849-1.125-3.297v-15.203c0-1.447,0.375-2.544,1.125-3.289
			c0.75-0.744,1.859-1.117,3.328-1.117c1.458,0,2.563,0.373,3.313,1.117c0.75,0.745,1.125,1.842,1.125,3.289v4.578H172.5V755.611z"
			/>
		<path fill="#FFFFFF" d="M177.109,755.893c0-1.447,0.378-2.544,1.133-3.289c0.755-0.744,1.862-1.117,3.32-1.117
			s2.565,0.373,3.32,1.117c0.755,0.745,1.133,1.842,1.133,3.289v15.203c0,1.448-0.378,2.547-1.133,3.297s-1.862,1.125-3.32,1.125
			s-2.565-0.375-3.32-1.125s-1.133-1.849-1.133-3.297V755.893z M180.563,755.611v15.609c0,0.521,0.078,0.886,0.234,1.094
			c0.156,0.209,0.411,0.313,0.766,0.313s0.612-0.106,0.773-0.32c0.161-0.213,0.242-0.575,0.242-1.086v-15.609
			c0-0.5-0.078-0.854-0.234-1.063c-0.156-0.208-0.417-0.313-0.781-0.313c-0.354,0-0.609,0.102-0.766,0.305
			S180.563,755.102,180.563,755.611z"/>
		<path fill="#FFFFFF" d="M187.734,775.002v-23.047h5.188l1,8.672v0.141c0,0.073,0.016,0.35,0.047,0.828
			c0.156,2.417,0.266,4.859,0.328,7.328h0.188c0.042-1.416,0.104-2.791,0.188-4.125c0.083-1.333,0.192-2.646,0.328-3.938
			l0.938-8.906h5.016v23.047h-3.141l0.078-12v-0.313c0-0.479,0.013-1.359,0.039-2.641s0.06-2.708,0.102-4.281h-0.172
			c-0.063,1.188-0.136,2.303-0.219,3.344c-0.083,1.042-0.161,1.901-0.234,2.578l-1.531,13.313h-3.266
			c-0.552-4.708-0.974-8.557-1.266-11.547c-0.292-2.989-0.5-5.552-0.625-7.688h-0.188c0.011,0.761,0.036,1.761,0.078,3
			c0.052,1.99,0.078,3.115,0.078,3.375v12.859H187.734z"/>
		<path fill="#FFFFFF" d="M202.703,775.002v-23.047h4.063c1.688,0,2.917,0.331,3.688,0.992c0.771,0.662,1.156,1.722,1.156,3.18
			v5.656c0,1.479-0.383,2.555-1.148,3.227s-1.997,1.008-3.695,1.008h-0.641v8.984H202.703z M208.156,761.783v-5.656
			c0-0.51-0.106-0.891-0.32-1.141s-0.534-0.375-0.961-0.375h-0.75v8.672h0.75c0.427,0,0.747-0.122,0.961-0.367
			C208.05,762.672,208.156,762.294,208.156,761.783z"/>
		<path fill="#FFFFFF" d="M212.75,775.002v-23.047h3.422v19.875h4.172v3.172H212.75z"/>
		<path fill="#FFFFFF" d="M220.969,775.002v-23.047h7.594v3.141h-4.172v5.797h4.078v3.031h-4.078v7.906h4.172v3.172H220.969z"/>
		<path fill="#FFFFFF" d="M228.422,775.002l2.984-11.578l-2.75-11.469h3.641l0.703,3.359c0.011,0.031,0.021,0.073,0.031,0.125
			c0.375,1.667,0.63,3.516,0.766,5.547h0.141c0.125-1.229,0.269-2.313,0.43-3.25s0.347-1.797,0.555-2.578l0.859-3.203h3.203
			l-2.75,10.375l2.813,12.672h-3.609l-1.219-5.734c-0.104-0.51-0.198-1.114-0.281-1.813c-0.083-0.697-0.151-1.469-0.203-2.313
			h-0.156c-0.063,1.281-0.245,2.589-0.547,3.922c-0.011,0.042-0.021,0.078-0.031,0.109l-1.281,5.828H228.422z"/>
		<path fill="#FFFFFF" d="M244.844,751.955h4.063c1.708,0,2.942,0.331,3.703,0.992c0.761,0.662,1.141,1.742,1.141,3.242v3.031
			c0,0.948-0.286,1.722-0.859,2.32c-0.573,0.6-1.417,1.014-2.531,1.242v0.125c1.136,0.094,1.984,0.404,2.547,0.93
			c0.563,0.526,0.844,1.273,0.844,2.242v4.703c0,1.479-0.38,2.553-1.141,3.219c-0.761,0.667-1.995,1-3.703,1h-4.063V751.955z
			 M250.297,759.893v-3.766c0-0.51-0.106-0.891-0.32-1.141s-0.534-0.375-0.961-0.375h-0.75v6.797h0.75
			c0.427,0,0.747-0.125,0.961-0.375S250.297,760.403,250.297,759.893z M248.266,764.221v7.969h0.75c0.427,0,0.747-0.125,0.961-0.375
			s0.32-0.625,0.32-1.125v-5c0-0.5-0.104-0.869-0.313-1.109c-0.208-0.239-0.531-0.359-0.969-0.359H248.266z"/>
		<path fill="#FFFFFF" d="M254.953,771.096v-19.141h3.453v19.266c0,0.521,0.078,0.886,0.234,1.094
			c0.156,0.209,0.411,0.313,0.766,0.313s0.612-0.106,0.773-0.32c0.161-0.213,0.242-0.575,0.242-1.086v-19.266h3.438v19.141
			c0,1.448-0.378,2.547-1.133,3.297s-1.862,1.125-3.32,1.125s-2.565-0.375-3.32-1.125S254.953,772.544,254.953,771.096z"/>
		<path fill="#FFFFFF" d="M271.031,775.002h-3.438v-20.063h-2.969v-2.984H274v2.984h-2.969V775.002z"/>
		<path fill="#FFFFFF" d="M280.281,775.002h-3.438v-20.063h-2.969v-2.984h9.375v2.984h-2.969V775.002z"/>
		<path fill="#FFFFFF" d="M283.984,755.893c0-1.447,0.378-2.544,1.133-3.289c0.755-0.744,1.862-1.117,3.32-1.117
			s2.565,0.373,3.32,1.117c0.755,0.745,1.133,1.842,1.133,3.289v15.203c0,1.448-0.378,2.547-1.133,3.297s-1.862,1.125-3.32,1.125
			s-2.565-0.375-3.32-1.125s-1.133-1.849-1.133-3.297V755.893z M287.438,755.611v15.609c0,0.521,0.078,0.886,0.234,1.094
			c0.156,0.209,0.411,0.313,0.766,0.313s0.612-0.106,0.773-0.32c0.161-0.213,0.242-0.575,0.242-1.086v-15.609
			c0-0.5-0.078-0.854-0.234-1.063c-0.156-0.208-0.417-0.313-0.781-0.313c-0.354,0-0.609,0.102-0.766,0.305
			S287.438,755.102,287.438,755.611z"/>
		<path fill="#FFFFFF" d="M294.609,775.002v-23.047h5.219l1.281,9.453c0.229,1.698,0.442,3.443,0.641,5.234
			c0.198,1.792,0.38,3.62,0.547,5.484l0.188-0.016c-0.042-1.875-0.073-3.539-0.094-4.992s-0.031-2.43-0.031-2.93l-0.094-12.234
			h2.844v23.047h-5.094l-1.656-12.734c-0.281-2.188-0.487-3.81-0.617-4.867c-0.13-1.057-0.231-1.95-0.305-2.68h-0.234
			c0.031,1.688,0.055,3.008,0.07,3.961s0.023,1.561,0.023,1.82l0.109,14.5H294.609z"/>
	</g>
</g>
<g>
	<g>
		<path fill="#FFFFFF" d="M178.969,710v-23.047h5.219l1.281,9.453c0.229,1.698,0.442,3.443,0.641,5.234
			c0.198,1.792,0.38,3.62,0.547,5.484l0.188-0.016c-0.042-1.875-0.073-3.539-0.094-4.992s-0.031-2.43-0.031-2.93l-0.094-12.234
			h2.844V710h-5.094l-1.656-12.734c-0.281-2.188-0.487-3.81-0.617-4.867c-0.13-1.057-0.231-1.95-0.305-2.68h-0.234
			c0.031,1.688,0.055,3.008,0.07,3.961s0.023,1.561,0.023,1.82l0.109,14.5H178.969z"/>
		<path fill="#FFFFFF" d="M191.156,706.094v-19.141h3.453v19.266c0,0.521,0.078,0.886,0.234,1.094
			c0.156,0.209,0.411,0.313,0.766,0.313s0.612-0.106,0.773-0.32c0.161-0.213,0.242-0.575,0.242-1.086v-19.266h3.438v19.141
			c0,1.448-0.378,2.547-1.133,3.297s-1.862,1.125-3.32,1.125s-2.565-0.375-3.32-1.125S191.156,707.542,191.156,706.094z"/>
		<path fill="#FFFFFF" d="M201.781,710v-23.047h5.188l1,8.672v0.141c0,0.073,0.016,0.35,0.047,0.828
			c0.156,2.417,0.266,4.859,0.328,7.328h0.188c0.042-1.416,0.104-2.791,0.188-4.125c0.083-1.333,0.192-2.646,0.328-3.938
			l0.938-8.906H215V710h-3.141l0.078-12v-0.313c0-0.479,0.013-1.359,0.039-2.641s0.06-2.708,0.102-4.281h-0.172
			c-0.063,1.188-0.136,2.303-0.219,3.344c-0.083,1.042-0.161,1.901-0.234,2.578L209.922,710h-3.266
			c-0.552-4.708-0.974-8.557-1.266-11.547c-0.292-2.989-0.5-5.552-0.625-7.688h-0.188c0.011,0.761,0.036,1.761,0.078,3
			c0.052,1.99,0.078,3.115,0.078,3.375V710H201.781z"/>
		<path fill="#FFFFFF" d="M216.75,710v-23.047h7.594v3.141h-4.172v5.797h4.078v3.031h-4.078v7.906h4.172V710H216.75z"/>
		<path fill="#FFFFFF" d="M225.484,686.953h4.063c1.708,0,2.942,0.331,3.703,0.992c0.761,0.662,1.141,1.742,1.141,3.242v2.688
			c0,1.188-0.263,2.086-0.789,2.695s-1.394,1.014-2.602,1.211v0.125c1.136,0.021,1.984,0.295,2.547,0.82
			c0.563,0.526,0.844,1.311,0.844,2.352v4.703c0,1.031,0.05,1.889,0.148,2.57c0.099,0.683,0.253,1.232,0.461,1.648h-3.625
			c-0.156-0.364-0.269-0.805-0.336-1.32s-0.102-1.164-0.102-1.945v-1.016v-5.031c0-0.489-0.153-0.852-0.461-1.086
			s-0.784-0.352-1.43-0.352h-0.141V710h-3.422V686.953z M230.938,694.891v-3.766c0-0.51-0.106-0.891-0.32-1.141
			s-0.534-0.375-0.961-0.375h-0.75v6.797h0.75c0.427,0,0.747-0.125,0.961-0.375S230.938,695.401,230.938,694.891z"/>
		<path fill="#FFFFFF" d="M239.25,710h-3.422v-23.047h3.422V710z"/>
		<path fill="#FFFFFF" d="M246.328,690.609c0-0.51-0.075-0.867-0.227-1.07s-0.403-0.305-0.758-0.305s-0.609,0.102-0.766,0.305
			s-0.234,0.561-0.234,1.07v15.609c0,0.521,0.078,0.886,0.234,1.094c0.156,0.209,0.411,0.313,0.766,0.313s0.606-0.104,0.758-0.313
			c0.151-0.208,0.227-0.572,0.227-1.094v-5.172h3.453v5.047c0,1.448-0.375,2.547-1.125,3.297s-1.854,1.125-3.313,1.125
			c-1.469,0-2.578-0.375-3.328-1.125s-1.125-1.849-1.125-3.297v-15.203c0-1.447,0.375-2.544,1.125-3.289
			c0.75-0.744,1.859-1.117,3.328-1.117c1.458,0,2.563,0.373,3.313,1.117c0.75,0.745,1.125,1.842,1.125,3.289v4.578h-3.453V690.609z"
			/>
		<path fill="#FFFFFF" d="M256.281,686.953h4.063c1.708,0,2.942,0.331,3.703,0.992c0.761,0.662,1.141,1.742,1.141,3.242v3.031
			c0,0.948-0.286,1.722-0.859,2.32c-0.573,0.6-1.417,1.014-2.531,1.242v0.125c1.136,0.094,1.984,0.404,2.547,0.93
			c0.563,0.526,0.844,1.273,0.844,2.242v4.703c0,1.479-0.38,2.553-1.141,3.219c-0.761,0.667-1.995,1-3.703,1h-4.063V686.953z
			 M261.734,694.891v-3.766c0-0.51-0.106-0.891-0.32-1.141s-0.534-0.375-0.961-0.375h-0.75v6.797h0.75
			c0.427,0,0.747-0.125,0.961-0.375S261.734,695.401,261.734,694.891z M259.703,699.219v7.969h0.75c0.427,0,0.747-0.125,0.961-0.375
			s0.32-0.625,0.32-1.125v-5c0-0.5-0.104-0.869-0.313-1.109c-0.208-0.239-0.531-0.359-0.969-0.359H259.703z"/>
		<path fill="#FFFFFF" d="M266.484,710v-23.047h3.422v19.875h4.172V710H266.484z"/>
		<path fill="#FFFFFF" d="M275.203,690.891c0-1.447,0.378-2.544,1.133-3.289c0.755-0.744,1.862-1.117,3.32-1.117
			s2.565,0.373,3.32,1.117c0.755,0.745,1.133,1.842,1.133,3.289v15.203c0,1.448-0.378,2.547-1.133,3.297s-1.862,1.125-3.32,1.125
			s-2.565-0.375-3.32-1.125s-1.133-1.849-1.133-3.297V690.891z M278.656,690.609v15.609c0,0.521,0.078,0.886,0.234,1.094
			c0.156,0.209,0.411,0.313,0.766,0.313s0.612-0.106,0.773-0.32c0.161-0.213,0.242-0.575,0.242-1.086v-15.609
			c0-0.5-0.078-0.854-0.234-1.063c-0.156-0.208-0.417-0.313-0.781-0.313c-0.354,0-0.609,0.102-0.766,0.305
			S278.656,690.1,278.656,690.609z"/>
		<path fill="#FFFFFF" d="M291.109,690.609c0-0.51-0.075-0.867-0.227-1.07s-0.403-0.305-0.758-0.305s-0.609,0.102-0.766,0.305
			s-0.234,0.561-0.234,1.07v15.609c0,0.521,0.078,0.886,0.234,1.094c0.156,0.209,0.411,0.313,0.766,0.313s0.606-0.104,0.758-0.313
			c0.151-0.208,0.227-0.572,0.227-1.094v-5.172h3.453v5.047c0,1.448-0.375,2.547-1.125,3.297s-1.854,1.125-3.313,1.125
			c-1.469,0-2.578-0.375-3.328-1.125s-1.125-1.849-1.125-3.297v-15.203c0-1.447,0.375-2.544,1.125-3.289
			c0.75-0.744,1.859-1.117,3.328-1.117c1.458,0,2.563,0.373,3.313,1.117c0.75,0.745,1.125,1.842,1.125,3.289v4.578h-3.453V690.609z"
			/>
		<path fill="#FFFFFF" d="M295.813,710v-23.047h3.422v10.219h0.141l2.656-10.219h3.328l-2.828,10.531L305.359,710h-3.625
			l-2.359-11.609h-0.141V710H295.813z"/>
	</g>
</g>
<rect x="1405.833" y="221" fill="#2F87C8" width="144.333" height="2"/>
<g>
	<g>
		<path fill="#FFFFFF" d="M1555.057,133.96v-23.047h4.063c1.688,0,2.917,0.331,3.688,0.992c0.771,0.662,1.156,1.722,1.156,3.18
			v5.656c0,1.479-0.383,2.555-1.148,3.227s-1.997,1.008-3.695,1.008h-0.641v8.984H1555.057z M1560.51,120.742v-5.656
			c0-0.51-0.106-0.891-0.32-1.141s-0.534-0.375-0.961-0.375h-0.75v8.672h0.75c0.427,0,0.747-0.122,0.961-0.367
			C1560.403,121.63,1560.51,121.252,1560.51,120.742z"/>
		<path fill="#FFFFFF" d="M1568.525,133.96h-3.422v-23.047h3.422V133.96z"/>
		<path fill="#FFFFFF" d="M1570.322,133.96v-23.047h3.422v19.875h4.172v3.172H1570.322z"/>
		<path fill="#FFFFFF" d="M1578.541,133.96v-23.047h3.422v19.875h4.172v3.172H1578.541z"/>
		<path fill="#FFFFFF" d="M1592.01,110.914h4.063c1.708,0,2.942,0.331,3.703,0.992c0.761,0.662,1.141,1.742,1.141,3.242v3.031
			c0,0.948-0.286,1.722-0.859,2.32c-0.573,0.6-1.417,1.014-2.531,1.242v0.125c1.136,0.094,1.984,0.404,2.547,0.93
			c0.563,0.526,0.844,1.273,0.844,2.242v4.703c0,1.479-0.38,2.553-1.141,3.219c-0.761,0.667-1.995,1-3.703,1h-4.063V110.914z
			 M1597.463,118.851v-3.766c0-0.51-0.106-0.891-0.32-1.141s-0.534-0.375-0.961-0.375h-0.75v6.797h0.75
			c0.427,0,0.747-0.125,0.961-0.375S1597.463,119.362,1597.463,118.851z M1595.432,123.179v7.969h0.75
			c0.427,0,0.747-0.125,0.961-0.375s0.32-0.625,0.32-1.125v-5c0-0.5-0.104-0.869-0.313-1.109c-0.208-0.239-0.531-0.359-0.969-0.359
			H1595.432z"/>
		<path fill="#FFFFFF" d="M1602.119,130.054v-19.141h3.453v19.266c0,0.521,0.078,0.886,0.234,1.094
			c0.156,0.209,0.411,0.313,0.766,0.313s0.612-0.106,0.773-0.32c0.161-0.213,0.242-0.575,0.242-1.086v-19.266h3.438v19.141
			c0,1.448-0.378,2.547-1.133,3.297s-1.862,1.125-3.32,1.125s-2.565-0.375-3.32-1.125S1602.119,131.502,1602.119,130.054z"/>
		<path fill="#FFFFFF" d="M1618.197,133.96h-3.438v-20.063h-2.969v-2.984h9.375v2.984h-2.969V133.96z"/>
		<path fill="#FFFFFF" d="M1627.447,133.96h-3.438v-20.063h-2.969v-2.984h9.375v2.984h-2.969V133.96z"/>
		<path fill="#FFFFFF" d="M1631.15,114.851c0-1.447,0.378-2.544,1.133-3.289c0.755-0.744,1.862-1.117,3.32-1.117
			s2.565,0.373,3.32,1.117c0.755,0.745,1.133,1.842,1.133,3.289v15.203c0,1.448-0.378,2.547-1.133,3.297s-1.862,1.125-3.32,1.125
			s-2.565-0.375-3.32-1.125s-1.133-1.849-1.133-3.297V114.851z M1634.604,114.57v15.609c0,0.521,0.078,0.886,0.234,1.094
			c0.156,0.209,0.411,0.313,0.766,0.313s0.612-0.106,0.773-0.32c0.161-0.213,0.242-0.575,0.242-1.086V114.57
			c0-0.5-0.078-0.854-0.234-1.063c-0.156-0.208-0.417-0.313-0.781-0.313c-0.354,0-0.609,0.102-0.766,0.305
			S1634.604,114.06,1634.604,114.57z"/>
		<path fill="#FFFFFF" d="M1641.775,133.96v-23.047h5.219l1.281,9.453c0.229,1.698,0.442,3.443,0.641,5.234
			c0.198,1.792,0.38,3.62,0.547,5.484l0.188-0.016c-0.042-1.875-0.073-3.539-0.094-4.992s-0.031-2.43-0.031-2.93l-0.094-12.234
			h2.844v23.047h-5.094l-1.656-12.734c-0.281-2.188-0.487-3.81-0.617-4.867c-0.13-1.057-0.231-1.95-0.305-2.68h-0.234
			c0.031,1.688,0.055,3.008,0.07,3.961s0.023,1.561,0.023,1.82l0.109,14.5H1641.775z"/>
		<path fill="#FFFFFF" d="M1653.65,114.851c0-1.447,0.372-2.544,1.117-3.289c0.745-0.744,1.841-1.117,3.289-1.117
			c1.469,0,2.578,0.373,3.328,1.117c0.75,0.745,1.125,1.842,1.125,3.289v4.578h-3.422v-4.859c0-0.5-0.081-0.854-0.242-1.063
			c-0.161-0.208-0.425-0.313-0.789-0.313c-0.354,0-0.606,0.102-0.758,0.305s-0.227,0.561-0.227,1.07v1.656
			c0,0.573,0.036,1.031,0.109,1.375s0.188,0.625,0.344,0.844l3.734,5.109c0.469,0.646,0.794,1.229,0.977,1.75
			c0.183,0.521,0.273,1.094,0.273,1.719v3.031c0,1.448-0.375,2.547-1.125,3.297s-1.859,1.125-3.328,1.125
			c-1.448,0-2.544-0.373-3.289-1.117s-1.117-1.846-1.117-3.305v-5.047h3.422v5.172c0,0.521,0.075,0.886,0.227,1.094
			c0.151,0.209,0.403,0.313,0.758,0.313c0.364,0,0.628-0.106,0.789-0.32c0.161-0.213,0.242-0.575,0.242-1.086v-2.391
			c0-0.313-0.047-0.614-0.141-0.906c-0.094-0.291-0.239-0.578-0.438-0.859l-3.906-5.438c-0.333-0.469-0.575-0.953-0.727-1.453
			s-0.227-1.094-0.227-1.781V114.851z"/>
	</g>
</g>
<rect x="1407" y="123" fill="#2F87C8" width="143.166" height="2"/>
<g>
	<g>
		<path fill="#FFFFFF" d="M1555.057,37.959V14.912h3.422v8.781h1.953v-8.781h3.438v23.047h-3.438V26.881h-1.953v11.078H1555.057z"/>
		<path fill="#FFFFFF" d="M1565.65,37.959V14.912h7.594v3.141h-4.172v5.797h4.078v3.031h-4.078v7.906h4.172v3.172H1565.65z"/>
		<path fill="#FFFFFF" d="M1573.494,37.959l2.75-23.047h5.219l2.5,23.047h-3.5l-0.703-6.203h-2.141l-0.734,6.203H1573.494z
			 M1577.916,28.771h1.594l-0.359-5.734c-0.021-0.5-0.055-1.083-0.102-1.75c-0.047-0.666-0.128-1.635-0.242-2.906h-0.156
			c-0.031,0.334-0.089,1.162-0.172,2.484c-0.063,0.917-0.114,1.656-0.156,2.219L1577.916,28.771z"/>
		<path fill="#FFFFFF" d="M1584.885,14.912h4.063c1.708,0,2.942,0.334,3.703,1c0.761,0.667,1.141,1.745,1.141,3.234V33.74
			c0,1.479-0.38,2.553-1.141,3.219c-0.761,0.667-1.995,1-3.703,1h-4.063V14.912z M1588.307,17.568v17.578h0.75
			c0.427,0,0.747-0.125,0.961-0.375s0.32-0.625,0.32-1.125V19.084c0-0.51-0.106-0.891-0.32-1.141s-0.534-0.375-0.961-0.375H1588.307
			z"/>
		<path fill="#FFFFFF" d="M1595.416,37.959V14.912h7.594v3.141h-4.172v5.797h4.078v3.031h-4.078v7.906h4.172v3.172H1595.416z"/>
		<path fill="#FFFFFF" d="M1604.15,14.912h4.063c1.708,0,2.942,0.331,3.703,0.992c0.761,0.662,1.141,1.742,1.141,3.242v2.688
			c0,1.188-0.263,2.086-0.789,2.695s-1.394,1.014-2.602,1.211v0.125c1.136,0.021,1.984,0.295,2.547,0.82
			c0.563,0.526,0.844,1.311,0.844,2.352v4.703c0,1.031,0.05,1.889,0.148,2.57c0.099,0.683,0.253,1.232,0.461,1.648h-3.625
			c-0.156-0.364-0.269-0.805-0.336-1.32s-0.102-1.164-0.102-1.945v-1.016v-5.031c0-0.489-0.153-0.852-0.461-1.086
			s-0.784-0.352-1.43-0.352h-0.141v10.75h-3.422V14.912z M1609.604,22.85v-3.766c0-0.51-0.106-0.891-0.32-1.141
			s-0.534-0.375-0.961-0.375h-0.75v6.797h0.75c0.427,0,0.747-0.125,0.961-0.375S1609.604,23.36,1609.604,22.85z"/>
		<path fill="#FFFFFF" d="M1625.197,37.959h-3.438V17.896h-2.969v-2.984h9.375v2.984h-2.969V37.959z"/>
		<path fill="#FFFFFF" d="M1632.416,37.959h-3.422V14.912h3.422V37.959z"/>
		<path fill="#FFFFFF" d="M1639.666,37.959h-3.438V17.896h-2.969v-2.984h9.375v2.984h-2.969V37.959z"/>
		<path fill="#FFFFFF" d="M1643.463,37.959V14.912h3.422v19.875h4.172v3.172H1643.463z"/>
		<path fill="#FFFFFF" d="M1651.682,37.959V14.912h7.594v3.141h-4.172v5.797h4.078v3.031h-4.078v7.906h4.172v3.172H1651.682z"/>
	</g>
</g>
<rect x="1241.334" y="307" fill="#2F87C8" width="308.666" height="2"/>
<rect x="1241.334" y="307" fill="#2F87C8" width="2" height="146.334"/>
<rect x="1291" y="687" fill="#2F87C8" width="2" height="21.75"/>
<rect x="1162" y="663.5" fill="#2F87C8" width="388" height="2"/>
<rect x="1191.5" y="665.5" fill="#2F87C8" width="2" height="36.25"/>
<rect x="1160" y="663.5" fill="#2F87C8" width="2" height="42.875"/>
<rect x="1134.5" y="632" fill="#2F87C8" width="415.5" height="2"/>
<rect x="1134.5" y="634" fill="#2F87C8" width="2" height="66.875"/>
<circle fill="#2F87C8" cx="1242.334" cy="452.125" r="6.458"/>
<circle fill="#2F87C8" cx="1406.458" cy="747" r="6.458"/>
<circle fill="#2F87C8" cx="1010" cy="747" r="6.458"/>
<circle fill="#2F87C8" cx="1135.5" cy="703.542" r="6.458"/>
<circle fill="#2F87C8" cx="1161.042" cy="703.542" r="6.458"/>
<circle fill="#2F87C8" cx="1192" cy="703.542" r="6.458"/>
<circle fill="#2F87C8" cx="1292" cy="703.542" r="6.458"/>
<circle fill="#2F87C8" cx="726.417" cy="746.708" r="6.458"/>
<circle fill="#2F87C8" cx="535" cy="273.097" r="6.459"/>
<circle fill="#2F87C8" cx="535" cy="180" r="6.459"/>
<circle fill="#2F87C8" cx="535" cy="77.5" r="6.459"/>
<circle fill="#2F87C8" cx="1406.458" cy="222" r="6.458"/>
<circle fill="#2F87C8" cx="1406.458" cy="124" r="6.458"/>
<circle fill="#2F87C8" cx="1406.458" cy="452.334" r="6.458"/>
<circle fill="#2F87C8" cx="1406.375" cy="567.334" r="6.458"/>
<circle fill="#2F87C8" cx="1406.667" cy="27.626" r="6.458"/>
<rect x="1031" y="745" fill="#2F87C8" width="2" height="74"/>
<rect x="1010" y="745" fill="#2F87C8" width="23" height="2"/>
<rect x="389" y="794.75" fill="#2F87C8" width="338.75" height="2"/>
<rect x="725.75" y="750.25" fill="#2F87C8" width="2" height="44.5"/>
<rect x="345.667" y="817" fill="#2F87C8" width="686.333" height="2"/>
<rect x="345.667" y="762.667" fill="#2F87C8" width="2" height="55.874"/>
<rect x="310.126" y="697" fill="#2F87C8" width="79.874" height="2"/>
<rect x="310" y="762.667" fill="#2F87C8" width="36.416" height="2"/>
<rect x="310" y="272.097" fill="#2F87C8" width="225" height="2"/>
<rect x="310" y="179" fill="#2F87C8" width="218.541" height="2"/>
<rect x="309.938" y="76.5" fill="#2F87C8" width="218.563" height="2"/>
<rect x="388" y="697" fill="#2F87C8" width="2" height="99.75"/>
</svg>
