<?xml version="1.0" encoding="utf-8"?>
<!-- Generator: Adobe Illustrator 15.0.0, SVG Export Plug-In . SVG Version: 6.00 Build 0)  -->
<!DOCTYPE svg PUBLIC "-//W3C//DTD SVG 1.1//EN" "http://www.w3.org/Graphics/SVG/1.1/DTD/svg11.dtd">
<svg version="1.1" id="Layer_1" xmlns="http://www.w3.org/2000/svg" xmlns:xlink="http://www.w3.org/1999/xlink" x="0px" y="0px"
	 width="1860px" height="840px" viewBox="0 0 1860 840" enable-background="new 0 0 1860 840" xml:space="preserve">
<g>
	<path fill="#2F87C8" d="M768,227v26.001L644.781,253C627.436,253,613,267.654,613,285v98H467v-84c0-39.701,33.196-72,74-72H768
		 M770,225H541c-41.422,0-76,32.578-76,74v86h150V285c0-16.568,13.781-30,29.781-30L770,255.001V225L770,225z"/>
</g>
<g>
	<path fill="#2F87C8" d="M613,132v28c0,17.346,14.654,32,32,32h123v26H541c-19.499,0-38.009-7.771-52.119-21.881
		C474.771,182.009,467,163.499,467,144v-12H613 M615,130H465v14c0,41.422,34.578,76,76,76h229v-30H645c-16,0-30-13.432-30-30V130
		L615,130z"/>
</g>
<g>
	<path fill="#2F87C8" d="M923,192v26H812v-26H923 M925,190H810v30h115V190L925,190z"/>
</g>
<g>
	<path fill="#2F87C8" d="M1233,192v26H932v-26H1233 M1235,190H930v30h305V190L1235,190z"/>
</g>
<g>
	<path fill="#2F87C8" d="M1323,192v26h-81v-26H1323 M1325,190h-85v30h85V190L1325,190z"/>
</g>
<g>
	<path fill="#2F87C8" d="M1388,192v26h-56v-26H1388 M1390,190h-60v30h60V190L1390,190z"/>
</g>
<g>
	<path fill="#2F87C8" d="M923,227v11H812v-11H923 M925,225H810v15h115V225L925,225z"/>
</g>
<g>
	<path fill="#2F87C8" d="M1233,227v26H932v-26H1233 M1235,225H930v30h305V225L1235,225z"/>
</g>
<g>
	<path fill="#2F87C8" d="M1323,227v26h-81v-26H1323 M1325,225h-85v30h85V225L1325,225z"/>
</g>
<g>
	<path fill="#2F87C8" d="M1388,227v26h-56v-26H1388 M1390,225h-60v30h60V225L1390,225z"/>
</g>
<g>
	<path fill="#2F87C8" d="M803,192v26h-26v-26H803 M805,190h-30v30h30V190L805,190z"/>
</g>
<g>
	<path fill="#2F87C8" d="M803,227v26h-26v-26H803 M805,225h-30v30h30V225L805,225z"/>
</g>
<g>
	<path fill="#2F87C8" d="M613,392v121H467V392H613 M615,390H465v125h150V390L615,390z"/>
</g>
<g>
	<path fill="#2F87C8" d="M613,522v56H467v-56H613 M615,520H465v60h150V520L615,520z"/>
</g>
<g>
	<path fill="#2F87C8" d="M613,587v186H467V587H613 M615,585H465v190h150V585L615,585z"/>
</g>
<g>
	<g>
		<path fill="#2F87C8" d="M1371,328c10.01,0,17,6.991,17,17v27h-4v-11v-2h-2h-11v-13c0-5.551-3.448-9-9-9h-11v-9H1371 M1371,326h-22
			v13h13c4.418,0,7,2.582,7,7v15h13v13h8v-29C1390,333.954,1382.046,326,1371,326L1371,326z"/>
	</g>
	<g>
		<path fill="#2F87C8" d="M1388,535v25c0,10.477-7.626,19-17,19h-20v-9h11c5.634,0,9-5.593,9-11v-11h11h2v-2v-11H1388 M1390,533h-8
			v13h-13v13c0,4.418-2.582,9-7,9h-13v13h22c11.046,0,19-9.954,19-21V533L1390,533z"/>
	</g>
	<g>
		<path fill="#2F87C8" d="M1124,328v9h-9c-5.407,0-11,3.366-11,9v26h-4v-11v-2h-2h-11v-14c0-9.374,8.523-17,19-17H1124 M1126,326
			h-20c-11.046,0-21,7.954-21,19v16h13v13h8v-28c0-4.418,4.582-7,9-7h11V326L1126,326z"/>
	</g>
	<g>
		<path fill="#2F87C8" d="M1104,535v24c0,5.552,5.448,11,11,11h9v9h-18c-9.944,0-19-9.056-19-19v-12h11h2v-2v-11H1104 M1106,533h-8
			v13h-13v14c0,11.046,9.954,21,21,21h20v-13h-11c-4.418,0-9-4.582-9-9V533L1106,533z"/>
	</g>
	<g>
		<path fill="#2F87C8" d="M1091,433v41h-4v-41H1091 M1093,431h-8v45h8V431L1093,431z"/>
	</g>
	<g>
		<path fill="#2F87C8" d="M1091,366v60h-4v-60H1091 M1093,364h-8v64h8V364L1093,364z"/>
	</g>
	<g>
		<path fill="#2F87C8" d="M1091,481v60h-4v-60H1091 M1093,479h-8v64h8V479L1093,479z"/>
	</g>
	<g>
		<path fill="#2F87C8" d="M1104,438v31h-4v-31H1104 M1106,436h-8v35h8V436L1106,436z"/>
	</g>
	<g>
		<path fill="#2F87C8" d="M1104,379v52h-4v-52H1104 M1106,377h-8v56h8V377L1106,377z"/>
	</g>
	<g>
		<path fill="#2F87C8" d="M1104,476v52h-4v-52H1104 M1106,474h-8v56h8V474L1106,474z"/>
	</g>
	<g>
		<path fill="#2F87C8" d="M1388,438v31h-4v-31H1388 M1390,436h-8v35h8V436L1390,436z"/>
	</g>
	<g>
		<path fill="#2F87C8" d="M1388,379v52h-4v-52H1388 M1390,377h-8v56h8V377L1390,377z"/>
	</g>
	<g>
		<path fill="#2F87C8" d="M1388,476v52h-4v-52H1388 M1390,474h-8v56h8V474L1390,474z"/>
	</g>
	<g>
		<path fill="#2F87C8" d="M1375,433v41h-4v-41H1375 M1377,431h-8v45h8V431L1377,431z"/>
	</g>
	<g>
		<path fill="#2F87C8" d="M1375,366v60h-4v-60H1375 M1377,364h-8v64h8V364L1377,364z"/>
	</g>
	<g>
		<path fill="#2F87C8" d="M1375,481v60h-4v-60H1375 M1377,479h-8v64h8V479L1377,479z"/>
	</g>
</g>
<g>
	<path fill="#2F87C8" d="M1360,97c15.439,0,28,12.561,28,28s-12.561,28-28,28h-90c-15.439,0-28-12.561-28-28s12.561-28,28-28H1360
		 M1360,95h-90c-16.5,0-30,13.5-30,30s13.5,30,30,30h90c16.5,0,30-13.5,30-30S1376.5,95,1360,95L1360,95z"/>
</g>
<g>
	<path fill="#2F87C8" d="M1205,97c15.439,0,28,12.561,28,28s-12.561,28-28,28h-90c-15.439,0-28-12.561-28-28s12.561-28,28-28H1205
		 M1205,95h-90c-16.5,0-30,13.5-30,30s13.5,30,30,30h90c16.5,0,30-13.5,30-30S1221.5,95,1205,95L1205,95z"/>
</g>
<g>
	<path fill="#2F87C8" d="M922.999,717v56H777v-56H922.999 M924.999,715H775v60h149.999V715L924.999,715z"/>
</g>
<g>
	<path fill="#2F87C8" d="M923,652v56H777v-56H923 M925,650H775v60h150V650L925,650z"/>
</g>
<g>
	<path fill="#2F87C8" d="M922.999,587v56H777v-56H922.999 M924.999,585H775v60h149.999V585L924.999,585z"/>
</g>
<g>
	<path fill="#2F87C8" d="M923,522v56H777v-56H923 M925,520H775v60h150V520L925,520z"/>
</g>
<g>
	<path fill="#2F87C8" d="M923,457v56H777v-56H923 M925,455H775v60h150V455L925,455z"/>
</g>
<g>
	<path fill="#2F87C8" d="M922.999,392v56H777v-56H922.999 M924.999,390H775v60h149.999V390L924.999,390z"/>
</g>
<g>
	<path fill="#2F87C8" d="M923,327v56H777v-56H923 M925,325H775v60h150V325L925,325z"/>
</g>
<g>
	<path fill="#2F87C8" d="M1360,717c15.439,0,28,12.561,28,28s-12.561,28-28,28h-148v-56H1360 M1360,715h-150v60h150
		c16.568,0,30-13.432,30-30S1376.568,715,1360,715L1360,715z"/>
</g>
<g>
	<path fill="#2F87C8" d="M960,717c15.439,0,28,12.561,28,28s-12.561,28-28,28h-28v-56H960 M960,715h-30v60h30
		c16.568,0,30-13.432,30-30S976.568,715,960,715L960,715z"/>
</g>
<g>
	<path fill="#2F87C8" d="M960,652c15.439,0,28,12.561,28,28s-12.561,28-28,28h-28v-56H960 M960,650h-30v60h30
		c16.568,0,30-13.432,30-30S976.568,650,960,650L960,650z"/>
</g>
<g>
	<path fill="#2F87C8" d="M960,587c15.439,0,28,12.561,28,28s-12.561,28-28,28h-28v-56H960 M960,585h-30v60h30
		c16.568,0,30-13.432,30-30S976.568,585,960,585L960,585z"/>
</g>
<g>
	<path fill="#2F87C8" d="M960,522c15.439,0,28,12.561,28,28s-12.561,28-28,28h-28v-56H960 M960,520h-30v60h30
		c16.568,0,30-13.432,30-30S976.568,520,960,520L960,520z"/>
</g>
<g>
	<path fill="#2F87C8" d="M960,457c15.439,0,28,12.561,28,28s-12.561,28-28,28h-28v-56H960 M960,455h-30v60h30
		c16.568,0,30-13.432,30-30S976.568,455,960,455L960,455z"/>
</g>
<g>
	<path fill="#2F87C8" d="M960,392c15.439,0,28,12.561,28,28s-12.561,28-28,28h-28v-56H960 M960,390h-30v60h30
		c16.568,0,30-13.432,30-30S976.568,390,960,390L960,390z"/>
</g>
<g>
	<path fill="#2F87C8" d="M960,327c15.439,0,28,12.561,28,28s-12.561,28-28,28h-28v-56H960 M960,325h-30v60h30
		c16.568,0,30-13.432,30-30S976.568,325,960,325L960,325z"/>
</g>
<g>
	<path fill="#2F87C8" d="M1143,717v56h-28c-15.439,0-28-12.561-28-28s12.561-28,28-28H1143 M1145,715h-30c-16.568,0-30,13.432-30,30
		s13.432,30,30,30h30V715L1145,715z"/>
</g>
<g>
	<path fill="#2F87C8" d="M707,718v56h-21v-56H707 M709,716h-25v60h25V716L709,716z"/>
</g>
<g>
	<path fill="#2F87C8" d="M1202,717v56h-21v-56H1202 M1204,715h-25v60h25V715L1204,715z"/>
</g>
<g>
	<path fill="#2F87C8" d="M1172,717v56h-21v-56H1172 M1174,715h-25v60h25V715L1174,715z"/>
</g>
<g>
	<g>
		<path fill="#FFFFFF" d="M757.348,716.179c3.145,0,5.513,0.762,7.037,2.264c1.515,1.495,2.283,3.829,2.283,6.938v38.65
			c0,3.111-0.77,5.454-2.288,6.962c-1.523,1.513-3.89,2.279-7.032,2.279c-3.144,0-5.51-0.767-7.032-2.278
			c-1.519-1.509-2.289-3.852-2.289-6.963v-38.65c0-3.108,0.769-5.442,2.284-6.938C751.834,716.94,754.202,716.179,757.348,716.179
			 M757.348,769.924c1.937,0,3.005-0.874,3.56-1.605c0.688-0.907,1.022-2.206,1.022-3.97v-39.683c0-1.73-0.325-3.007-0.996-3.902
			c-0.547-0.727-1.611-1.594-3.586-1.594c-1.927,0-2.982,0.844-3.534,1.557c-0.688,0.897-1.009,2.148-1.009,3.939v39.683
			c0,1.81,0.316,3.074,0.998,3.984C754.349,769.059,755.407,769.924,757.348,769.924 M757.348,714.179
			c-3.708,0-6.521,0.947-8.441,2.84c-1.92,1.895-2.88,4.682-2.88,8.362v38.65c0,3.681,0.96,6.475,2.88,8.382
			c1.92,1.906,4.733,2.859,8.441,2.859c3.707,0,6.521-0.953,8.441-2.859c1.92-1.907,2.879-4.701,2.879-8.382v-38.65
			c0-3.681-0.959-6.468-2.879-8.362C763.868,715.126,761.055,714.179,757.348,714.179L757.348,714.179z M757.348,767.924
			c-0.9,0-1.549-0.265-1.947-0.794c-0.396-0.529-0.596-1.456-0.596-2.781v-39.683c0-1.298,0.199-2.205,0.596-2.722
			c0.398-0.516,1.047-0.774,1.947-0.774c0.926,0,1.589,0.266,1.986,0.795c0.396,0.529,0.596,1.43,0.596,2.701v39.683
			c0,1.298-0.205,2.219-0.616,2.761C758.902,767.652,758.248,767.924,757.348,767.924L757.348,767.924z"/>
	</g>
</g>
<g>
	<g>
		<path fill="#FFFFFF" d="M757.745,651.179c3.102,0,5.418,0.669,6.885,1.989c1.426,1.283,2.118,3.227,2.118,5.941v7.071
			c0,3.921-1.73,8.977-5.134,15.007c-0.599,1.035-1.028,1.813-1.313,2.378c-2.559,4.714-4.234,8.253-5.121,10.819
			c-0.912,2.636-1.403,5.131-1.461,7.416l-0.052,2.044l2.045,0.007l10.758,0.034v3.076h-18.757
			c-0.003-0.332-0.005-0.725-0.005-1.178c0-3.067,0.391-6.072,1.162-8.934c0.783-2.901,2.229-6.433,4.291-10.479
			c0.631-1.208,1.604-2.929,2.894-5.12c3.952-6.757,5.874-12.22,5.874-16.7v-4.966c0-1.664-0.347-2.889-1.059-3.742
			c-0.545-0.654-1.599-1.436-3.523-1.436c-1.39,0-2.558,0.553-3.379,1.598c-0.72,0.915-1.084,2.12-1.084,3.58v9.123h-4.778v-8.328
			c0-3.115,0.773-5.372,2.364-6.899C752.063,651.953,754.51,651.179,757.745,651.179 M757.745,649.179
			c-3.787,0-6.673,0.953-8.659,2.86c-1.986,1.906-2.979,4.688-2.979,8.342v10.328h8.778v-11.123c0-1.006,0.219-1.787,0.656-2.344
			c0.437-0.556,1.039-0.834,1.807-0.834c0.927,0,1.59,0.238,1.986,0.715c0.397,0.477,0.596,1.298,0.596,2.463v4.966
			c0,4.078-1.867,9.309-5.601,15.69c-1.325,2.251-2.304,3.986-2.939,5.204c-2.146,4.21-3.628,7.839-4.449,10.884
			c-0.821,3.046-1.231,6.196-1.231,9.454c0,0.848,0.006,1.489,0.02,1.927c0.014,0.437,0.047,0.854,0.1,1.251h22.643v-7.07
			l-12.752-0.04c0.053-2.092,0.504-4.362,1.352-6.813c0.847-2.449,2.516-5.965,5.004-10.547c0.266-0.529,0.689-1.297,1.271-2.304
			c3.602-6.382,5.402-11.718,5.402-16.008v-7.071c0-3.283-0.927-5.76-2.78-7.428C764.113,650.013,761.373,649.179,757.745,649.179
			L757.745,649.179z"/>
	</g>
</g>
<g>
	<g>
		<path fill="#FFFFFF" d="M737.146,652.37v3.19h-11.585h-2v2v17.716v4.276h-4.779V652.37H737.146 M732.154,674.099
			c1.742,0,2.938,0.41,3.554,1.218c0.337,0.442,1.12,1.988,1.12,6.793v16.922c0,3.11-0.771,5.453-2.29,6.963
			c-1.522,1.512-3.889,2.278-7.031,2.278c-3.188,0-5.522-0.729-6.938-2.165c-1.424-1.443-2.146-3.824-2.146-7.076v-9.56h4.541v9.877
			c0,1.812,0.316,3.077,0.995,3.98c0.545,0.728,1.603,1.595,3.547,1.595c1.921,0,2.997-0.86,3.563-1.584
			c0.712-0.913,1.059-2.219,1.059-3.991v-16.326c0-1.411-0.313-2.581-0.932-3.482c-0.758-1.093-1.927-1.695-3.293-1.695
			c-0.901,0-1.756,0.282-2.472,0.817c-0.325,0.244-0.626,0.539-0.906,0.891h-0.213l2.711-2.914c0.884-0.949,1.731-1.623,2.521-2.003
			C730.287,674.279,731.165,674.099,732.154,674.099 M739.146,650.37h-22.364v31.183h8.818c0.318-0.582,0.662-1.013,1.033-1.291
			c0.371-0.277,0.795-0.417,1.271-0.417c0.715,0,1.264,0.278,1.648,0.834c0.383,0.557,0.576,1.338,0.576,2.344v16.326
			c0,1.298-0.213,2.219-0.636,2.761c-0.425,0.543-1.087,0.814-1.986,0.814c-0.9,0-1.55-0.265-1.946-0.794
			c-0.397-0.529-0.596-1.456-0.596-2.781v-11.877h-8.541v11.56c0,3.813,0.907,6.641,2.721,8.48c1.814,1.841,4.602,2.761,8.362,2.761
			c3.707,0,6.521-0.953,8.44-2.859c1.92-1.907,2.881-4.701,2.881-8.382v-16.922c0-3.999-0.51-6.667-1.529-8.005
			c-1.02-1.337-2.734-2.006-5.145-2.006c-1.298,0-2.457,0.245-3.476,0.735c-1.021,0.49-2.06,1.305-3.118,2.442v-17.716h13.585
			V650.37L739.146,650.37z"/>
	</g>
</g>
<g>
	<g>
		<path fill="#FFFFFF" d="M766.668,587.37v5.109l-12.044,49.482h-5.267l12.51-48.905l0.639-2.496h-2.576h-13.215v-3.19H766.668
			 M768.668,585.37h-23.953v7.19h15.215l-13.148,51.401h9.414l12.473-51.242V585.37L768.668,585.37z"/>
	</g>
</g>
<g>
	<g>
		<path fill="#FFFFFF" d="M730.074,587.37v54.592h-4.818v-42.49v-2h-2h-4.316v-2.654c2.209-0.388,3.992-1.217,5.317-2.477
			c1.357-1.291,2.194-2.958,2.498-4.971H730.074 M732.074,585.37h-7.189v0.199c0,2.277-0.67,4.052-2.006,5.322
			c-1.338,1.271-3.317,1.986-5.939,2.146v6.435h6.316v44.49h8.818V585.37L732.074,585.37z"/>
	</g>
</g>
<g>
	<g>
		<path fill="#FFFFFF" d="M757.586,521.179c3.146,0,5.514,0.762,7.037,2.264c1.516,1.496,2.284,3.83,2.284,6.938v9.241h-4.778
			v-9.956c0-1.791-0.32-3.042-1.013-3.944c-0.548-0.708-1.604-1.552-3.53-1.552c-1.959,0-3.032,0.854-3.587,1.57
			c-0.696,0.897-1.034,2.182-1.034,3.926v16.684v4.828l3.414-3.414c0.855-0.855,1.698-1.473,2.501-1.834
			c0.78-0.35,1.631-0.52,2.599-0.52c1.657,0,2.889,0.527,3.876,1.658c1.045,1.198,1.553,2.82,1.553,4.961v17.002
			c0,3.111-0.771,5.454-2.289,6.963c-1.522,1.512-3.889,2.278-7.032,2.278s-5.51-0.767-7.032-2.278
			c-1.519-1.509-2.288-3.852-2.288-6.963v-38.65c0-3.109,0.769-5.443,2.283-6.938C752.072,521.94,754.44,521.179,757.586,521.179
			 M757.586,574.924c1.94,0,2.999-0.865,3.548-1.595c0.679-0.906,0.995-2.171,0.995-3.98v-14.697c0-1.807-0.315-3.071-0.998-3.983
			c-0.547-0.726-1.605-1.592-3.545-1.592c-1.971,0-3.046,0.874-3.602,1.609c-0.687,0.907-1.02,2.205-1.02,3.966v14.697
			c0,1.763,0.334,3.061,1.02,3.966C754.539,574.049,755.613,574.924,757.586,574.924 M757.586,519.179
			c-3.707,0-6.521,0.947-8.441,2.84c-1.92,1.895-2.879,4.682-2.879,8.362v38.65c0,3.681,0.959,6.475,2.879,8.382
			c1.92,1.906,4.734,2.859,8.441,2.859s6.521-0.953,8.441-2.859c1.92-1.907,2.88-4.701,2.88-8.382v-17.002
			c0-2.621-0.683-4.713-2.046-6.275s-3.158-2.344-5.383-2.344c-1.244,0-2.383,0.231-3.416,0.694
			c-1.032,0.464-2.064,1.212-3.098,2.245v-16.684c0-1.271,0.205-2.172,0.615-2.701s1.079-0.795,2.006-0.795
			c0.9,0,1.549,0.259,1.947,0.774c0.396,0.517,0.596,1.424,0.596,2.722v11.956h8.778v-11.241c0-3.681-0.96-6.468-2.88-8.362
			C764.107,520.126,761.293,519.179,757.586,519.179L757.586,519.179z M757.586,572.924c-0.927,0-1.596-0.271-2.006-0.814
			c-0.41-0.542-0.615-1.463-0.615-2.761v-14.697c0-1.297,0.205-2.218,0.615-2.761c0.41-0.542,1.079-0.814,2.006-0.814
			c0.9,0,1.549,0.266,1.947,0.795c0.396,0.53,0.596,1.456,0.596,2.78v14.697c0,1.325-0.199,2.252-0.596,2.781
			C759.135,572.659,758.486,572.924,757.586,572.924L757.586,572.924z"/>
	</g>
</g>
<g>
	<g>
		<path fill="#FFFFFF" d="M735.041,522.37v34.863v2h2h1.654v3.15h-1.654h-2v2v12.578h-4.74v-12.578v-2h-2h-12.3v-4.265
			l10.577-35.749H735.041 M718.936,559.233h2.613h7.109h1.955l0.045-1.955l0.477-21.257c0.001-0.188,0.052-1.19,0.511-6.433
			l0.119-1.47l0.176-2.161h-2.169h-0.795H727.3l-0.293,1.651c-0.287,1.619-0.558,3.044-0.804,4.233
			c-0.248,1.202-0.489,2.271-0.706,3.14l-5.879,21.729L718.936,559.233 M737.041,520.37h-11.957l-11.083,37.459v6.555h14.3v14.578
			h8.74v-14.578h3.654v-7.15h-3.654V520.37L737.041,520.37z M729.771,527.958l-0.119,1.47c-0.346,3.946-0.518,6.144-0.518,6.594
			l-0.477,21.212h-7.109l5.879-21.729c0.238-0.953,0.482-2.039,0.734-3.257s0.523-2.648,0.814-4.29H729.771L729.771,527.958z"/>
	</g>
</g>
<g>
	<g>
		<path fill="#FFFFFF" d="M757.348,456.179c3.146,0,5.514,0.762,7.037,2.264c1.516,1.496,2.284,3.83,2.284,6.938v8.699
			c0,2.064-0.454,3.673-1.388,4.917c-0.925,1.232-2.313,2.085-4.243,2.606l-3.879,1.046l-4.123-1.053
			c-1.991-0.509-3.377-1.23-4.009-2.089c-0.374-0.507-1-1.85-1-5.149v-8.978c0-3.109,0.769-5.443,2.283-6.938
			C751.834,456.94,754.202,456.179,757.348,456.179 M757.348,481.482c1.949,0,3.02-0.895,3.577-1.647
			c0.676-0.918,1.005-2.203,1.005-3.928v-11.241c0-1.732-0.326-3.009-0.995-3.9c-0.545-0.728-1.61-1.596-3.587-1.596
			c-1.928,0-2.984,0.845-3.531,1.555c-0.689,0.896-1.011,2.148-1.011,3.941v11.241c0,1.752,0.321,3.042,0.981,3.942
			C754.333,480.595,755.394,481.482,757.348,481.482 M755.919,484.546l5.283,0.956c1.983,0.359,3.398,1.062,4.207,2.089
			c0.836,1.063,1.26,2.731,1.26,4.96v11.48c0,3.111-0.771,5.454-2.289,6.963c-1.522,1.512-3.889,2.278-7.032,2.278
			s-5.51-0.767-7.032-2.278c-1.519-1.509-2.288-3.852-2.288-6.963V492.71c0-2.206,0.366-3.828,1.087-4.823
			c0.722-0.993,2.081-1.816,4.041-2.449L755.919,484.546 M757.348,509.924c1.938,0,3.006-0.874,3.562-1.607
			c0.687-0.907,1.021-2.205,1.021-3.968v-13.228c0-1.753-0.329-3.051-1.007-3.969c-0.554-0.751-1.625-1.646-3.575-1.646
			c-1.953,0-3.014,0.887-3.562,1.634c-0.669,0.916-0.98,2.181-0.98,3.98v13.228c0,1.812,0.316,3.077,0.996,3.982
			C754.348,509.058,755.406,509.924,757.348,509.924 M757.348,454.179c-3.707,0-6.521,0.947-8.441,2.84
			c-1.92,1.895-2.879,4.682-2.879,8.362v8.978c0,2.966,0.463,5.078,1.39,6.336s2.635,2.204,5.124,2.84
			c-2.383,0.769-4.064,1.827-5.045,3.178c-0.979,1.351-1.469,3.351-1.469,5.998v11.321c0,3.681,0.959,6.475,2.879,8.382
			c1.92,1.906,4.734,2.859,8.441,2.859s6.521-0.953,8.441-2.859c1.92-1.907,2.88-4.701,2.88-8.382v-11.48
			c0-2.701-0.563-4.767-1.688-6.196s-2.934-2.37-5.422-2.82c2.356-0.636,4.131-1.748,5.322-3.337
			c1.192-1.589,1.788-3.628,1.788-6.117v-8.699c0-3.681-0.96-6.468-2.88-8.362C763.869,455.126,761.055,454.179,757.348,454.179
			L757.348,454.179z M757.348,479.482c-0.9,0-1.549-0.271-1.946-0.814c-0.397-0.542-0.596-1.463-0.596-2.761v-11.241
			c0-1.298,0.198-2.205,0.596-2.722c0.397-0.516,1.046-0.774,1.946-0.774c0.927,0,1.59,0.266,1.986,0.795
			c0.397,0.529,0.596,1.43,0.596,2.701v11.241c0,1.271-0.205,2.185-0.615,2.741C758.903,479.204,758.248,479.482,757.348,479.482
			L757.348,479.482z M757.348,507.924c-0.9,0-1.549-0.265-1.946-0.794s-0.596-1.456-0.596-2.781v-13.228
			c0-1.324,0.198-2.257,0.596-2.801c0.397-0.542,1.046-0.813,1.946-0.813s1.556,0.277,1.967,0.834
			c0.41,0.556,0.615,1.483,0.615,2.78v13.228c0,1.298-0.205,2.219-0.615,2.761C758.903,507.652,758.248,507.924,757.348,507.924
			L757.348,507.924z"/>
	</g>
</g>
<g>
	<g>
		<path fill="#FFFFFF" d="M760.074,392.37v54.592h-4.818v-42.49v-2h-2h-4.316v-2.654c2.209-0.388,3.992-1.217,5.317-2.477
			c1.357-1.291,2.194-2.958,2.498-4.971H760.074 M762.074,390.37h-7.189v0.199c0,2.277-0.67,4.052-2.006,5.322
			c-1.338,1.271-3.317,1.986-5.939,2.146v6.435h6.316v44.49h8.818V390.37L762.074,390.37z"/>
	</g>
</g>
<g>
	<g>
		<path fill="#FFFFFF" d="M735.04,392.37v34.863v2h2h1.654v3.15h-1.654h-2v2v12.578h-4.739v-12.578v-2h-2H716v-4.265l10.577-35.749
			H735.04 M718.935,429.233h2.613h7.11h1.955l0.045-1.955l0.477-21.257c0.001-0.187,0.052-1.186,0.51-6.433l0.119-1.47l0.176-2.161
			h-2.169h-0.794h-1.676l-0.293,1.649c-0.289,1.621-0.56,3.047-0.805,4.235c-0.245,1.188-0.486,2.257-0.707,3.14l-5.879,21.729
			L718.935,429.233 M737.04,390.37h-11.957L714,427.829v6.555h14.301v14.578h8.739v-14.578h3.654v-7.15h-3.654V390.37L737.04,390.37
			z M729.771,397.958l-0.119,1.47c-0.345,3.946-0.517,6.144-0.517,6.594l-0.477,21.212h-7.11l5.879-21.729
			c0.238-0.953,0.483-2.039,0.735-3.257c0.251-1.218,0.522-2.648,0.814-4.29H729.771L729.771,397.958z"/>
	</g>
</g>
<g>
	<g>
		<path fill="#FFFFFF" d="M757.745,326.179c3.102,0,5.418,0.669,6.885,1.99c1.426,1.283,2.118,3.226,2.118,5.941v7.071
			c0,3.921-1.73,8.977-5.134,15.007c-0.599,1.035-1.028,1.813-1.313,2.378c-2.559,4.714-4.234,8.253-5.121,10.82
			c-0.912,2.635-1.403,5.13-1.461,7.416l-0.052,2.044l2.045,0.006l10.758,0.034v3.077h-18.757c-0.003-0.332-0.005-0.725-0.005-1.178
			c0-3.067,0.391-6.073,1.162-8.933c0.783-2.902,2.229-6.434,4.291-10.479c0.631-1.208,1.604-2.928,2.894-5.12
			c3.952-6.757,5.874-12.219,5.874-16.7v-4.966c0-1.664-0.347-2.889-1.059-3.742c-0.545-0.655-1.599-1.436-3.523-1.436
			c-1.39,0-2.558,0.553-3.379,1.598c-0.72,0.915-1.084,2.119-1.084,3.58v9.123h-4.778v-8.328c0-3.115,0.773-5.372,2.364-6.899
			C752.063,326.954,754.51,326.179,757.745,326.179 M757.745,324.179c-3.787,0-6.673,0.953-8.659,2.86
			c-1.986,1.906-2.979,4.688-2.979,8.342v10.328h8.778v-11.123c0-1.006,0.219-1.787,0.656-2.344
			c0.437-0.556,1.039-0.834,1.807-0.834c0.927,0,1.59,0.238,1.986,0.715c0.397,0.477,0.596,1.298,0.596,2.463v4.966
			c0,4.078-1.867,9.309-5.601,15.69c-1.325,2.251-2.304,3.986-2.939,5.204c-2.146,4.21-3.628,7.839-4.449,10.884
			c-0.821,3.046-1.231,6.196-1.231,9.454c0,0.848,0.006,1.489,0.02,1.927c0.014,0.437,0.047,0.854,0.1,1.251h22.643v-7.07
			l-12.752-0.04c0.053-2.092,0.504-4.362,1.352-6.813c0.847-2.449,2.516-5.965,5.004-10.547c0.266-0.529,0.689-1.297,1.271-2.304
			c3.602-6.382,5.402-11.718,5.402-16.008v-7.071c0-3.283-0.927-5.76-2.78-7.428C764.113,325.013,761.373,324.179,757.745,324.179
			L757.745,324.179z"/>
	</g>
</g>
<g>
	<g>
		<path fill="#FFFFFF" d="M727.348,326.179c3.188,0,5.528,0.735,6.957,2.184c1.438,1.458,2.166,3.82,2.166,7.018v10.169
			c0,2.444-0.408,4.249-1.213,5.365c-0.731,1.016-1.94,1.627-3.695,1.869l-4.076,0.563c1.397-0.377,2.279-1.135,2.813-1.801
			c0.99-1.237,1.472-2.926,1.472-5.163v-11.718c0-0.454-0.015-0.935-0.043-1.428l-0.009-0.139l-0.027-0.137l-0.005-0.028
			c-0.048-1.038-0.506-1.964-1.331-2.69c-0.799-0.703-1.84-1.074-3.009-1.074c-1.903,0-2.954,0.803-3.5,1.476
			c-0.711,0.877-1.042,2.155-1.042,4.021v10.036h-4.778v-9.321c0-3.139,0.757-5.481,2.249-6.963
			C721.772,326.932,724.151,326.179,727.348,326.179 M726.806,356.011l4.725,0.731c2.721,0.421,3.697,1.143,4.036,1.535
			c0.338,0.391,0.904,1.477,0.904,4.354v11.4c0,3.225-0.729,5.599-2.166,7.057c-1.429,1.449-3.77,2.185-6.957,2.185
			c-3.196,0-5.575-0.753-7.072-2.24c-1.491-1.48-2.248-3.836-2.248-7.001v-9.4h4.778v9.718c0,1.886,0.326,3.176,1.025,4.059
			c0.546,0.691,1.599,1.516,3.517,1.516c1.983,0,3.015-0.89,3.531-1.637c0.609-0.88,0.893-2.131,0.893-3.938v-11.201
			c0-2.561-0.484-4.248-1.526-5.314c-0.805-0.82-1.938-1.313-3.439-1.494V356.011 M727.348,324.179c-3.76,0-6.588,0.94-8.48,2.82
			c-1.895,1.881-2.84,4.675-2.84,8.382v11.321h8.778v-12.036c0-1.351,0.198-2.271,0.596-2.761s1.046-0.735,1.946-0.735
			c0.688,0,1.252,0.192,1.688,0.576s0.655,0.841,0.655,1.37c0,0.027,0.014,0.106,0.04,0.238c0.026,0.451,0.04,0.888,0.04,1.312
			v11.718c0,1.748-0.345,3.053-1.033,3.913c-0.689,0.86-1.748,1.291-3.178,1.291h-0.755v6.673h0.596c1.642,0,2.78,0.325,3.417,0.974
			c0.635,0.649,0.953,1.953,0.953,3.913v11.201c0,1.351-0.18,2.284-0.537,2.801s-0.986,0.774-1.887,0.774s-1.549-0.251-1.946-0.755
			c-0.397-0.502-0.596-1.442-0.596-2.82v-11.718h-8.778v11.4c0,3.733,0.945,6.541,2.84,8.421c1.893,1.88,4.721,2.82,8.48,2.82
			s6.555-0.927,8.382-2.78s2.741-4.674,2.741-8.461v-11.4c0-2.701-0.464-4.588-1.391-5.661c-0.928-1.072-2.676-1.807-5.244-2.204
			c2.305-0.318,3.986-1.212,5.045-2.682c1.06-1.47,1.59-3.647,1.59-6.534v-10.169c0-3.76-0.914-6.567-2.741-8.422
			C733.902,325.106,731.107,324.179,727.348,324.179L727.348,324.179z"/>
	</g>
</g>
<g>
	<path fill="#2F87C8" d="M707,653v56h-21v-56H707 M709,651h-25v60h25V651L709,651z"/>
</g>
<g>
	<path fill="#2F87C8" d="M707,588v56h-21v-56H707 M709,586h-25v60h25V586L709,586z"/>
</g>
<g>
	<path fill="#2F87C8" d="M707,523v56h-21v-56H707 M709,521h-25v60h25V521L709,521z"/>
</g>
<g>
	<path fill="#2F87C8" d="M707,458v56h-21v-56H707 M709,456h-25v60h25V456L709,456z"/>
</g>
<g>
	<path fill="#2F87C8" d="M707,393v56h-21v-56H707 M709,391h-25v60h25V391L709,391z"/>
</g>
<g>
	<path fill="#2F87C8" d="M707,328v56h-21v-56H707 M709,326h-25v60h25V326L709,326z"/>
</g>
<g>
	<g>
		<g>
			<path fill="#FFFFFF" d="M935.742,3.409c3.778,0,6.494,0.687,8.071,2.041c1.488,1.276,2.242,3.485,2.242,6.565v14.38
				c0,3.142-0.753,5.396-2.237,6.699c-1.563,1.371-4.28,2.065-8.076,2.065h-1.629h-2v2V58h-4.699V3.409H935.742 M932.113,32.208h2
				h1.906c2.099,0,3.307-0.88,3.951-1.619c0.867-0.995,1.307-2.406,1.307-4.194v-14.38c0-1.779-0.435-3.191-1.294-4.199
				c-0.645-0.754-1.856-1.654-3.964-1.654h-1.906h-2v2v22.046V32.208 M935.742,1.409h-10.328V60h8.699V37.159h1.629
				c4.315,0,7.447-0.854,9.395-2.562c1.945-1.708,2.919-4.442,2.919-8.203v-14.38c0-3.708-0.979-6.402-2.939-8.083
				S940.031,1.409,935.742,1.409L935.742,1.409z M934.113,30.208V8.162h1.906c1.086,0,1.9,0.318,2.443,0.953
				c0.542,0.636,0.814,1.603,0.814,2.9v14.38c0,1.298-0.272,2.258-0.814,2.88c-0.543,0.623-1.357,0.933-2.443,0.933H934.113
				L934.113,30.208z"/>
		</g>
		<g>
			<path fill="#FFFFFF" d="M967.155,3.409L973.077,58h-4.883l-1.587-13.995l-0.201-1.775h-1.786h-5.442H957.4l-0.209,1.765
				L955.534,58h-4.59l6.514-54.591H967.155 M957.786,38.643h2.147h4.051h2.129l-0.133-2.125l-0.911-14.538
				c-0.055-1.295-0.143-2.811-0.262-4.504c-0.119-1.698-0.327-4.197-0.618-7.428l-0.164-1.821h-1.828H961.8h-1.822l-0.169,1.814
				c-0.084,0.895-0.232,3.041-0.44,6.366c-0.159,2.326-0.292,4.203-0.397,5.634L957.938,36.5L957.786,38.643 M968.95,1.409h-13.268
				L948.691,60h8.62l1.866-15.77h5.442L966.408,60h8.897L968.95,1.409L968.95,1.409z M959.934,36.643l1.032-14.459
				c0.105-1.43,0.238-3.31,0.397-5.641c0.211-3.363,0.357-5.468,0.437-6.316h0.397c0.291,3.231,0.496,5.694,0.615,7.389
				s0.205,3.178,0.259,4.449l0.913,14.579H959.934L959.934,36.643z"/>
		</g>
		<g>
			<path fill="#FFFFFF" d="M1002.344,3.409V58h-9.193l-3.983-30.629c-0.715-5.557-1.237-9.678-1.568-12.362
				c-0.337-2.739-0.588-4.953-0.769-6.767l-0.18-1.802h-1.811h-0.596h-2.037l0.037,2.037c0.078,4.288,0.139,7.644,0.178,10.066
				c0.041,2.454,0.061,3.957,0.061,4.61L982.745,58h-3.096V3.409h9.521l3.021,22.299c0.577,4.28,1.123,8.741,1.623,13.26
				c0.501,4.536,0.968,9.213,1.387,13.901l0.177,1.979l1.98-0.165l0.477-0.04l1.876-0.156l-0.041-1.882
				c-0.108-4.891-0.187-9.038-0.238-12.676c-0.053-3.645-0.08-6.142-0.08-7.434l-0.223-29.088H1002.344 M1004.344,1.409h-7.23
				l0.238,31.103c0,1.271,0.026,3.754,0.08,7.448c0.053,3.694,0.133,7.924,0.238,12.691l-0.477,0.04
				c-0.424-4.74-0.888-9.388-1.391-13.943c-0.504-4.554-1.047-8.99-1.629-13.307l-3.257-24.032h-13.268V60h7.11l-0.277-36.863
				c0-0.662-0.021-2.205-0.061-4.628c-0.039-2.423-0.1-5.78-0.178-10.07h0.596c0.185,1.854,0.443,4.125,0.773,6.813
				c0.332,2.688,0.854,6.813,1.57,12.374L991.394,60h12.95V1.409L1004.344,1.409z"/>
		</g>
		<g>
			<path fill="#FFFFFF" d="M1026.178,3.409v3.984h-8.607h-2v2V24.13v2h2h8.368v3.706h-8.368h-2v2v20.1v2h2h8.607V58h-15.307V3.409
				H1026.178 M1028.178,1.409h-19.307V60h19.307v-8.064h-10.607v-20.1h10.368V24.13h-10.368V9.393h10.607V1.409L1028.178,1.409z"/>
		</g>
		<g>
			<path fill="#FFFFFF" d="M1037.775,3.409v48.527v2h2h8.607V58h-15.307V3.409H1037.775 M1039.775,1.409h-8.699V60h19.307v-8.064
				h-10.607V1.409L1039.775,1.409z"/>
		</g>
		<g>
			<path fill="#FFFFFF" d="M1059.981,35.465v2.197h-6.328v-2.197H1059.981 M1061.981,33.465h-10.328v6.197h10.328V33.465
				L1061.981,33.465z"/>
		</g>
		<g>
			<path fill="#FFFFFF" d="M1078.109,3.409c3.822,0,6.547,0.688,8.096,2.045c1.472,1.292,2.218,3.552,2.218,6.719v37.102
				c0,3.142-0.746,5.389-2.218,6.679c-1.549,1.358-4.272,2.046-8.096,2.046h-8.328V3.409H1078.109 M1074.48,54.85h2h1.906
				c2.108,0,3.319-0.9,3.965-1.656c0.858-1.006,1.293-2.404,1.293-4.157V12.015c0-1.779-0.435-3.191-1.294-4.199
				c-0.646-0.754-1.856-1.654-3.964-1.654h-1.906h-2v2V52.85V54.85 M1078.109,1.409h-10.328V60h10.328
				c4.342,0,7.48-0.847,9.414-2.542c1.933-1.694,2.899-4.422,2.899-8.183V12.173c0-3.787-0.967-6.527-2.899-8.223
				C1085.59,2.256,1082.451,1.409,1078.109,1.409L1078.109,1.409z M1076.48,52.85V8.162h1.906c1.086,0,1.9,0.318,2.443,0.953
				c0.542,0.636,0.814,1.603,0.814,2.9v37.022c0,1.271-0.272,2.224-0.814,2.86c-0.543,0.636-1.357,0.954-2.443,0.954H1076.48
				L1076.48,52.85z"/>
		</g>
		<g>
			<path fill="#FFFFFF" d="M1118.07,2.217c3.17,0,5.542,0.76,7.052,2.259c1.505,1.496,2.269,3.832,2.269,6.943v9.639h-4.699V10.704
				c0-1.742-0.338-3.026-1.036-3.928c-0.555-0.715-1.628-1.567-3.585-1.567c-1.948,0-2.996,0.86-3.531,1.582
				c-0.663,0.891-0.972,2.135-0.972,3.914v4.211c0,1.611,0.105,2.891,0.321,3.909c0.241,1.139,0.645,2.112,1.216,2.912l9.489,12.983
				c1.073,1.479,1.818,2.804,2.214,3.936c0.387,1.104,0.583,2.352,0.583,3.708v7.707c0,3.114-0.765,5.458-2.273,6.967
				s-3.88,2.274-7.047,2.274c-3.114,0-5.451-0.758-6.947-2.255c-1.496-1.495-2.255-3.846-2.255-6.987V39.239h4.699v11.148
				c0,1.797,0.304,3.054,0.956,3.953c0.535,0.74,1.586,1.622,3.547,1.622c1.971,0,3.045-0.874,3.602-1.608
				c0.686-0.908,1.02-2.205,1.02-3.967V44.31c0-0.999-0.152-1.98-0.453-2.917c-0.299-0.928-0.763-1.844-1.392-2.739l-9.926-13.816
				c-0.718-1.008-1.243-2.056-1.562-3.113c-0.326-1.079-0.491-2.408-0.491-3.95v-6.355c0-3.115,0.759-5.452,2.255-6.948
				C1112.619,2.975,1114.956,2.217,1118.07,2.217 M1118.07,0.217c-3.682,0-6.469,0.947-8.361,2.84
				c-1.895,1.894-2.841,4.681-2.841,8.362v6.355c0,1.748,0.192,3.257,0.576,4.528c0.384,1.271,0.999,2.502,1.847,3.694l9.932,13.824
				c0.502,0.715,0.873,1.443,1.111,2.185c0.238,0.742,0.357,1.51,0.357,2.304v6.078c0,1.298-0.205,2.218-0.615,2.761
				c-0.411,0.543-1.08,0.814-2.006,0.814c-0.9,0-1.543-0.264-1.927-0.794c-0.384-0.529-0.576-1.456-0.576-2.78V37.239h-8.699v12.831
				c0,3.708,0.946,6.508,2.841,8.401c1.893,1.893,4.68,2.84,8.361,2.84c3.734,0,6.555-0.954,8.461-2.86s2.859-4.7,2.859-8.381
				v-7.707c0-1.589-0.231-3.045-0.695-4.369c-0.463-1.324-1.291-2.807-2.482-4.449l-9.494-12.989
				c-0.396-0.556-0.688-1.271-0.873-2.145c-0.186-0.874-0.278-2.039-0.278-3.496v-4.211c0-1.297,0.192-2.205,0.576-2.721
				c0.384-0.517,1.026-0.775,1.927-0.775c0.926,0,1.595,0.265,2.006,0.794c0.41,0.53,0.615,1.43,0.615,2.701v12.354h8.699V11.419
				c0-3.681-0.953-6.468-2.859-8.362C1124.625,1.164,1121.805,0.217,1118.07,0.217L1118.07,0.217z"/>
		</g>
		<g>
			<path fill="#FFFFFF" d="M1153.132,3.409v46.661c0,3.111-0.771,5.454-2.289,6.962c-1.523,1.512-3.889,2.279-7.032,2.279
				s-5.509-0.767-7.032-2.279c-1.519-1.508-2.288-3.851-2.288-6.962V3.409h4.778v46.979c0,1.811,0.316,3.076,0.995,3.98
				c0.546,0.728,1.604,1.595,3.547,1.595c1.938,0,3.006-0.874,3.563-1.608c0.686-0.908,1.02-2.205,1.02-3.967V3.409H1153.132
				 M1155.132,1.409h-8.739v48.979c0,1.298-0.205,2.218-0.615,2.761c-0.411,0.543-1.066,0.814-1.967,0.814s-1.549-0.264-1.946-0.794
				c-0.397-0.529-0.596-1.456-0.596-2.78V1.409h-8.778v48.661c0,3.681,0.959,6.475,2.879,8.381s4.734,2.86,8.441,2.86
				s6.521-0.954,8.441-2.86s2.88-4.7,2.88-8.381V1.409L1155.132,1.409z"/>
		</g>
		<g>
			<path fill="#FFFFFF" d="M1169.829,3.409c3.826,0,6.552,0.684,8.102,2.031c1.468,1.277,2.212,3.543,2.212,6.733v7.707
				c0,1.892-0.533,3.37-1.629,4.516c-1.164,1.217-2.979,2.085-5.393,2.582l-1.598,0.328v1.631v0.318v1.481
				c-0.419-0.091-0.89-0.145-1.416-0.145h-1.907h-2v2V52.85v2h2h1.907c2.107,0,3.318-0.9,3.965-1.656
				c0.857-1.006,1.292-2.404,1.292-4.157V36.325c0-1.761-0.432-3.151-1.286-4.134c-0.289-0.332-0.695-0.693-1.254-0.988l0.535,0.044
				c2.412,0.199,4.187,0.815,5.272,1.831c1.017,0.951,1.511,2.338,1.511,4.24v11.957c0,3.142-0.746,5.389-2.219,6.679
				c-1.547,1.357-4.271,2.046-8.095,2.046h-8.328V3.409H1169.829 M1166.2,27.441h2h1.907c2.107,0,3.318-0.899,3.965-1.656
				c0.857-1.006,1.292-2.418,1.292-4.197v-9.573c0-1.779-0.435-3.191-1.294-4.199c-0.645-0.754-1.855-1.654-3.963-1.654h-1.907h-2v2
				v17.279V27.441 M1169.829,1.409h-10.328V60h10.328c4.343,0,7.481-0.847,9.414-2.542c1.933-1.694,2.899-4.422,2.899-8.183V37.318
				c0-2.463-0.715-4.363-2.145-5.701c-1.43-1.337-3.589-2.125-6.475-2.363v-0.318c2.833-0.582,4.979-1.635,6.436-3.158
				c1.455-1.522,2.184-3.489,2.184-5.899v-7.707c0-3.813-0.967-6.561-2.899-8.242S1174.172,1.409,1169.829,1.409L1169.829,1.409z
				 M1168.2,25.441V8.162h1.907c1.085,0,1.899,0.318,2.442,0.953c0.542,0.636,0.814,1.603,0.814,2.9v9.573
				c0,1.298-0.272,2.264-0.814,2.9c-0.543,0.635-1.357,0.953-2.442,0.953H1168.2L1168.2,25.441z M1168.2,52.85V32.591h1.907
				c1.111,0,1.933,0.305,2.463,0.914c0.529,0.609,0.794,1.549,0.794,2.82v12.711c0,1.271-0.272,2.224-0.814,2.86
				c-0.543,0.636-1.357,0.954-2.442,0.954H1168.2L1168.2,52.85z"/>
		</g>
		<g>
			<path fill="#FFFFFF" d="M1197.119,2.217c3.17,0,5.542,0.76,7.052,2.259c1.505,1.496,2.269,3.832,2.269,6.943v9.639h-4.699V10.704
				c0-1.742-0.338-3.026-1.036-3.928c-0.555-0.715-1.628-1.567-3.585-1.567c-1.948,0-2.996,0.86-3.531,1.582
				c-0.663,0.891-0.972,2.135-0.972,3.914v4.211c0,1.611,0.105,2.891,0.321,3.909c0.241,1.139,0.645,2.112,1.216,2.912l9.489,12.983
				c1.073,1.479,1.818,2.804,2.214,3.936c0.387,1.104,0.583,2.352,0.583,3.708v7.707c0,3.114-0.765,5.458-2.273,6.967
				s-3.88,2.274-7.047,2.274c-3.114,0-5.451-0.758-6.947-2.255c-1.496-1.495-2.255-3.846-2.255-6.987V39.239h4.699v11.148
				c0,1.797,0.304,3.054,0.956,3.953c0.535,0.74,1.586,1.622,3.547,1.622c1.971,0,3.045-0.874,3.602-1.608
				c0.686-0.908,1.02-2.205,1.02-3.967V44.31c0-0.999-0.152-1.98-0.453-2.917c-0.299-0.928-0.763-1.844-1.392-2.739l-9.926-13.816
				c-0.718-1.008-1.243-2.056-1.562-3.113c-0.326-1.079-0.491-2.408-0.491-3.95v-6.355c0-3.115,0.759-5.452,2.255-6.948
				C1191.668,2.975,1194.005,2.217,1197.119,2.217 M1197.119,0.217c-3.682,0-6.469,0.947-8.361,2.84
				c-1.895,1.894-2.841,4.681-2.841,8.362v6.355c0,1.748,0.192,3.257,0.576,4.528c0.384,1.271,0.999,2.502,1.847,3.694l9.932,13.824
				c0.502,0.715,0.873,1.443,1.111,2.185c0.238,0.742,0.357,1.51,0.357,2.304v6.078c0,1.298-0.205,2.218-0.615,2.761
				c-0.411,0.543-1.08,0.814-2.006,0.814c-0.9,0-1.543-0.264-1.927-0.794c-0.384-0.529-0.576-1.456-0.576-2.78V37.239h-8.699v12.831
				c0,3.708,0.946,6.508,2.841,8.401c1.893,1.893,4.68,2.84,8.361,2.84c3.734,0,6.555-0.954,8.461-2.86s2.859-4.7,2.859-8.381
				v-7.707c0-1.589-0.231-3.045-0.695-4.369c-0.463-1.324-1.291-2.807-2.482-4.449l-9.494-12.989
				c-0.396-0.556-0.688-1.271-0.873-2.145c-0.186-0.874-0.278-2.039-0.278-3.496v-4.211c0-1.297,0.192-2.205,0.576-2.721
				c0.384-0.517,1.026-0.775,1.927-0.775c0.926,0,1.595,0.265,2.006,0.794c0.41,0.53,0.615,1.43,0.615,2.701v12.354h8.699V11.419
				c0-3.681-0.953-6.468-2.859-8.362C1203.674,1.164,1200.854,0.217,1197.119,0.217L1197.119,0.217z"/>
		</g>
		<g>
			<path fill="#FFFFFF" d="M1229.082,3.409v3.984h-8.605h-2v2V24.13v2h2h8.367v3.706h-8.367h-2v2v20.1v2h2h8.605V58h-15.305V3.409
				H1229.082 M1231.082,1.409h-19.305V60h19.305v-8.064h-10.605v-20.1h10.367V24.13h-10.367V9.393h10.605V1.409L1231.082,1.409z"/>
		</g>
		<g>
			<path fill="#FFFFFF" d="M1244.906,2.217c3.143,0,5.501,0.76,7.012,2.26c1.506,1.495,2.27,3.831,2.27,6.942v9.639h-4.779V10.704
				c0-1.779-0.309-3.023-0.971-3.914c-0.536-0.722-1.584-1.582-3.531-1.582c-1.931,0-2.986,0.846-3.533,1.557
				c-0.689,0.896-1.01,2.148-1.01,3.939v39.684c0,1.809,0.316,3.073,0.995,3.98c0.546,0.728,1.604,1.595,3.548,1.595
				c1.961,0,3.011-0.882,3.545-1.621c0.653-0.9,0.957-2.157,0.957-3.954V39.239h4.779v10.831c0,3.114-0.766,5.458-2.274,6.967
				c-1.51,1.51-3.867,2.275-7.007,2.275c-3.167,0-5.538-0.765-7.047-2.275c-1.509-1.509-2.274-3.853-2.274-6.967v-38.65
				c0-3.112,0.764-5.447,2.27-6.943C1239.364,2.977,1241.736,2.217,1244.906,2.217 M1244.906,0.217c-3.734,0-6.555,0.947-8.461,2.84
				c-1.907,1.894-2.86,4.681-2.86,8.362v38.65c0,3.681,0.953,6.475,2.86,8.381c1.906,1.907,4.727,2.86,8.461,2.86
				c3.707,0,6.514-0.954,8.421-2.86s2.86-4.7,2.86-8.381V37.239h-8.779v13.148c0,1.324-0.192,2.251-0.576,2.78
				c-0.384,0.53-1.026,0.794-1.926,0.794c-0.9,0-1.55-0.264-1.947-0.794c-0.396-0.529-0.596-1.456-0.596-2.78V10.704
				c0-1.297,0.199-2.205,0.596-2.721c0.397-0.517,1.047-0.775,1.947-0.775c0.899,0,1.542,0.258,1.926,0.775
				c0.384,0.516,0.576,1.424,0.576,2.721v12.354h8.779V11.419c0-3.681-0.953-6.468-2.86-8.362
				C1251.42,1.164,1248.613,0.217,1244.906,0.217L1244.906,0.217z"/>
		</g>
		<g>
			<path fill="#FFFFFF" d="M1278.775,3.409v3.587h-5.547h-2v2V58h-4.739V8.996v-2h-2h-5.548V3.409H1278.775 M1280.775,1.409h-23.834
				v7.587h7.548V60h8.739V8.996h7.547V1.409L1280.775,1.409z"/>
		</g>
		<g>
			<path fill="#FFFFFF" d="M1289.58,3.409V58h-4.699V3.409H1289.58 M1291.58,1.409h-8.699V60h8.699V1.409L1291.58,1.409z"/>
		</g>
		<g>
			<path fill="#FFFFFF" d="M1307.23,2.217c3.146,0,5.514,0.762,7.037,2.264c1.516,1.495,2.284,3.829,2.284,6.938v38.65
				c0,3.111-0.771,5.454-2.289,6.962c-1.523,1.512-3.889,2.279-7.032,2.279s-5.509-0.767-7.032-2.279
				c-1.519-1.508-2.288-3.851-2.288-6.962v-38.65c0-3.109,0.769-5.443,2.283-6.938C1301.717,2.979,1304.085,2.217,1307.23,2.217
				 M1307.23,55.962c1.938,0,3.006-0.874,3.563-1.608c0.686-0.908,1.02-2.205,1.02-3.967V10.704c0-1.731-0.325-3.007-0.995-3.9
				c-0.545-0.728-1.61-1.595-3.587-1.595c-1.93,0-2.985,0.846-3.531,1.555c-0.689,0.896-1.011,2.148-1.011,3.941v39.684
				c0,1.811,0.316,3.076,0.995,3.98C1304.229,55.095,1305.287,55.962,1307.23,55.962 M1307.23,0.217
				c-3.707,0-6.521,0.947-8.441,2.84c-1.92,1.894-2.879,4.681-2.879,8.362v38.65c0,3.681,0.959,6.475,2.879,8.381
				s4.734,2.86,8.441,2.86s6.521-0.954,8.441-2.86s2.88-4.7,2.88-8.381v-38.65c0-3.681-0.96-6.468-2.88-8.362
				C1313.752,1.164,1310.938,0.217,1307.23,0.217L1307.23,0.217z M1307.23,53.962c-0.9,0-1.549-0.264-1.946-0.794
				c-0.397-0.529-0.596-1.456-0.596-2.78V10.704c0-1.297,0.198-2.205,0.596-2.721c0.397-0.517,1.046-0.775,1.946-0.775
				c0.927,0,1.59,0.265,1.986,0.794c0.397,0.53,0.596,1.43,0.596,2.701v39.684c0,1.298-0.205,2.218-0.615,2.761
				C1308.786,53.691,1308.131,53.962,1307.23,53.962L1307.23,53.962z"/>
		</g>
		<g>
			<path fill="#FFFFFF" d="M1347.615,3.409V58h-9.192l-3.984-30.629c-0.714-5.557-1.237-9.678-1.567-12.364
				c-0.326-2.645-0.585-4.922-0.77-6.767l-0.181-1.801h-1.81h-0.596h-2.037l0.037,2.037c0.079,4.288,0.139,7.644,0.179,10.066
				c0.039,2.348,0.06,3.937,0.06,4.61L1328.016,58h-3.094V3.409h9.521l3.021,22.299c0.579,4.293,1.125,8.754,1.622,13.26
				c0.497,4.49,0.964,9.167,1.387,13.901l0.177,1.979l1.98-0.165l0.477-0.04l1.876-0.156l-0.041-1.882
				c-0.108-4.891-0.187-9.038-0.238-12.675c-0.053-3.667-0.079-6.164-0.079-7.435l-0.223-29.088H1347.615 M1349.615,1.409h-7.229
				l0.238,31.103c0,1.271,0.026,3.754,0.079,7.448c0.053,3.694,0.133,7.924,0.238,12.691l-0.477,0.04
				c-0.424-4.74-0.887-9.388-1.391-13.943c-0.503-4.554-1.046-8.99-1.628-13.307l-3.257-24.032h-13.268V60h7.109l-0.277-36.863
				c0-0.662-0.02-2.205-0.06-4.628c-0.04-2.423-0.1-5.78-0.179-10.07h0.596c0.186,1.854,0.443,4.125,0.774,6.813
				c0.331,2.688,0.854,6.813,1.569,12.374L1336.666,60h12.949V1.409L1349.615,1.409z"/>
		</g>
		<g>
			<path fill="#FFFFFF" d="M1378.574,2.217c3.145,0,5.512,0.762,7.036,2.264c1.516,1.495,2.284,3.829,2.284,6.938v8.699
				c0,2.064-0.454,3.672-1.387,4.917c-0.925,1.232-2.313,2.084-4.244,2.605l-3.877,1.046l-4.124-1.053
				c-1.991-0.508-3.378-1.23-4.011-2.09c-0.373-0.506-1-1.848-1-5.148v-8.977c0-3.109,0.769-5.443,2.285-6.938
				C1373.061,2.979,1375.429,2.217,1378.574,2.217 M1378.574,27.521c1.95,0,3.021-0.896,3.572-1.645
				c0.679-0.917,1.009-2.203,1.009-3.93V10.704c0-1.731-0.325-3.007-0.996-3.902c-0.546-0.727-1.611-1.593-3.585-1.593
				c-1.931,0-2.986,0.846-3.533,1.557c-0.689,0.896-1.01,2.148-1.01,3.939v11.242c0,1.749,0.321,3.038,0.982,3.942
				C1375.559,26.632,1376.619,27.521,1378.574,27.521 M1377.148,30.584l5.279,0.956c1.982,0.359,3.398,1.063,4.207,2.089
				c0.836,1.063,1.26,2.731,1.26,4.96v11.48c0,3.111-0.771,5.454-2.289,6.962c-1.523,1.513-3.89,2.28-7.031,2.28
				c-3.144,0-5.509-0.767-7.032-2.28c-1.52-1.508-2.29-3.851-2.29-6.962V38.748c0-2.205,0.366-3.828,1.09-4.825
				c0.72-0.992,2.078-1.815,4.039-2.447L1377.148,30.584 M1378.574,55.962c1.938,0,3.006-0.875,3.559-1.606
				c0.688-0.908,1.022-2.206,1.022-3.969V37.159c0-1.754-0.33-3.053-1.007-3.967c-0.554-0.751-1.624-1.647-3.574-1.647
				c-1.954,0-3.015,0.888-3.563,1.635c-0.669,0.917-0.98,2.181-0.98,3.98v13.228c0,1.809,0.316,3.073,0.995,3.98
				C1375.572,55.095,1376.63,55.962,1378.574,55.962 M1378.574,0.217c-3.709,0-6.521,0.947-8.441,2.84
				c-1.921,1.894-2.881,4.681-2.881,8.362v8.977c0,2.966,0.463,5.079,1.391,6.336c0.927,1.258,2.635,2.205,5.125,2.84
				c-2.384,0.768-4.066,1.827-5.045,3.178c-0.98,1.351-1.471,3.351-1.471,5.998v11.321c0,3.681,0.96,6.475,2.881,8.381
				c1.92,1.907,4.732,2.86,8.441,2.86c3.707,0,6.52-0.954,8.44-2.86c1.92-1.907,2.88-4.7,2.88-8.381v-11.48
				c0-2.701-0.563-4.767-1.688-6.197c-1.127-1.43-2.934-2.37-5.423-2.82c2.356-0.636,4.132-1.748,5.323-3.337
				s1.787-3.628,1.787-6.117v-8.699c0-3.681-0.96-6.468-2.88-8.362C1385.094,1.164,1382.281,0.217,1378.574,0.217L1378.574,0.217z
				 M1378.574,25.521c-0.901,0-1.55-0.271-1.947-0.814c-0.396-0.542-0.596-1.463-0.596-2.761V10.704
				c0-1.297,0.199-2.205,0.596-2.721c0.397-0.517,1.046-0.775,1.947-0.775c0.926,0,1.588,0.265,1.985,0.794
				c0.397,0.53,0.596,1.43,0.596,2.701v11.242c0,1.271-0.205,2.185-0.616,2.741C1380.129,25.242,1379.474,25.521,1378.574,25.521
				L1378.574,25.521z M1378.574,53.962c-0.901,0-1.55-0.264-1.947-0.794c-0.396-0.529-0.596-1.456-0.596-2.78V37.159
				c0-1.324,0.199-2.257,0.596-2.8c0.397-0.542,1.046-0.814,1.947-0.814c0.899,0,1.555,0.278,1.965,0.834
				c0.411,0.556,0.616,1.483,0.616,2.78v13.228c0,1.298-0.205,2.218-0.616,2.761C1380.129,53.691,1379.474,53.962,1378.574,53.962
				L1378.574,53.962z"/>
		</g>
	</g>
</g>
<g>
	<path fill="#2F87C8" d="M613,2v121H467V2H613 M615,0H465v125h150V0L615,0z"/>
</g>
<g>
	<g>
		<path fill="#FFFFFF" d="M1561.344,708.962h-3.438v-20.063h-2.969v-2.984h9.375v2.984h-2.969V708.962z"/>
		<path fill="#FFFFFF" d="M1563.391,708.962l2.75-23.047h5.219l2.5,23.047h-3.5l-0.703-6.203h-2.141l-0.734,6.203H1563.391z
			 M1567.813,699.774h1.594l-0.359-5.734c-0.021-0.5-0.055-1.083-0.102-1.75c-0.047-0.666-0.128-1.635-0.242-2.906h-0.156
			c-0.031,0.334-0.089,1.162-0.172,2.484c-0.063,0.917-0.114,1.656-0.156,2.219L1567.813,699.774z"/>
		<path fill="#FFFFFF" d="M1574.781,685.915h4.063c1.708,0,2.942,0.331,3.703,0.992c0.761,0.662,1.141,1.742,1.141,3.242v3.031
			c0,0.948-0.286,1.722-0.859,2.32c-0.573,0.6-1.417,1.014-2.531,1.242v0.125c1.136,0.094,1.984,0.404,2.547,0.93
			c0.563,0.526,0.844,1.273,0.844,2.242v4.703c0,1.479-0.38,2.553-1.141,3.219c-0.761,0.667-1.995,1-3.703,1h-4.063V685.915z
			 M1580.234,693.853v-3.766c0-0.51-0.106-0.891-0.32-1.141s-0.534-0.375-0.961-0.375h-0.75v6.797h0.75
			c0.427,0,0.747-0.125,0.961-0.375S1580.234,694.363,1580.234,693.853z M1578.203,698.181v7.969h0.75
			c0.427,0,0.747-0.125,0.961-0.375s0.32-0.625,0.32-1.125v-5c0-0.5-0.104-0.869-0.313-1.109c-0.208-0.239-0.531-0.359-0.969-0.359
			H1578.203z"/>
		<path fill="#FFFFFF" d="M1590.234,685.915h4.063c1.708,0,2.942,0.331,3.703,0.992c0.761,0.662,1.141,1.742,1.141,3.242v3.031
			c0,0.948-0.286,1.722-0.859,2.32c-0.573,0.6-1.417,1.014-2.531,1.242v0.125c1.136,0.094,1.984,0.404,2.547,0.93
			c0.563,0.526,0.844,1.273,0.844,2.242v4.703c0,1.479-0.38,2.553-1.141,3.219c-0.761,0.667-1.995,1-3.703,1h-4.063V685.915z
			 M1595.688,693.853v-3.766c0-0.51-0.106-0.891-0.32-1.141s-0.534-0.375-0.961-0.375h-0.75v6.797h0.75
			c0.427,0,0.747-0.125,0.961-0.375S1595.688,694.363,1595.688,693.853z M1593.656,698.181v7.969h0.75
			c0.427,0,0.747-0.125,0.961-0.375s0.32-0.625,0.32-1.125v-5c0-0.5-0.104-0.869-0.313-1.109c-0.208-0.239-0.531-0.359-0.969-0.359
			H1593.656z"/>
		<path fill="#FFFFFF" d="M1600.344,705.056v-19.141h3.453v19.266c0,0.521,0.078,0.886,0.234,1.094
			c0.156,0.209,0.411,0.313,0.766,0.313s0.612-0.106,0.773-0.32c0.161-0.213,0.242-0.575,0.242-1.086v-19.266h3.438v19.141
			c0,1.448-0.378,2.547-1.133,3.297s-1.862,1.125-3.32,1.125s-2.565-0.375-3.32-1.125S1600.344,706.504,1600.344,705.056z"/>
		<path fill="#FFFFFF" d="M1616.422,708.962h-3.438v-20.063h-2.969v-2.984h9.375v2.984h-2.969V708.962z"/>
		<path fill="#FFFFFF" d="M1625.672,708.962h-3.438v-20.063h-2.969v-2.984h9.375v2.984h-2.969V708.962z"/>
		<path fill="#FFFFFF" d="M1629.375,689.853c0-1.447,0.378-2.544,1.133-3.289c0.755-0.744,1.862-1.117,3.32-1.117
			s2.565,0.373,3.32,1.117c0.755,0.745,1.133,1.842,1.133,3.289v15.203c0,1.448-0.378,2.547-1.133,3.297s-1.862,1.125-3.32,1.125
			s-2.565-0.375-3.32-1.125s-1.133-1.849-1.133-3.297V689.853z M1632.828,689.571v15.609c0,0.521,0.078,0.886,0.234,1.094
			c0.156,0.209,0.411,0.313,0.766,0.313s0.612-0.106,0.773-0.32c0.161-0.213,0.242-0.575,0.242-1.086v-15.609
			c0-0.5-0.078-0.854-0.234-1.063c-0.156-0.208-0.417-0.313-0.781-0.313c-0.354,0-0.609,0.102-0.766,0.305
			S1632.828,689.062,1632.828,689.571z"/>
		<path fill="#FFFFFF" d="M1640,708.962v-23.047h5.219l1.281,9.453c0.229,1.698,0.442,3.443,0.641,5.234
			c0.198,1.792,0.38,3.62,0.547,5.484l0.188-0.016c-0.042-1.875-0.073-3.539-0.094-4.992s-0.031-2.43-0.031-2.93l-0.094-12.234
			h2.844v23.047h-5.094l-1.656-12.734c-0.281-2.188-0.487-3.81-0.617-4.867c-0.13-1.057-0.231-1.95-0.305-2.68h-0.234
			c0.031,1.688,0.055,3.008,0.07,3.961s0.023,1.561,0.023,1.82l0.109,14.5H1640z"/>
	</g>
</g>
<g>
	<text transform="matrix(1 0 0 1 1555 674.7266)" fill="#FFFFFF" font-family="'LCARS'" font-size="32">BLOCK</text>
</g>
<g>
	<text transform="matrix(1 0 0 1 1555 643.9619)" fill="#FFFFFF" font-family="'LCARS'" font-size="32">CAP</text>
</g>
<g>
	<g>
		<path fill="#FFFFFF" d="M1561.172,734.609c0-0.51-0.075-0.867-0.227-1.07s-0.403-0.305-0.758-0.305s-0.609,0.102-0.766,0.305
			s-0.234,0.561-0.234,1.07v15.609c0,0.521,0.078,0.886,0.234,1.094c0.156,0.209,0.411,0.313,0.766,0.313s0.606-0.104,0.758-0.313
			c0.151-0.208,0.227-0.572,0.227-1.094v-5.172h3.453v5.047c0,1.448-0.375,2.547-1.125,3.297s-1.854,1.125-3.313,1.125
			c-1.469,0-2.578-0.375-3.328-1.125s-1.125-1.849-1.125-3.297v-15.203c0-1.447,0.375-2.544,1.125-3.289
			c0.75-0.744,1.859-1.117,3.328-1.117c1.458,0,2.563,0.373,3.313,1.117c0.75,0.745,1.125,1.842,1.125,3.289v4.578h-3.453V734.609z"
			/>
		<path fill="#FFFFFF" d="M1565.781,734.891c0-1.447,0.378-2.544,1.133-3.289c0.755-0.744,1.862-1.117,3.32-1.117
			s2.565,0.373,3.32,1.117c0.755,0.745,1.133,1.842,1.133,3.289v15.203c0,1.448-0.378,2.547-1.133,3.297s-1.862,1.125-3.32,1.125
			s-2.565-0.375-3.32-1.125s-1.133-1.849-1.133-3.297V734.891z M1569.234,734.609v15.609c0,0.521,0.078,0.886,0.234,1.094
			c0.156,0.209,0.411,0.313,0.766,0.313s0.612-0.106,0.773-0.32c0.161-0.213,0.242-0.575,0.242-1.086v-15.609
			c0-0.5-0.078-0.854-0.234-1.063c-0.156-0.208-0.417-0.313-0.781-0.313c-0.354,0-0.609,0.102-0.766,0.305
			S1569.234,734.1,1569.234,734.609z"/>
		<path fill="#FFFFFF" d="M1576.406,754v-23.047h5.188l1,8.672v0.141c0,0.073,0.016,0.35,0.047,0.828
			c0.156,2.417,0.266,4.859,0.328,7.328h0.188c0.042-1.416,0.104-2.791,0.188-4.125c0.083-1.333,0.192-2.646,0.328-3.938
			l0.938-8.906h5.016V754h-3.141l0.078-12v-0.313c0-0.479,0.013-1.359,0.039-2.641s0.06-2.708,0.102-4.281h-0.172
			c-0.063,1.188-0.136,2.303-0.219,3.344c-0.083,1.042-0.161,1.901-0.234,2.578L1584.547,754h-3.266
			c-0.552-4.708-0.974-8.557-1.266-11.547c-0.292-2.989-0.5-5.552-0.625-7.688h-0.188c0.011,0.761,0.036,1.761,0.078,3
			c0.052,1.99,0.078,3.115,0.078,3.375V754H1576.406z"/>
		<path fill="#FFFFFF" d="M1591.375,754v-23.047h4.063c1.688,0,2.917,0.331,3.688,0.992c0.771,0.662,1.156,1.722,1.156,3.18v5.656
			c0,1.479-0.383,2.555-1.148,3.227s-1.997,1.008-3.695,1.008h-0.641V754H1591.375z M1596.828,740.781v-5.656
			c0-0.51-0.106-0.891-0.32-1.141s-0.534-0.375-0.961-0.375h-0.75v8.672h0.75c0.427,0,0.747-0.122,0.961-0.367
			C1596.722,741.67,1596.828,741.292,1596.828,740.781z"/>
		<path fill="#FFFFFF" d="M1601.422,754v-23.047h3.422v19.875h4.172V754H1601.422z"/>
		<path fill="#FFFFFF" d="M1609.641,754v-23.047h7.594v3.141h-4.172v5.797h4.078v3.031h-4.078v7.906h4.172V754H1609.641z"/>
		<path fill="#FFFFFF" d="M1617.094,754l2.984-11.578l-2.75-11.469h3.641l0.703,3.359c0.011,0.031,0.021,0.073,0.031,0.125
			c0.375,1.667,0.63,3.516,0.766,5.547h0.141c0.125-1.229,0.269-2.313,0.43-3.25s0.347-1.797,0.555-2.578l0.859-3.203h3.203
			l-2.75,10.375l2.813,12.672h-3.609l-1.219-5.734c-0.104-0.51-0.198-1.114-0.281-1.813c-0.083-0.697-0.151-1.469-0.203-2.313
			h-0.156c-0.063,1.281-0.245,2.589-0.547,3.922c-0.011,0.042-0.021,0.078-0.031,0.109l-1.281,5.828H1617.094z"/>
		<path fill="#FFFFFF" d="M1633.516,730.953h4.063c1.708,0,2.942,0.331,3.703,0.992c0.761,0.662,1.141,1.742,1.141,3.242v3.031
			c0,0.948-0.286,1.722-0.859,2.32c-0.573,0.6-1.417,1.014-2.531,1.242v0.125c1.136,0.094,1.984,0.404,2.547,0.93
			c0.563,0.526,0.844,1.273,0.844,2.242v4.703c0,1.479-0.38,2.553-1.141,3.219c-0.761,0.667-1.995,1-3.703,1h-4.063V730.953z
			 M1638.969,738.891v-3.766c0-0.51-0.106-0.891-0.32-1.141s-0.534-0.375-0.961-0.375h-0.75v6.797h0.75
			c0.427,0,0.747-0.125,0.961-0.375S1638.969,739.401,1638.969,738.891z M1636.938,743.219v7.969h0.75
			c0.427,0,0.747-0.125,0.961-0.375s0.32-0.625,0.32-1.125v-5c0-0.5-0.104-0.869-0.313-1.109c-0.208-0.239-0.531-0.359-0.969-0.359
			H1636.938z"/>
		<path fill="#FFFFFF" d="M1643.625,750.094v-19.141h3.453v19.266c0,0.521,0.078,0.886,0.234,1.094
			c0.156,0.209,0.411,0.313,0.766,0.313s0.612-0.106,0.773-0.32c0.161-0.213,0.242-0.575,0.242-1.086v-19.266h3.438v19.141
			c0,1.448-0.378,2.547-1.133,3.297s-1.862,1.125-3.32,1.125s-2.565-0.375-3.32-1.125S1643.625,751.542,1643.625,750.094z"/>
		<path fill="#FFFFFF" d="M1659.703,754h-3.438v-20.063h-2.969v-2.984h9.375v2.984h-2.969V754z"/>
		<path fill="#FFFFFF" d="M1668.953,754h-3.438v-20.063h-2.969v-2.984h9.375v2.984h-2.969V754z"/>
		<path fill="#FFFFFF" d="M1672.656,734.891c0-1.447,0.378-2.544,1.133-3.289c0.755-0.744,1.862-1.117,3.32-1.117
			s2.565,0.373,3.32,1.117c0.755,0.745,1.133,1.842,1.133,3.289v15.203c0,1.448-0.378,2.547-1.133,3.297s-1.862,1.125-3.32,1.125
			s-2.565-0.375-3.32-1.125s-1.133-1.849-1.133-3.297V734.891z M1676.109,734.609v15.609c0,0.521,0.078,0.886,0.234,1.094
			c0.156,0.209,0.411,0.313,0.766,0.313s0.612-0.106,0.773-0.32c0.161-0.213,0.242-0.575,0.242-1.086v-15.609
			c0-0.5-0.078-0.854-0.234-1.063c-0.156-0.208-0.417-0.313-0.781-0.313c-0.354,0-0.609,0.102-0.766,0.305
			S1676.109,734.1,1676.109,734.609z"/>
		<path fill="#FFFFFF" d="M1683.281,754v-23.047h5.219l1.281,9.453c0.229,1.698,0.442,3.443,0.641,5.234
			c0.198,1.792,0.38,3.62,0.547,5.484l0.188-0.016c-0.042-1.875-0.073-3.539-0.094-4.992s-0.031-2.43-0.031-2.93l-0.094-12.234
			h2.844V754h-5.094l-1.656-12.734c-0.281-2.188-0.487-3.81-0.617-4.867c-0.13-1.057-0.231-1.95-0.305-2.68h-0.234
			c0.031,1.688,0.055,3.008,0.07,3.961s0.023,1.561,0.023,1.82l0.109,14.5H1683.281z"/>
	</g>
</g>
<g>
	<g>
		<path fill="#FFFFFF" d="M1555.484,559.853c0-1.447,0.372-2.544,1.117-3.289c0.745-0.744,1.841-1.117,3.289-1.117
			c1.469,0,2.578,0.373,3.328,1.117c0.75,0.745,1.125,1.842,1.125,3.289v4.578h-3.422v-4.859c0-0.5-0.081-0.854-0.242-1.063
			c-0.161-0.208-0.425-0.313-0.789-0.313c-0.354,0-0.606,0.102-0.758,0.305s-0.227,0.561-0.227,1.07v1.656
			c0,0.573,0.036,1.031,0.109,1.375s0.188,0.625,0.344,0.844l3.734,5.109c0.469,0.646,0.794,1.229,0.977,1.75
			c0.183,0.521,0.273,1.094,0.273,1.719v3.031c0,1.448-0.375,2.547-1.125,3.297s-1.859,1.125-3.328,1.125
			c-1.448,0-2.544-0.373-3.289-1.117s-1.117-1.846-1.117-3.305v-5.047h3.422v5.172c0,0.521,0.075,0.886,0.227,1.094
			c0.151,0.209,0.403,0.313,0.758,0.313c0.364,0,0.628-0.106,0.789-0.32c0.161-0.213,0.242-0.575,0.242-1.086v-2.391
			c0-0.313-0.047-0.614-0.141-0.906c-0.094-0.291-0.239-0.578-0.438-0.859l-3.906-5.438c-0.333-0.469-0.575-0.953-0.727-1.453
			s-0.227-1.094-0.227-1.781V559.853z"/>
		<path fill="#FFFFFF" d="M1565.656,578.962v-23.047h5.188l1,8.672v0.141c0,0.073,0.016,0.35,0.047,0.828
			c0.156,2.417,0.266,4.859,0.328,7.328h0.188c0.042-1.416,0.104-2.791,0.188-4.125c0.083-1.333,0.192-2.646,0.328-3.938
			l0.938-8.906h5.016v23.047h-3.141l0.078-12v-0.313c0-0.479,0.013-1.359,0.039-2.641s0.06-2.708,0.102-4.281h-0.172
			c-0.063,1.188-0.136,2.303-0.219,3.344c-0.083,1.042-0.161,1.901-0.234,2.578l-1.531,13.313h-3.266
			c-0.552-4.708-0.974-8.557-1.266-11.547c-0.292-2.989-0.5-5.552-0.625-7.688h-0.188c0.011,0.761,0.036,1.761,0.078,3
			c0.052,1.99,0.078,3.115,0.078,3.375v12.859H1565.656z"/>
		<path fill="#FFFFFF" d="M1579.734,578.962l2.75-23.047h5.219l2.5,23.047h-3.5l-0.703-6.203h-2.141l-0.734,6.203H1579.734z
			 M1584.156,569.774h1.594l-0.359-5.734c-0.021-0.5-0.055-1.083-0.102-1.75c-0.047-0.666-0.128-1.635-0.242-2.906h-0.156
			c-0.031,0.334-0.089,1.162-0.172,2.484c-0.063,0.917-0.114,1.656-0.156,2.219L1584.156,569.774z"/>
		<path fill="#FFFFFF" d="M1591.125,578.962v-23.047h3.422v19.875h4.172v3.172H1591.125z"/>
		<path fill="#FFFFFF" d="M1599.344,578.962v-23.047h3.422v19.875h4.172v3.172H1599.344z"/>
		<path fill="#FFFFFF" d="M1612.813,578.962v-23.047h7.594v3.141h-4.172v5.797h4.078v3.031h-4.078v7.906h4.172v3.172H1612.813z"/>
		<path fill="#FFFFFF" d="M1621.547,578.962v-23.047h3.422v19.875h4.172v3.172H1621.547z"/>
		<path fill="#FFFFFF" d="M1629.766,555.915h4.063c1.708,0,2.942,0.331,3.703,0.992c0.761,0.662,1.141,1.742,1.141,3.242v3.031
			c0,0.948-0.286,1.722-0.859,2.32c-0.573,0.6-1.417,1.014-2.531,1.242v0.125c1.136,0.094,1.984,0.404,2.547,0.93
			c0.563,0.526,0.844,1.273,0.844,2.242v4.703c0,1.479-0.38,2.553-1.141,3.219c-0.761,0.667-1.995,1-3.703,1h-4.063V555.915z
			 M1635.219,563.853v-3.766c0-0.51-0.106-0.891-0.32-1.141s-0.534-0.375-0.961-0.375h-0.75v6.797h0.75
			c0.427,0,0.747-0.125,0.961-0.375S1635.219,564.363,1635.219,563.853z M1633.188,568.181v7.969h0.75
			c0.427,0,0.747-0.125,0.961-0.375s0.32-0.625,0.32-1.125v-5c0-0.5-0.104-0.869-0.313-1.109c-0.208-0.239-0.531-0.359-0.969-0.359
			H1633.188z"/>
		<path fill="#FFFFFF" d="M1640.469,559.853c0-1.447,0.378-2.544,1.133-3.289c0.755-0.744,1.862-1.117,3.32-1.117
			s2.565,0.373,3.32,1.117c0.755,0.745,1.133,1.842,1.133,3.289v15.203c0,1.448-0.378,2.547-1.133,3.297s-1.862,1.125-3.32,1.125
			s-2.565-0.375-3.32-1.125s-1.133-1.849-1.133-3.297V559.853z M1643.922,559.571v15.609c0,0.521,0.078,0.886,0.234,1.094
			c0.156,0.209,0.411,0.313,0.766,0.313s0.612-0.106,0.773-0.32c0.161-0.213,0.242-0.575,0.242-1.086v-15.609
			c0-0.5-0.078-0.854-0.234-1.063c-0.156-0.208-0.417-0.313-0.781-0.313c-0.354,0-0.609,0.102-0.766,0.305
			S1643.922,559.062,1643.922,559.571z"/>
		<path fill="#FFFFFF" d="M1651.938,578.962c-0.031-1.052-0.097-2.283-0.195-3.695c-0.099-1.411-0.237-3.133-0.414-5.164
			l-1.344-14.188h3.391l0.641,8.172c0.073,1.115,0.144,2.412,0.211,3.891c0.067,1.479,0.128,3.125,0.18,4.938h0.203
			c0.083-2.291,0.156-4.172,0.219-5.641s0.109-2.338,0.141-2.609l0.828-8.75h3.719l0.703,9.25c0.042,0.511,0.081,1.472,0.117,2.883
			c0.036,1.412,0.065,3.034,0.086,4.867h0.203c0.083-2.364,0.161-4.211,0.234-5.539s0.156-2.424,0.25-3.289l0.844-8.172h2.719
			l-2.25,23.047h-3.766l-1.031-13.859c-0.031-0.521-0.055-1.023-0.07-1.508s-0.023-0.961-0.023-1.43v-0.938h-0.156
			c-0.104,1.834-0.273,4.308-0.508,7.422c-0.234,3.115-0.513,6.553-0.836,10.313H1651.938z"/>
	</g>
</g>
<g>
	<text transform="matrix(1 0 0 1 1555 463.2949)" fill="#FFFFFF" font-family="'LCARS'" font-size="32">BARS</text>
</g>
<g>
	<g>
		<path fill="#FFFFFF" d="M1555.891,296.953h4.063c1.708,0,2.942,0.331,3.703,0.992c0.761,0.662,1.141,1.742,1.141,3.242v3.031
			c0,0.948-0.286,1.722-0.859,2.32c-0.573,0.6-1.417,1.014-2.531,1.242v0.125c1.136,0.094,1.984,0.404,2.547,0.93
			c0.563,0.526,0.844,1.273,0.844,2.242v4.703c0,1.479-0.38,2.553-1.141,3.219c-0.761,0.667-1.995,1-3.703,1h-4.063V296.953z
			 M1561.344,304.89v-3.766c0-0.51-0.106-0.891-0.32-1.141s-0.534-0.375-0.961-0.375h-0.75v6.797h0.75
			c0.427,0,0.747-0.125,0.961-0.375S1561.344,305.401,1561.344,304.89z M1559.313,309.218v7.969h0.75
			c0.427,0,0.747-0.125,0.961-0.375s0.32-0.625,0.32-1.125v-5c0-0.5-0.104-0.869-0.313-1.109c-0.208-0.239-0.531-0.359-0.969-0.359
			H1559.313z"/>
		<path fill="#FFFFFF" d="M1566.094,296.953h4.063c1.708,0,2.942,0.331,3.703,0.992c0.761,0.662,1.141,1.742,1.141,3.242v2.688
			c0,1.188-0.263,2.086-0.789,2.695s-1.394,1.014-2.602,1.211v0.125c1.136,0.021,1.984,0.295,2.547,0.82
			c0.563,0.526,0.844,1.311,0.844,2.352v4.703c0,1.031,0.05,1.889,0.148,2.57c0.099,0.683,0.253,1.232,0.461,1.648h-3.625
			c-0.156-0.364-0.269-0.805-0.336-1.32s-0.102-1.164-0.102-1.945v-1.016v-5.031c0-0.489-0.153-0.852-0.461-1.086
			s-0.784-0.352-1.43-0.352h-0.141V320h-3.422V296.953z M1571.547,304.89v-3.766c0-0.51-0.106-0.891-0.32-1.141
			s-0.534-0.375-0.961-0.375h-0.75v6.797h0.75c0.427,0,0.747-0.125,0.961-0.375S1571.547,305.401,1571.547,304.89z"/>
		<path fill="#FFFFFF" d="M1576.141,320l2.75-23.047h5.219l2.5,23.047h-3.5l-0.703-6.203h-2.141l-0.734,6.203H1576.141z
			 M1580.563,310.812h1.594l-0.359-5.734c-0.021-0.5-0.055-1.083-0.102-1.75c-0.047-0.666-0.128-1.635-0.242-2.906h-0.156
			c-0.031,0.334-0.089,1.162-0.172,2.484c-0.063,0.917-0.114,1.656-0.156,2.219L1580.563,310.812z"/>
		<path fill="#FFFFFF" d="M1593.406,300.609c0-0.51-0.075-0.867-0.227-1.07s-0.403-0.305-0.758-0.305s-0.609,0.102-0.766,0.305
			s-0.234,0.561-0.234,1.07v15.609c0,0.521,0.078,0.886,0.234,1.094c0.156,0.209,0.411,0.313,0.766,0.313s0.606-0.104,0.758-0.313
			c0.151-0.208,0.227-0.572,0.227-1.094v-5.172h3.453v5.047c0,1.448-0.375,2.547-1.125,3.297s-1.854,1.125-3.313,1.125
			c-1.469,0-2.578-0.375-3.328-1.125s-1.125-1.849-1.125-3.297V300.89c0-1.447,0.375-2.544,1.125-3.289
			c0.75-0.744,1.859-1.117,3.328-1.117c1.458,0,2.563,0.373,3.313,1.117c0.75,0.745,1.125,1.842,1.125,3.289v4.578h-3.453V300.609z"
			/>
		<path fill="#FFFFFF" d="M1598.109,320v-23.047h3.422v10.219h0.141l2.656-10.219h3.328l-2.828,10.531l2.828,12.516h-3.625
			l-2.359-11.609h-0.141V320H1598.109z"/>
		<path fill="#FFFFFF" d="M1608.188,320v-23.047h7.594v3.141h-4.172v5.797h4.078v3.031h-4.078v7.906h4.172V320H1608.188z"/>
		<path fill="#FFFFFF" d="M1622.375,320h-3.438v-20.063h-2.969v-2.984h9.375v2.984h-2.969V320z"/>
	</g>
</g>
<rect x="1406.667" y="25.626" fill="#2F87C8" width="143.499" height="2"/>
<rect x="1406.917" y="746" fill="#2F87C8" width="143.083" height="2"/>
<rect x="1292" y="687" fill="#2F87C8" width="258" height="2"/>
<rect x="1408.584" y="566.334" fill="#2F87C8" width="141.416" height="2"/>
<rect x="1403.834" y="451.334" fill="#2F87C8" width="146.166" height="2"/>
<g>
	<text transform="matrix(1 0 0 1 1554.166 232.9604)" fill="#FFFFFF" font-family="'LCARS'" font-size="32">BARS</text>
</g>
<g>
	<g>
		<path fill="#FFFFFF" d="M244.473,65.664h4.063c1.708,0,2.942,0.331,3.703,0.992c0.761,0.662,1.141,1.742,1.141,3.242v3.031
			c0,0.948-0.286,1.722-0.859,2.32c-0.573,0.6-1.417,1.014-2.531,1.242v0.125c1.136,0.094,1.984,0.404,2.547,0.93
			c0.563,0.526,0.844,1.273,0.844,2.242v4.703c0,1.479-0.38,2.553-1.141,3.219c-0.761,0.667-1.995,1-3.703,1h-4.063V65.664z
			 M249.926,73.601v-3.766c0-0.51-0.106-0.891-0.32-1.141s-0.534-0.375-0.961-0.375h-0.75v6.797h0.75
			c0.427,0,0.747-0.125,0.961-0.375S249.926,74.112,249.926,73.601z M247.895,77.929v7.969h0.75c0.427,0,0.747-0.125,0.961-0.375
			s0.32-0.625,0.32-1.125v-5c0-0.5-0.104-0.869-0.313-1.109c-0.208-0.239-0.531-0.359-0.969-0.359H247.895z"/>
		<path fill="#FFFFFF" d="M254.583,84.804V65.664h3.453v19.266c0,0.521,0.078,0.886,0.234,1.094
			c0.156,0.209,0.411,0.313,0.766,0.313s0.612-0.106,0.773-0.32c0.161-0.213,0.242-0.575,0.242-1.086V65.664h3.438v19.141
			c0,1.448-0.378,2.547-1.133,3.297s-1.862,1.125-3.32,1.125s-2.565-0.375-3.32-1.125S254.583,86.252,254.583,84.804z"/>
		<path fill="#FFFFFF" d="M270.661,88.71h-3.438V68.648h-2.969v-2.984h9.375v2.984h-2.969V88.71z"/>
		<path fill="#FFFFFF" d="M279.911,88.71h-3.438V68.648h-2.969v-2.984h9.375v2.984h-2.969V88.71z"/>
		<path fill="#FFFFFF" d="M283.614,69.601c0-1.447,0.378-2.544,1.133-3.289c0.755-0.744,1.862-1.117,3.32-1.117
			s2.565,0.373,3.32,1.117c0.755,0.745,1.133,1.842,1.133,3.289v15.203c0,1.448-0.378,2.547-1.133,3.297s-1.862,1.125-3.32,1.125
			s-2.565-0.375-3.32-1.125s-1.133-1.849-1.133-3.297V69.601z M287.067,69.32v15.609c0,0.521,0.078,0.886,0.234,1.094
			c0.156,0.209,0.411,0.313,0.766,0.313s0.612-0.106,0.773-0.32c0.161-0.213,0.242-0.575,0.242-1.086V69.32
			c0-0.5-0.078-0.854-0.234-1.063c-0.156-0.208-0.417-0.313-0.781-0.313c-0.354,0-0.609,0.102-0.766,0.305
			S287.067,68.81,287.067,69.32z"/>
		<path fill="#FFFFFF" d="M294.239,88.71V65.664h5.219l1.281,9.453c0.229,1.698,0.442,3.443,0.641,5.234
			c0.198,1.792,0.38,3.62,0.547,5.484l0.188-0.016c-0.042-1.875-0.073-3.539-0.094-4.992s-0.031-2.43-0.031-2.93l-0.094-12.234
			h2.844V88.71h-5.094l-1.656-12.734c-0.281-2.188-0.487-3.81-0.617-4.867c-0.13-1.057-0.231-1.95-0.305-2.68h-0.234
			c0.031,1.688,0.055,3.008,0.07,3.961s0.023,1.561,0.023,1.82l0.109,14.5H294.239z"/>
	</g>
</g>
<g>
	<g>
		<path fill="#FFFFFF" d="M142.223,166.664h4.063c1.708,0,2.942,0.331,3.703,0.992c0.761,0.662,1.141,1.742,1.141,3.242v3.031
			c0,0.948-0.286,1.722-0.859,2.32c-0.573,0.6-1.417,1.014-2.531,1.242v0.125c1.136,0.094,1.984,0.404,2.547,0.93
			c0.563,0.526,0.844,1.273,0.844,2.242v4.703c0,1.479-0.38,2.553-1.141,3.219c-0.761,0.667-1.995,1-3.703,1h-4.063V166.664z
			 M147.676,174.601v-3.766c0-0.51-0.106-0.891-0.32-1.141s-0.534-0.375-0.961-0.375h-0.75v6.797h0.75
			c0.427,0,0.747-0.125,0.961-0.375S147.676,175.112,147.676,174.601z M145.645,178.929v7.969h0.75c0.427,0,0.747-0.125,0.961-0.375
			s0.32-0.625,0.32-1.125v-5c0-0.5-0.104-0.869-0.313-1.109c-0.208-0.239-0.531-0.359-0.969-0.359H145.645z"/>
		<path fill="#FFFFFF" d="M152.926,170.601c0-1.447,0.378-2.544,1.133-3.289c0.755-0.744,1.862-1.117,3.32-1.117
			s2.565,0.373,3.32,1.117c0.755,0.745,1.133,1.842,1.133,3.289v15.203c0,1.448-0.378,2.547-1.133,3.297s-1.862,1.125-3.32,1.125
			s-2.565-0.375-3.32-1.125s-1.133-1.849-1.133-3.297V170.601z M156.379,170.32v15.609c0,0.521,0.078,0.886,0.234,1.094
			c0.156,0.209,0.411,0.313,0.766,0.313s0.612-0.106,0.773-0.32c0.161-0.213,0.242-0.575,0.242-1.086V170.32
			c0-0.5-0.078-0.854-0.234-1.063c-0.156-0.208-0.417-0.313-0.781-0.313c-0.354,0-0.609,0.102-0.766,0.305
			S156.379,169.81,156.379,170.32z"/>
		<path fill="#FFFFFF" d="M169.004,189.71h-3.438v-20.063h-2.969v-2.984h9.375v2.984h-2.969V189.71z"/>
		<path fill="#FFFFFF" d="M178.254,189.71h-3.438v-20.063h-2.969v-2.984h9.375v2.984h-2.969V189.71z"/>
		<path fill="#FFFFFF" d="M181.958,170.601c0-1.447,0.378-2.544,1.133-3.289c0.755-0.744,1.862-1.117,3.32-1.117
			s2.565,0.373,3.32,1.117c0.755,0.745,1.133,1.842,1.133,3.289v15.203c0,1.448-0.378,2.547-1.133,3.297s-1.862,1.125-3.32,1.125
			s-2.565-0.375-3.32-1.125s-1.133-1.849-1.133-3.297V170.601z M185.411,170.32v15.609c0,0.521,0.078,0.886,0.234,1.094
			c0.156,0.209,0.411,0.313,0.766,0.313s0.612-0.106,0.773-0.32c0.161-0.213,0.242-0.575,0.242-1.086V170.32
			c0-0.5-0.078-0.854-0.234-1.063c-0.156-0.208-0.417-0.313-0.781-0.313c-0.354,0-0.609,0.102-0.766,0.305
			S185.411,169.81,185.411,170.32z"/>
		<path fill="#FFFFFF" d="M192.583,189.71v-23.047h5.188l1,8.672v0.141c0,0.073,0.016,0.35,0.047,0.828
			c0.156,2.417,0.266,4.859,0.328,7.328h0.188c0.042-1.416,0.104-2.791,0.188-4.125c0.083-1.333,0.192-2.646,0.328-3.938
			l0.938-8.906h5.016v23.047h-3.141l0.078-12v-0.313c0-0.479,0.013-1.359,0.039-2.641s0.06-2.708,0.102-4.281h-0.172
			c-0.063,1.188-0.136,2.303-0.219,3.344c-0.083,1.042-0.161,1.901-0.234,2.578l-1.531,13.313h-3.266
			c-0.552-4.708-0.974-8.557-1.266-11.547c-0.292-2.989-0.5-5.552-0.625-7.688h-0.188c0.011,0.761,0.036,1.761,0.078,3
			c0.052,1.99,0.078,3.115,0.078,3.375v12.859H192.583z"/>
		<path fill="#FFFFFF" d="M212.801,189.71v-23.047h3.422v19.875h4.172v3.172H212.801z"/>
		<path fill="#FFFFFF" d="M221.02,189.71v-23.047h7.594v3.141h-4.172v5.797h4.078v3.031h-4.078v7.906h4.172v3.172H221.02z"/>
		<path fill="#FFFFFF" d="M229.754,189.71v-23.047h7.594v3.141h-4.172v5.797h4.078v3.031h-4.078v11.078H229.754z"/>
		<path fill="#FFFFFF" d="M243.598,189.71h-3.438v-20.063h-2.969v-2.984h9.375v2.984h-2.969V189.71z"/>
		<path fill="#FFFFFF" d="M252.645,189.71v-23.047h7.594v3.141h-4.172v5.797h4.078v3.031h-4.078v7.906h4.172v3.172H252.645z"/>
		<path fill="#FFFFFF" d="M261.379,189.71v-23.047h3.422v19.875h4.172v3.172H261.379z"/>
		<path fill="#FFFFFF" d="M269.598,166.664h4.063c1.708,0,2.942,0.331,3.703,0.992c0.761,0.662,1.141,1.742,1.141,3.242v3.031
			c0,0.948-0.286,1.722-0.859,2.32c-0.573,0.6-1.417,1.014-2.531,1.242v0.125c1.136,0.094,1.984,0.404,2.547,0.93
			c0.563,0.526,0.844,1.273,0.844,2.242v4.703c0,1.479-0.38,2.553-1.141,3.219c-0.761,0.667-1.995,1-3.703,1h-4.063V166.664z
			 M275.051,174.601v-3.766c0-0.51-0.106-0.891-0.32-1.141s-0.534-0.375-0.961-0.375h-0.75v6.797h0.75
			c0.427,0,0.747-0.125,0.961-0.375S275.051,175.112,275.051,174.601z M273.02,178.929v7.969h0.75c0.427,0,0.747-0.125,0.961-0.375
			s0.32-0.625,0.32-1.125v-5c0-0.5-0.104-0.869-0.313-1.109c-0.208-0.239-0.531-0.359-0.969-0.359H273.02z"/>
		<path fill="#FFFFFF" d="M280.301,170.601c0-1.447,0.378-2.544,1.133-3.289c0.755-0.744,1.862-1.117,3.32-1.117
			s2.565,0.373,3.32,1.117c0.755,0.745,1.133,1.842,1.133,3.289v15.203c0,1.448-0.378,2.547-1.133,3.297s-1.862,1.125-3.32,1.125
			s-2.565-0.375-3.32-1.125s-1.133-1.849-1.133-3.297V170.601z M283.754,170.32v15.609c0,0.521,0.078,0.886,0.234,1.094
			c0.156,0.209,0.411,0.313,0.766,0.313s0.612-0.106,0.773-0.32c0.161-0.213,0.242-0.575,0.242-1.086V170.32
			c0-0.5-0.078-0.854-0.234-1.063c-0.156-0.208-0.417-0.313-0.781-0.313c-0.354,0-0.609,0.102-0.766,0.305
			S283.754,169.81,283.754,170.32z"/>
		<path fill="#FFFFFF" d="M291.77,189.71c-0.031-1.052-0.097-2.283-0.195-3.695c-0.099-1.411-0.237-3.133-0.414-5.164l-1.344-14.188
			h3.391l0.641,8.172c0.073,1.115,0.144,2.412,0.211,3.891c0.067,1.479,0.128,3.125,0.18,4.938h0.203
			c0.083-2.291,0.156-4.172,0.219-5.641s0.109-2.338,0.141-2.609l0.828-8.75h3.719l0.703,9.25c0.042,0.511,0.081,1.472,0.117,2.883
			c0.036,1.412,0.065,3.034,0.086,4.867h0.203c0.083-2.364,0.161-4.211,0.234-5.539s0.156-2.424,0.25-3.289l0.844-8.172h2.719
			l-2.25,23.047h-3.766l-1.031-13.859c-0.031-0.521-0.055-1.023-0.07-1.508s-0.023-0.961-0.023-1.43v-0.938h-0.156
			c-0.104,1.834-0.273,4.308-0.508,7.422c-0.234,3.115-0.513,6.553-0.836,10.313H291.77z"/>
	</g>
</g>
<g>
	<g>
		<path fill="#FFFFFF" d="M183.938,283.377H180.5v-20.063h-2.969v-2.984h9.375v2.984h-2.969V283.377z"/>
		<path fill="#FFFFFF" d="M187.641,264.268c0-1.447,0.378-2.544,1.133-3.289c0.755-0.744,1.862-1.117,3.32-1.117
			s2.565,0.373,3.32,1.117c0.755,0.745,1.133,1.842,1.133,3.289v15.203c0,1.448-0.378,2.547-1.133,3.297s-1.862,1.125-3.32,1.125
			s-2.565-0.375-3.32-1.125s-1.133-1.849-1.133-3.297V264.268z M191.094,263.987v15.609c0,0.521,0.078,0.886,0.234,1.094
			c0.156,0.209,0.411,0.313,0.766,0.313s0.612-0.106,0.773-0.32c0.161-0.213,0.242-0.575,0.242-1.086v-15.609
			c0-0.5-0.078-0.854-0.234-1.063c-0.156-0.208-0.417-0.313-0.781-0.313c-0.354,0-0.609,0.102-0.766,0.305
			S191.094,263.477,191.094,263.987z"/>
		<path fill="#FFFFFF" d="M198.266,283.377v-23.047h4.063c1.688,0,2.917,0.331,3.688,0.992c0.771,0.662,1.156,1.722,1.156,3.18
			v5.656c0,1.479-0.383,2.555-1.148,3.227s-1.997,1.008-3.695,1.008h-0.641v8.984H198.266z M203.719,270.159v-5.656
			c0-0.51-0.106-0.891-0.32-1.141s-0.534-0.375-0.961-0.375h-0.75v8.672h0.75c0.427,0,0.747-0.122,0.961-0.367
			C203.612,271.047,203.719,270.669,203.719,270.159z"/>
		<path fill="#FFFFFF" d="M213.563,283.377v-23.047h3.422v19.875h4.172v3.172H213.563z"/>
		<path fill="#FFFFFF" d="M221.781,283.377v-23.047h7.594v3.141h-4.172v5.797h4.078v3.031h-4.078v7.906h4.172v3.172H221.781z"/>
		<path fill="#FFFFFF" d="M230.516,283.377v-23.047h7.594v3.141h-4.172v5.797h4.078v3.031h-4.078v11.078H230.516z"/>
		<path fill="#FFFFFF" d="M244.359,283.377h-3.438v-20.063h-2.969v-2.984h9.375v2.984h-2.969V283.377z"/>
		<path fill="#FFFFFF" d="M253.406,283.377v-23.047H261v3.141h-4.172v5.797h4.078v3.031h-4.078v7.906H261v3.172H253.406z"/>
		<path fill="#FFFFFF" d="M262.141,283.377v-23.047h3.422v19.875h4.172v3.172H262.141z"/>
		<path fill="#FFFFFF" d="M270.359,260.331h4.063c1.708,0,2.942,0.331,3.703,0.992c0.761,0.662,1.141,1.742,1.141,3.242v3.031
			c0,0.948-0.286,1.722-0.859,2.32c-0.573,0.6-1.417,1.014-2.531,1.242v0.125c1.136,0.094,1.984,0.404,2.547,0.93
			c0.563,0.526,0.844,1.273,0.844,2.242v4.703c0,1.479-0.38,2.553-1.141,3.219c-0.761,0.667-1.995,1-3.703,1h-4.063V260.331z
			 M275.813,268.268v-3.766c0-0.51-0.106-0.891-0.32-1.141s-0.534-0.375-0.961-0.375h-0.75v6.797h0.75
			c0.427,0,0.747-0.125,0.961-0.375S275.813,268.779,275.813,268.268z M273.781,272.596v7.969h0.75c0.427,0,0.747-0.125,0.961-0.375
			s0.32-0.625,0.32-1.125v-5c0-0.5-0.104-0.869-0.313-1.109c-0.208-0.239-0.531-0.359-0.969-0.359H273.781z"/>
		<path fill="#FFFFFF" d="M281.063,264.268c0-1.447,0.378-2.544,1.133-3.289c0.755-0.744,1.862-1.117,3.32-1.117
			s2.565,0.373,3.32,1.117c0.755,0.745,1.133,1.842,1.133,3.289v15.203c0,1.448-0.378,2.547-1.133,3.297s-1.862,1.125-3.32,1.125
			s-2.565-0.375-3.32-1.125s-1.133-1.849-1.133-3.297V264.268z M284.516,263.987v15.609c0,0.521,0.078,0.886,0.234,1.094
			c0.156,0.209,0.411,0.313,0.766,0.313s0.612-0.106,0.773-0.32c0.161-0.213,0.242-0.575,0.242-1.086v-15.609
			c0-0.5-0.078-0.854-0.234-1.063c-0.156-0.208-0.417-0.313-0.781-0.313c-0.354,0-0.609,0.102-0.766,0.305
			S284.516,263.477,284.516,263.987z"/>
		<path fill="#FFFFFF" d="M292.531,283.377c-0.031-1.052-0.097-2.283-0.195-3.695c-0.099-1.411-0.237-3.133-0.414-5.164
			l-1.344-14.188h3.391l0.641,8.172c0.073,1.115,0.144,2.412,0.211,3.891c0.067,1.479,0.128,3.125,0.18,4.938h0.203
			c0.083-2.291,0.156-4.172,0.219-5.641s0.109-2.338,0.141-2.609l0.828-8.75h3.719l0.703,9.25c0.042,0.511,0.081,1.472,0.117,2.883
			c0.036,1.412,0.065,3.034,0.086,4.867h0.203c0.083-2.364,0.161-4.211,0.234-5.539s0.156-2.424,0.25-3.289l0.844-8.172h2.719
			l-2.25,23.047h-3.766l-1.031-13.859c-0.031-0.521-0.055-1.023-0.07-1.508s-0.023-0.961-0.023-1.43v-0.938h-0.156
			c-0.104,1.834-0.273,4.308-0.508,7.422c-0.234,3.115-0.513,6.553-0.836,10.313H292.531z"/>
	</g>
</g>
<g>
	<g>
		<path fill="#FFFFFF" d="M89.906,775.002v-23.047h5.219l1.281,9.453c0.229,1.698,0.442,3.443,0.641,5.234
			c0.198,1.792,0.38,3.62,0.547,5.484l0.188-0.016c-0.042-1.875-0.073-3.539-0.094-4.992s-0.031-2.43-0.031-2.93l-0.094-12.234
			h2.844v23.047h-5.094l-1.656-12.734c-0.281-2.188-0.487-3.81-0.617-4.867c-0.13-1.057-0.231-1.95-0.305-2.68H92.5
			c0.031,1.688,0.055,3.008,0.07,3.961s0.023,1.561,0.023,1.82l0.109,14.5H89.906z"/>
		<path fill="#FFFFFF" d="M102.094,771.096v-19.141h3.453v19.266c0,0.521,0.078,0.886,0.234,1.094
			c0.156,0.209,0.411,0.313,0.766,0.313s0.612-0.106,0.773-0.32c0.161-0.213,0.242-0.575,0.242-1.086v-19.266H111v19.141
			c0,1.448-0.378,2.547-1.133,3.297s-1.862,1.125-3.32,1.125s-2.565-0.375-3.32-1.125S102.094,772.544,102.094,771.096z"/>
		<path fill="#FFFFFF" d="M112.719,775.002v-23.047h5.188l1,8.672v0.141c0,0.073,0.016,0.35,0.047,0.828
			c0.156,2.417,0.266,4.859,0.328,7.328h0.188c0.042-1.416,0.104-2.791,0.188-4.125c0.083-1.333,0.192-2.646,0.328-3.938
			l0.938-8.906h5.016v23.047h-3.141l0.078-12v-0.313c0-0.479,0.013-1.359,0.039-2.641s0.06-2.708,0.102-4.281h-0.172
			c-0.063,1.188-0.136,2.303-0.219,3.344c-0.083,1.042-0.161,1.901-0.234,2.578l-1.531,13.313h-3.266
			c-0.552-4.708-0.974-8.557-1.266-11.547c-0.292-2.989-0.5-5.552-0.625-7.688h-0.188c0.011,0.761,0.036,1.761,0.078,3
			c0.052,1.99,0.078,3.115,0.078,3.375v12.859H112.719z"/>
		<path fill="#FFFFFF" d="M127.688,775.002v-23.047h7.594v3.141h-4.172v5.797h4.078v3.031h-4.078v7.906h4.172v3.172H127.688z"/>
		<path fill="#FFFFFF" d="M136.422,751.955h4.063c1.708,0,2.942,0.331,3.703,0.992c0.761,0.662,1.141,1.742,1.141,3.242v2.688
			c0,1.188-0.263,2.086-0.789,2.695s-1.394,1.014-2.602,1.211v0.125c1.136,0.021,1.984,0.295,2.547,0.82
			c0.563,0.526,0.844,1.311,0.844,2.352v4.703c0,1.031,0.05,1.889,0.148,2.57c0.099,0.683,0.253,1.232,0.461,1.648h-3.625
			c-0.156-0.364-0.269-0.805-0.336-1.32s-0.102-1.164-0.102-1.945v-1.016v-5.031c0-0.489-0.153-0.852-0.461-1.086
			s-0.784-0.352-1.43-0.352h-0.141v10.75h-3.422V751.955z M141.875,759.893v-3.766c0-0.51-0.106-0.891-0.32-1.141
			s-0.534-0.375-0.961-0.375h-0.75v6.797h0.75c0.427,0,0.747-0.125,0.961-0.375S141.875,760.403,141.875,759.893z"/>
		<path fill="#FFFFFF" d="M150.188,775.002h-3.422v-23.047h3.422V775.002z"/>
		<path fill="#FFFFFF" d="M157.266,755.611c0-0.51-0.075-0.867-0.227-1.07s-0.403-0.305-0.758-0.305s-0.609,0.102-0.766,0.305
			s-0.234,0.561-0.234,1.07v15.609c0,0.521,0.078,0.886,0.234,1.094c0.156,0.209,0.411,0.313,0.766,0.313s0.606-0.104,0.758-0.313
			c0.151-0.208,0.227-0.572,0.227-1.094v-5.172h3.453v5.047c0,1.448-0.375,2.547-1.125,3.297s-1.854,1.125-3.313,1.125
			c-1.469,0-2.578-0.375-3.328-1.125s-1.125-1.849-1.125-3.297v-15.203c0-1.447,0.375-2.544,1.125-3.289
			c0.75-0.744,1.859-1.117,3.328-1.117c1.458,0,2.563,0.373,3.313,1.117c0.75,0.745,1.125,1.842,1.125,3.289v4.578h-3.453V755.611z"
			/>
		<path fill="#FFFFFF" d="M172.5,755.611c0-0.51-0.075-0.867-0.227-1.07s-0.403-0.305-0.758-0.305s-0.609,0.102-0.766,0.305
			s-0.234,0.561-0.234,1.07v15.609c0,0.521,0.078,0.886,0.234,1.094c0.156,0.209,0.411,0.313,0.766,0.313s0.606-0.104,0.758-0.313
			c0.151-0.208,0.227-0.572,0.227-1.094v-5.172h3.453v5.047c0,1.448-0.375,2.547-1.125,3.297s-1.854,1.125-3.313,1.125
			c-1.469,0-2.578-0.375-3.328-1.125s-1.125-1.849-1.125-3.297v-15.203c0-1.447,0.375-2.544,1.125-3.289
			c0.75-0.744,1.859-1.117,3.328-1.117c1.458,0,2.563,0.373,3.313,1.117c0.75,0.745,1.125,1.842,1.125,3.289v4.578H172.5V755.611z"
			/>
		<path fill="#FFFFFF" d="M177.109,755.893c0-1.447,0.378-2.544,1.133-3.289c0.755-0.744,1.862-1.117,3.32-1.117
			s2.565,0.373,3.32,1.117c0.755,0.745,1.133,1.842,1.133,3.289v15.203c0,1.448-0.378,2.547-1.133,3.297s-1.862,1.125-3.32,1.125
			s-2.565-0.375-3.32-1.125s-1.133-1.849-1.133-3.297V755.893z M180.563,755.611v15.609c0,0.521,0.078,0.886,0.234,1.094
			c0.156,0.209,0.411,0.313,0.766,0.313s0.612-0.106,0.773-0.32c0.161-0.213,0.242-0.575,0.242-1.086v-15.609
			c0-0.5-0.078-0.854-0.234-1.063c-0.156-0.208-0.417-0.313-0.781-0.313c-0.354,0-0.609,0.102-0.766,0.305
			S180.563,755.102,180.563,755.611z"/>
		<path fill="#FFFFFF" d="M187.734,775.002v-23.047h5.188l1,8.672v0.141c0,0.073,0.016,0.35,0.047,0.828
			c0.156,2.417,0.266,4.859,0.328,7.328h0.188c0.042-1.416,0.104-2.791,0.188-4.125c0.083-1.333,0.192-2.646,0.328-3.938
			l0.938-8.906h5.016v23.047h-3.141l0.078-12v-0.313c0-0.479,0.013-1.359,0.039-2.641s0.06-2.708,0.102-4.281h-0.172
			c-0.063,1.188-0.136,2.303-0.219,3.344c-0.083,1.042-0.161,1.901-0.234,2.578l-1.531,13.313h-3.266
			c-0.552-4.708-0.974-8.557-1.266-11.547c-0.292-2.989-0.5-5.552-0.625-7.688h-0.188c0.011,0.761,0.036,1.761,0.078,3
			c0.052,1.99,0.078,3.115,0.078,3.375v12.859H187.734z"/>
		<path fill="#FFFFFF" d="M202.703,775.002v-23.047h4.063c1.688,0,2.917,0.331,3.688,0.992c0.771,0.662,1.156,1.722,1.156,3.18
			v5.656c0,1.479-0.383,2.555-1.148,3.227s-1.997,1.008-3.695,1.008h-0.641v8.984H202.703z M208.156,761.783v-5.656
			c0-0.51-0.106-0.891-0.32-1.141s-0.534-0.375-0.961-0.375h-0.75v8.672h0.75c0.427,0,0.747-0.122,0.961-0.367
			C208.05,762.672,208.156,762.294,208.156,761.783z"/>
		<path fill="#FFFFFF" d="M212.75,775.002v-23.047h3.422v19.875h4.172v3.172H212.75z"/>
		<path fill="#FFFFFF" d="M220.969,775.002v-23.047h7.594v3.141h-4.172v5.797h4.078v3.031h-4.078v7.906h4.172v3.172H220.969z"/>
		<path fill="#FFFFFF" d="M228.422,775.002l2.984-11.578l-2.75-11.469h3.641l0.703,3.359c0.011,0.031,0.021,0.073,0.031,0.125
			c0.375,1.667,0.63,3.516,0.766,5.547h0.141c0.125-1.229,0.269-2.313,0.43-3.25s0.347-1.797,0.555-2.578l0.859-3.203h3.203
			l-2.75,10.375l2.813,12.672h-3.609l-1.219-5.734c-0.104-0.51-0.198-1.114-0.281-1.813c-0.083-0.697-0.151-1.469-0.203-2.313
			h-0.156c-0.063,1.281-0.245,2.589-0.547,3.922c-0.011,0.042-0.021,0.078-0.031,0.109l-1.281,5.828H228.422z"/>
		<path fill="#FFFFFF" d="M244.844,751.955h4.063c1.708,0,2.942,0.331,3.703,0.992c0.761,0.662,1.141,1.742,1.141,3.242v3.031
			c0,0.948-0.286,1.722-0.859,2.32c-0.573,0.6-1.417,1.014-2.531,1.242v0.125c1.136,0.094,1.984,0.404,2.547,0.93
			c0.563,0.526,0.844,1.273,0.844,2.242v4.703c0,1.479-0.38,2.553-1.141,3.219c-0.761,0.667-1.995,1-3.703,1h-4.063V751.955z
			 M250.297,759.893v-3.766c0-0.51-0.106-0.891-0.32-1.141s-0.534-0.375-0.961-0.375h-0.75v6.797h0.75
			c0.427,0,0.747-0.125,0.961-0.375S250.297,760.403,250.297,759.893z M248.266,764.221v7.969h0.75c0.427,0,0.747-0.125,0.961-0.375
			s0.32-0.625,0.32-1.125v-5c0-0.5-0.104-0.869-0.313-1.109c-0.208-0.239-0.531-0.359-0.969-0.359H248.266z"/>
		<path fill="#FFFFFF" d="M254.953,771.096v-19.141h3.453v19.266c0,0.521,0.078,0.886,0.234,1.094
			c0.156,0.209,0.411,0.313,0.766,0.313s0.612-0.106,0.773-0.32c0.161-0.213,0.242-0.575,0.242-1.086v-19.266h3.438v19.141
			c0,1.448-0.378,2.547-1.133,3.297s-1.862,1.125-3.32,1.125s-2.565-0.375-3.32-1.125S254.953,772.544,254.953,771.096z"/>
		<path fill="#FFFFFF" d="M271.031,775.002h-3.438v-20.063h-2.969v-2.984H274v2.984h-2.969V775.002z"/>
		<path fill="#FFFFFF" d="M280.281,775.002h-3.438v-20.063h-2.969v-2.984h9.375v2.984h-2.969V775.002z"/>
		<path fill="#FFFFFF" d="M283.984,755.893c0-1.447,0.378-2.544,1.133-3.289c0.755-0.744,1.862-1.117,3.32-1.117
			s2.565,0.373,3.32,1.117c0.755,0.745,1.133,1.842,1.133,3.289v15.203c0,1.448-0.378,2.547-1.133,3.297s-1.862,1.125-3.32,1.125
			s-2.565-0.375-3.32-1.125s-1.133-1.849-1.133-3.297V755.893z M287.438,755.611v15.609c0,0.521,0.078,0.886,0.234,1.094
			c0.156,0.209,0.411,0.313,0.766,0.313s0.612-0.106,0.773-0.32c0.161-0.213,0.242-0.575,0.242-1.086v-15.609
			c0-0.5-0.078-0.854-0.234-1.063c-0.156-0.208-0.417-0.313-0.781-0.313c-0.354,0-0.609,0.102-0.766,0.305
			S287.438,755.102,287.438,755.611z"/>
		<path fill="#FFFFFF" d="M294.609,775.002v-23.047h5.219l1.281,9.453c0.229,1.698,0.442,3.443,0.641,5.234
			c0.198,1.792,0.38,3.62,0.547,5.484l0.188-0.016c-0.042-1.875-0.073-3.539-0.094-4.992s-0.031-2.43-0.031-2.93l-0.094-12.234
			h2.844v23.047h-5.094l-1.656-12.734c-0.281-2.188-0.487-3.81-0.617-4.867c-0.13-1.057-0.231-1.95-0.305-2.68h-0.234
			c0.031,1.688,0.055,3.008,0.07,3.961s0.023,1.561,0.023,1.82l0.109,14.5H294.609z"/>
	</g>
</g>
<g>
	<g>
		<path fill="#FFFFFF" d="M178.969,710v-23.047h5.219l1.281,9.453c0.229,1.698,0.442,3.443,0.641,5.234
			c0.198,1.792,0.38,3.62,0.547,5.484l0.188-0.016c-0.042-1.875-0.073-3.539-0.094-4.992s-0.031-2.43-0.031-2.93l-0.094-12.234
			h2.844V710h-5.094l-1.656-12.734c-0.281-2.188-0.487-3.81-0.617-4.867c-0.13-1.057-0.231-1.95-0.305-2.68h-0.234
			c0.031,1.688,0.055,3.008,0.07,3.961s0.023,1.561,0.023,1.82l0.109,14.5H178.969z"/>
		<path fill="#FFFFFF" d="M191.156,706.094v-19.141h3.453v19.266c0,0.521,0.078,0.886,0.234,1.094
			c0.156,0.209,0.411,0.313,0.766,0.313s0.612-0.106,0.773-0.32c0.161-0.213,0.242-0.575,0.242-1.086v-19.266h3.438v19.141
			c0,1.448-0.378,2.547-1.133,3.297s-1.862,1.125-3.32,1.125s-2.565-0.375-3.32-1.125S191.156,707.542,191.156,706.094z"/>
		<path fill="#FFFFFF" d="M201.781,710v-23.047h5.188l1,8.672v0.141c0,0.073,0.016,0.35,0.047,0.828
			c0.156,2.417,0.266,4.859,0.328,7.328h0.188c0.042-1.416,0.104-2.791,0.188-4.125c0.083-1.333,0.192-2.646,0.328-3.938
			l0.938-8.906H215V710h-3.141l0.078-12v-0.313c0-0.479,0.013-1.359,0.039-2.641s0.06-2.708,0.102-4.281h-0.172
			c-0.063,1.188-0.136,2.303-0.219,3.344c-0.083,1.042-0.161,1.901-0.234,2.578L209.922,710h-3.266
			c-0.552-4.708-0.974-8.557-1.266-11.547c-0.292-2.989-0.5-5.552-0.625-7.688h-0.188c0.011,0.761,0.036,1.761,0.078,3
			c0.052,1.99,0.078,3.115,0.078,3.375V710H201.781z"/>
		<path fill="#FFFFFF" d="M216.75,710v-23.047h7.594v3.141h-4.172v5.797h4.078v3.031h-4.078v7.906h4.172V710H216.75z"/>
		<path fill="#FFFFFF" d="M225.484,686.953h4.063c1.708,0,2.942,0.331,3.703,0.992c0.761,0.662,1.141,1.742,1.141,3.242v2.688
			c0,1.188-0.263,2.086-0.789,2.695s-1.394,1.014-2.602,1.211v0.125c1.136,0.021,1.984,0.295,2.547,0.82
			c0.563,0.526,0.844,1.311,0.844,2.352v4.703c0,1.031,0.05,1.889,0.148,2.57c0.099,0.683,0.253,1.232,0.461,1.648h-3.625
			c-0.156-0.364-0.269-0.805-0.336-1.32s-0.102-1.164-0.102-1.945v-1.016v-5.031c0-0.489-0.153-0.852-0.461-1.086
			s-0.784-0.352-1.43-0.352h-0.141V710h-3.422V686.953z M230.938,694.891v-3.766c0-0.51-0.106-0.891-0.32-1.141
			s-0.534-0.375-0.961-0.375h-0.75v6.797h0.75c0.427,0,0.747-0.125,0.961-0.375S230.938,695.401,230.938,694.891z"/>
		<path fill="#FFFFFF" d="M239.25,710h-3.422v-23.047h3.422V710z"/>
		<path fill="#FFFFFF" d="M246.328,690.609c0-0.51-0.075-0.867-0.227-1.07s-0.403-0.305-0.758-0.305s-0.609,0.102-0.766,0.305
			s-0.234,0.561-0.234,1.07v15.609c0,0.521,0.078,0.886,0.234,1.094c0.156,0.209,0.411,0.313,0.766,0.313s0.606-0.104,0.758-0.313
			c0.151-0.208,0.227-0.572,0.227-1.094v-5.172h3.453v5.047c0,1.448-0.375,2.547-1.125,3.297s-1.854,1.125-3.313,1.125
			c-1.469,0-2.578-0.375-3.328-1.125s-1.125-1.849-1.125-3.297v-15.203c0-1.447,0.375-2.544,1.125-3.289
			c0.75-0.744,1.859-1.117,3.328-1.117c1.458,0,2.563,0.373,3.313,1.117c0.75,0.745,1.125,1.842,1.125,3.289v4.578h-3.453V690.609z"
			/>
		<path fill="#FFFFFF" d="M256.281,686.953h4.063c1.708,0,2.942,0.331,3.703,0.992c0.761,0.662,1.141,1.742,1.141,3.242v3.031
			c0,0.948-0.286,1.722-0.859,2.32c-0.573,0.6-1.417,1.014-2.531,1.242v0.125c1.136,0.094,1.984,0.404,2.547,0.93
			c0.563,0.526,0.844,1.273,0.844,2.242v4.703c0,1.479-0.38,2.553-1.141,3.219c-0.761,0.667-1.995,1-3.703,1h-4.063V686.953z
			 M261.734,694.891v-3.766c0-0.51-0.106-0.891-0.32-1.141s-0.534-0.375-0.961-0.375h-0.75v6.797h0.75
			c0.427,0,0.747-0.125,0.961-0.375S261.734,695.401,261.734,694.891z M259.703,699.219v7.969h0.75c0.427,0,0.747-0.125,0.961-0.375
			s0.32-0.625,0.32-1.125v-5c0-0.5-0.104-0.869-0.313-1.109c-0.208-0.239-0.531-0.359-0.969-0.359H259.703z"/>
		<path fill="#FFFFFF" d="M266.484,710v-23.047h3.422v19.875h4.172V710H266.484z"/>
		<path fill="#FFFFFF" d="M275.203,690.891c0-1.447,0.378-2.544,1.133-3.289c0.755-0.744,1.862-1.117,3.32-1.117
			s2.565,0.373,3.32,1.117c0.755,0.745,1.133,1.842,1.133,3.289v15.203c0,1.448-0.378,2.547-1.133,3.297s-1.862,1.125-3.32,1.125
			s-2.565-0.375-3.32-1.125s-1.133-1.849-1.133-3.297V690.891z M278.656,690.609v15.609c0,0.521,0.078,0.886,0.234,1.094
			c0.156,0.209,0.411,0.313,0.766,0.313s0.612-0.106,0.773-0.32c0.161-0.213,0.242-0.575,0.242-1.086v-15.609
			c0-0.5-0.078-0.854-0.234-1.063c-0.156-0.208-0.417-0.313-0.781-0.313c-0.354,0-0.609,0.102-0.766,0.305
			S278.656,690.1,278.656,690.609z"/>
		<path fill="#FFFFFF" d="M291.109,690.609c0-0.51-0.075-0.867-0.227-1.07s-0.403-0.305-0.758-0.305s-0.609,0.102-0.766,0.305
			s-0.234,0.561-0.234,1.07v15.609c0,0.521,0.078,0.886,0.234,1.094c0.156,0.209,0.411,0.313,0.766,0.313s0.606-0.104,0.758-0.313
			c0.151-0.208,0.227-0.572,0.227-1.094v-5.172h3.453v5.047c0,1.448-0.375,2.547-1.125,3.297s-1.854,1.125-3.313,1.125
			c-1.469,0-2.578-0.375-3.328-1.125s-1.125-1.849-1.125-3.297v-15.203c0-1.447,0.375-2.544,1.125-3.289
			c0.75-0.744,1.859-1.117,3.328-1.117c1.458,0,2.563,0.373,3.313,1.117c0.75,0.745,1.125,1.842,1.125,3.289v4.578h-3.453V690.609z"
			/>
		<path fill="#FFFFFF" d="M295.813,710v-23.047h3.422v10.219h0.141l2.656-10.219h3.328l-2.828,10.531L305.359,710h-3.625
			l-2.359-11.609h-0.141V710H295.813z"/>
	</g>
</g>
<rect x="1405.833" y="221" fill="#2F87C8" width="144.333" height="2"/>
<g>
	<g>
		<path fill="#FFFFFF" d="M1555.057,133.96v-23.047h4.063c1.688,0,2.917,0.331,3.688,0.992c0.771,0.662,1.156,1.722,1.156,3.18
			v5.656c0,1.479-0.383,2.555-1.148,3.227s-1.997,1.008-3.695,1.008h-0.641v8.984H1555.057z M1560.51,120.742v-5.656
			c0-0.51-0.106-0.891-0.32-1.141s-0.534-0.375-0.961-0.375h-0.75v8.672h0.75c0.427,0,0.747-0.122,0.961-0.367
			C1560.403,121.63,1560.51,121.252,1560.51,120.742z"/>
		<path fill="#FFFFFF" d="M1568.525,133.96h-3.422v-23.047h3.422V133.96z"/>
		<path fill="#FFFFFF" d="M1570.322,133.96v-23.047h3.422v19.875h4.172v3.172H1570.322z"/>
		<path fill="#FFFFFF" d="M1578.541,133.96v-23.047h3.422v19.875h4.172v3.172H1578.541z"/>
		<path fill="#FFFFFF" d="M1592.01,110.914h4.063c1.708,0,2.942,0.331,3.703,0.992c0.761,0.662,1.141,1.742,1.141,3.242v3.031
			c0,0.948-0.286,1.722-0.859,2.32c-0.573,0.6-1.417,1.014-2.531,1.242v0.125c1.136,0.094,1.984,0.404,2.547,0.93
			c0.563,0.526,0.844,1.273,0.844,2.242v4.703c0,1.479-0.38,2.553-1.141,3.219c-0.761,0.667-1.995,1-3.703,1h-4.063V110.914z
			 M1597.463,118.851v-3.766c0-0.51-0.106-0.891-0.32-1.141s-0.534-0.375-0.961-0.375h-0.75v6.797h0.75
			c0.427,0,0.747-0.125,0.961-0.375S1597.463,119.362,1597.463,118.851z M1595.432,123.179v7.969h0.75
			c0.427,0,0.747-0.125,0.961-0.375s0.32-0.625,0.32-1.125v-5c0-0.5-0.104-0.869-0.313-1.109c-0.208-0.239-0.531-0.359-0.969-0.359
			H1595.432z"/>
		<path fill="#FFFFFF" d="M1602.119,130.054v-19.141h3.453v19.266c0,0.521,0.078,0.886,0.234,1.094
			c0.156,0.209,0.411,0.313,0.766,0.313s0.612-0.106,0.773-0.32c0.161-0.213,0.242-0.575,0.242-1.086v-19.266h3.438v19.141
			c0,1.448-0.378,2.547-1.133,3.297s-1.862,1.125-3.32,1.125s-2.565-0.375-3.32-1.125S1602.119,131.502,1602.119,130.054z"/>
		<path fill="#FFFFFF" d="M1618.197,133.96h-3.438v-20.063h-2.969v-2.984h9.375v2.984h-2.969V133.96z"/>
		<path fill="#FFFFFF" d="M1627.447,133.96h-3.438v-20.063h-2.969v-2.984h9.375v2.984h-2.969V133.96z"/>
		<path fill="#FFFFFF" d="M1631.15,114.851c0-1.447,0.378-2.544,1.133-3.289c0.755-0.744,1.862-1.117,3.32-1.117
			s2.565,0.373,3.32,1.117c0.755,0.745,1.133,1.842,1.133,3.289v15.203c0,1.448-0.378,2.547-1.133,3.297s-1.862,1.125-3.32,1.125
			s-2.565-0.375-3.32-1.125s-1.133-1.849-1.133-3.297V114.851z M1634.604,114.57v15.609c0,0.521,0.078,0.886,0.234,1.094
			c0.156,0.209,0.411,0.313,0.766,0.313s0.612-0.106,0.773-0.32c0.161-0.213,0.242-0.575,0.242-1.086V114.57
			c0-0.5-0.078-0.854-0.234-1.063c-0.156-0.208-0.417-0.313-0.781-0.313c-0.354,0-0.609,0.102-0.766,0.305
			S1634.604,114.06,1634.604,114.57z"/>
		<path fill="#FFFFFF" d="M1641.775,133.96v-23.047h5.219l1.281,9.453c0.229,1.698,0.442,3.443,0.641,5.234
			c0.198,1.792,0.38,3.62,0.547,5.484l0.188-0.016c-0.042-1.875-0.073-3.539-0.094-4.992s-0.031-2.43-0.031-2.93l-0.094-12.234
			h2.844v23.047h-5.094l-1.656-12.734c-0.281-2.188-0.487-3.81-0.617-4.867c-0.13-1.057-0.231-1.95-0.305-2.68h-0.234
			c0.031,1.688,0.055,3.008,0.07,3.961s0.023,1.561,0.023,1.82l0.109,14.5H1641.775z"/>
		<path fill="#FFFFFF" d="M1653.65,114.851c0-1.447,0.372-2.544,1.117-3.289c0.745-0.744,1.841-1.117,3.289-1.117
			c1.469,0,2.578,0.373,3.328,1.117c0.75,0.745,1.125,1.842,1.125,3.289v4.578h-3.422v-4.859c0-0.5-0.081-0.854-0.242-1.063
			c-0.161-0.208-0.425-0.313-0.789-0.313c-0.354,0-0.606,0.102-0.758,0.305s-0.227,0.561-0.227,1.07v1.656
			c0,0.573,0.036,1.031,0.109,1.375s0.188,0.625,0.344,0.844l3.734,5.109c0.469,0.646,0.794,1.229,0.977,1.75
			c0.183,0.521,0.273,1.094,0.273,1.719v3.031c0,1.448-0.375,2.547-1.125,3.297s-1.859,1.125-3.328,1.125
			c-1.448,0-2.544-0.373-3.289-1.117s-1.117-1.846-1.117-3.305v-5.047h3.422v5.172c0,0.521,0.075,0.886,0.227,1.094
			c0.151,0.209,0.403,0.313,0.758,0.313c0.364,0,0.628-0.106,0.789-0.32c0.161-0.213,0.242-0.575,0.242-1.086v-2.391
			c0-0.313-0.047-0.614-0.141-0.906c-0.094-0.291-0.239-0.578-0.438-0.859l-3.906-5.438c-0.333-0.469-0.575-0.953-0.727-1.453
			s-0.227-1.094-0.227-1.781V114.851z"/>
	</g>
</g>
<rect x="1407" y="123" fill="#2F87C8" width="143.166" height="2"/>
<g>
	<g>
		<path fill="#FFFFFF" d="M1555.057,37.959V14.912h3.422v8.781h1.953v-8.781h3.438v23.047h-3.438V26.881h-1.953v11.078H1555.057z"/>
		<path fill="#FFFFFF" d="M1565.65,37.959V14.912h7.594v3.141h-4.172v5.797h4.078v3.031h-4.078v7.906h4.172v3.172H1565.65z"/>
		<path fill="#FFFFFF" d="M1573.494,37.959l2.75-23.047h5.219l2.5,23.047h-3.5l-0.703-6.203h-2.141l-0.734,6.203H1573.494z
			 M1577.916,28.771h1.594l-0.359-5.734c-0.021-0.5-0.055-1.083-0.102-1.75c-0.047-0.666-0.128-1.635-0.242-2.906h-0.156
			c-0.031,0.334-0.089,1.162-0.172,2.484c-0.063,0.917-0.114,1.656-0.156,2.219L1577.916,28.771z"/>
		<path fill="#FFFFFF" d="M1584.885,14.912h4.063c1.708,0,2.942,0.334,3.703,1c0.761,0.667,1.141,1.745,1.141,3.234V33.74
			c0,1.479-0.38,2.553-1.141,3.219c-0.761,0.667-1.995,1-3.703,1h-4.063V14.912z M1588.307,17.568v17.578h0.75
			c0.427,0,0.747-0.125,0.961-0.375s0.32-0.625,0.32-1.125V19.084c0-0.51-0.106-0.891-0.32-1.141s-0.534-0.375-0.961-0.375H1588.307
			z"/>
		<path fill="#FFFFFF" d="M1595.416,37.959V14.912h7.594v3.141h-4.172v5.797h4.078v3.031h-4.078v7.906h4.172v3.172H1595.416z"/>
		<path fill="#FFFFFF" d="M1604.15,14.912h4.063c1.708,0,2.942,0.331,3.703,0.992c0.761,0.662,1.141,1.742,1.141,3.242v2.688
			c0,1.188-0.263,2.086-0.789,2.695s-1.394,1.014-2.602,1.211v0.125c1.136,0.021,1.984,0.295,2.547,0.82
			c0.563,0.526,0.844,1.311,0.844,2.352v4.703c0,1.031,0.05,1.889,0.148,2.57c0.099,0.683,0.253,1.232,0.461,1.648h-3.625
			c-0.156-0.364-0.269-0.805-0.336-1.32s-0.102-1.164-0.102-1.945v-1.016v-5.031c0-0.489-0.153-0.852-0.461-1.086
			s-0.784-0.352-1.43-0.352h-0.141v10.75h-3.422V14.912z M1609.604,22.85v-3.766c0-0.51-0.106-0.891-0.32-1.141
			s-0.534-0.375-0.961-0.375h-0.75v6.797h0.75c0.427,0,0.747-0.125,0.961-0.375S1609.604,23.36,1609.604,22.85z"/>
		<path fill="#FFFFFF" d="M1625.197,37.959h-3.438V17.896h-2.969v-2.984h9.375v2.984h-2.969V37.959z"/>
		<path fill="#FFFFFF" d="M1632.416,37.959h-3.422V14.912h3.422V37.959z"/>
		<path fill="#FFFFFF" d="M1639.666,37.959h-3.438V17.896h-2.969v-2.984h9.375v2.984h-2.969V37.959z"/>
		<path fill="#FFFFFF" d="M1643.463,37.959V14.912h3.422v19.875h4.172v3.172H1643.463z"/>
		<path fill="#FFFFFF" d="M1651.682,37.959V14.912h7.594v3.141h-4.172v5.797h4.078v3.031h-4.078v7.906h4.172v3.172H1651.682z"/>
	</g>
</g>
<rect x="1241.334" y="307" fill="#2F87C8" width="308.666" height="2"/>
<rect x="1241.334" y="307" fill="#2F87C8" width="2" height="146.334"/>
<rect x="1291" y="687" fill="#2F87C8" width="2" height="21.75"/>
<rect x="1162" y="663.5" fill="#2F87C8" width="388" height="2"/>
<rect x="1191.5" y="665.5" fill="#2F87C8" width="2" height="36.25"/>
<rect x="1160" y="663.5" fill="#2F87C8" width="2" height="42.875"/>
<rect x="1134.5" y="632" fill="#2F87C8" width="415.5" height="2"/>
<rect x="1134.5" y="634" fill="#2F87C8" width="2" height="66.875"/>
<circle fill="#2F87C8" cx="1242.334" cy="452.125" r="6.458"/>
<circle fill="#2F87C8" cx="1406.458" cy="747" r="6.458"/>
<circle fill="#2F87C8" cx="1010" cy="747" r="6.458"/>
<circle fill="#2F87C8" cx="1135.5" cy="703.542" r="6.458"/>
<circle fill="#2F87C8" cx="1161.042" cy="703.542" r="6.458"/>
<circle fill="#2F87C8" cx="1192" cy="703.542" r="6.458"/>
<circle fill="#2F87C8" cx="1292" cy="703.542" r="6.458"/>
<circle fill="#2F87C8" cx="726.417" cy="746.708" r="6.458"/>
<circle fill="#2F87C8" cx="535" cy="273.097" r="6.459"/>
<circle fill="#2F87C8" cx="535" cy="180" r="6.459"/>
<circle fill="#2F87C8" cx="535" cy="77.5" r="6.459"/>
<circle fill="#2F87C8" cx="1406.458" cy="222" r="6.458"/>
<circle fill="#2F87C8" cx="1406.458" cy="124" r="6.458"/>
<circle fill="#2F87C8" cx="1406.458" cy="452.334" r="6.458"/>
<circle fill="#2F87C8" cx="1406.375" cy="567.334" r="6.458"/>
<circle fill="#2F87C8" cx="1406.667" cy="27.626" r="6.458"/>
<rect x="1031" y="745" fill="#2F87C8" width="2" height="74"/>
<rect x="1010" y="745" fill="#2F87C8" width="23" height="2"/>
<rect x="389" y="794.75" fill="#2F87C8" width="338.75" height="2"/>
<rect x="725.75" y="750.25" fill="#2F87C8" width="2" height="44.5"/>
<rect x="345.667" y="817" fill="#2F87C8" width="686.333" height="2"/>
<rect x="345.667" y="762.667" fill="#2F87C8" width="2" height="55.874"/>
<rect x="310.126" y="697" fill="#2F87C8" width="79.874" height="2"/>
<rect x="310" y="762.667" fill="#2F87C8" width="36.416" height="2"/>
<rect x="310" y="272.097" fill="#2F87C8" width="225" height="2"/>
<rect x="310" y="179" fill="#2F87C8" width="218.541" height="2"/>
<rect x="309.938" y="76.5" fill="#2F87C8" width="218.563" height="2"/>
<rect x="388" y="697" fill="#2F87C8" width="2" height="99.75"/>
</svg>
