<?xml version="1.0" standalone="no"?>
<!DOCTYPE svg PUBLIC "-//W3C//DTD SVG 1.1//EN" "http://www.w3.org/Graphics/SVG/1.1/DTD/svg11.dtd" >
<svg xmlns="http://www.w3.org/2000/svg">
<metadata></metadata>
<defs>
<font id="antoniobold" horiz-adv-x="976" >
<font-face units-per-em="2048" ascent="1638" descent="-410" />
<missing-glyph horiz-adv-x="367" />
<glyph horiz-adv-x="0" />
<glyph horiz-adv-x="682" />
<glyph unicode=" "  horiz-adv-x="367" />
<glyph unicode="&#x09;" horiz-adv-x="367" />
<glyph unicode="&#xa0;" horiz-adv-x="367" />
<glyph unicode="!" horiz-adv-x="514" d="M126 0v256h260v-256h-260zM204 423l-89 1338h284l-85 -1338h-110z" />
<glyph unicode="&#x22;" horiz-adv-x="944" d="M241 1125l-71 636h245l-66 -636h-108zM606 1125l-70 636h244l-66 -636h-108z" />
<glyph unicode="#" horiz-adv-x="1288" d="M153 0l113 579h-126v174h160l55 278h-148v173h182l112 558h217l-113 -558h188l112 558h217l-111 -558h123v-173h-157l-55 -278h145v-174h-180l-114 -579h-216l113 579h-188l-113 -579h-216zM516 752h189l55 276h-189z" />
<glyph unicode="$" horiz-adv-x="902" d="M801 387q0 -325 -252 -375v-232h-144v224q-154 10 -236 109t-82 330v97h249v-121q0 -200 102 -200q54 0 78 35.5t24 120.5q0 150 -138 278q-4 4 -64.5 58t-70.5 64q-185 169 -185 397q0 347 314 367v221h144v-230q98 -22 154 -90q81 -99 81 -329v-6v-82h-237v99 q0 102 -23 151.5t-76.5 49.5t-79 -31t-25.5 -106q0 -119 106 -221l142 -129q219 -204 219 -449z" />
<glyph unicode="%" horiz-adv-x="2209" d="M468 768q63 0 87.5 39.5t24.5 131.5v492q0 90 -23 126.5t-88.5 36.5t-89 -36.5t-23.5 -126.5v-492q0 -92 24.5 -131.5t87.5 -39.5zM468 580q-177 0 -257.5 102.5t-80.5 322.5v358q0 223 77.5 320.5t260.5 97.5t260.5 -97.5t77.5 -320.5v-358q0 -220 -80.5 -322.5 t-257.5 -102.5zM1653.5 206.5q24.5 -39.5 88 -39.5t88 40t24.5 131v492q0 90 -23.5 126.5t-89 36.5t-89 -36.5t-23.5 -126.5v-492q0 -92 24.5 -131.5zM1999.5 81.5q-80.5 -102.5 -258 -102.5t-258 102.5t-80.5 322.5v358q0 223 77.5 320.5t260.5 97.5t261 -97.5t78 -320.5 v-358q0 -220 -80.5 -322.5zM662 0l685 1761h204l-676 -1761h-213z" />
<glyph unicode="&#x26;" horiz-adv-x="1052" d="M442 706q-142 -190 -142 -318q36 -136 139 -179q42 0 79 34t79 103q-79 178 -155 360zM351 930q-143 370 -143 519t87 240.5t240 91.5t232.5 -89t79.5 -237.5t-61.5 -270t-172.5 -262.5q43 -113 129 -321q96 161 190 273l109 -184q-78 -86 -189 -299q-8 -15 -12 -22 q38 -90 92.5 -216t65.5 -153h-248q-13 32 -57 130q-125 -150 -287.5 -150t-247.5 103.5t-85 272.5t80 302.5t198 271.5zM530 1144q132 171 132 294q0 88 -22 125t-79 37q-110 0 -110 -159q0 -73 79 -297z" />
<glyph unicode="'" horiz-adv-x="423" d="M160 1125l-60 636h238l-65 -636h-113z" />
<glyph unicode="(" horiz-adv-x="619" d="M534 -136q-117 0 -190 19t-123.5 69.5t-71 137t-20.5 223.5v1061q0 137 20.5 223.5t71 137t123.5 69.5t190 19v-200q-89 0 -114 -46.5t-25 -198.5v-1069q0 -152 25 -198.5t114 -46.5v-200z" />
<glyph unicode=")" horiz-adv-x="619" d="M86 -136v200q89 0 114 46.5t25 198.5v1069q0 152 -25 198.5t-114 46.5v200q117 0 190 -19t123 -69.5t70.5 -137t20.5 -223.5v-1061q0 -137 -20.5 -223.5t-70.5 -137t-123 -69.5t-190 -19z" />
<glyph unicode="*" horiz-adv-x="960" d="M386 889l35 291l-231 -182l-95 164l260 123l-264 115l95 164l234 -173l-34 282h188l-28 -278l228 173l95 -164l-264 -119l264 -127l-95 -163l-228 179l28 -285h-188z" />
<glyph unicode="+" horiz-adv-x="808" d="M312 421v233h-218v177h218v231h182v-231h219v-177h-219v-233h-182z" />
<glyph unicode="," horiz-adv-x="488" d="M172 -338l70 338h-125v268h288v-259l-102 -347h-131z" />
<glyph unicode="-" horiz-adv-x="696" d="M89 661v175h478v-175h-478z" />
<glyph unicode="." horiz-adv-x="532" d="M149 0v246h225v-246h-225z" />
<glyph unicode="/" horiz-adv-x="826" d="M86 0l427 1769h235l-428 -1769h-234z" />
<glyph unicode="0" horiz-adv-x="1010" d="M596.5 259.5q34.5 49.5 34.5 210.5v857q-1 195 -91 219q-18 4 -57.5 4t-76 -39t-36.5 -183v-858q0 -164 32.5 -212t96 -48t98 49.5zM501 -21q-209 0 -303.5 126t-94.5 370v841q0 232 95.5 348.5t302.5 116.5t302.5 -116.5t95.5 -348.5v-841q0 -244 -94.5 -370 t-303.5 -126z" />
<glyph unicode="1" horiz-adv-x="676" d="M258 0v1428q-34 -41 -96 -63.5t-122 -22.5v199q85 12 161.5 69t116.5 151h208v-1761h-268z" />
<glyph unicode="2" horiz-adv-x="951" d="M160 0v104q0 138 45.5 271.5t142.5 303.5q4 6 73 125t101 164q78 128 78 354.5t-96 226.5q-80 0 -99 -126q-8 -54 -8 -135v-223h-256v108q0 327 61.5 442t169.5 147q60 18 145 18t153 -38q66 -38 106 -106q78 -133 78 -346.5t-83 -374.5t-164 -286q-148 -229 -192 -419 h406v-210h-661z" />
<glyph unicode="3" horiz-adv-x="960" d="M774 109.5q-93 -129.5 -298.5 -129.5t-288 118.5t-82.5 375.5v115h251v-122q0 -145 22.5 -201t98.5 -56t101.5 67.5t25.5 237t-33 241.5t-129 72h-76v204h74q94 0 129 63.5t35 208.5t-29.5 195t-93.5 50t-89.5 -52.5t-25.5 -182.5v-53h-259v55q0 241 85 352.5 t284.5 111.5t293.5 -115t94 -349q0 -145 -45 -243.5t-136 -131.5q100 -47 142 -156t42 -282q0 -264 -93 -393.5z" />
<glyph unicode="4" horiz-adv-x="951" d="M524 -1v311h-434v197l387 1254h286v-1235h136v-216h-136v-311h-239zM297 526h227v869z" />
<glyph unicode="5" horiz-adv-x="951" d="M471 -20q-349 0 -349 363v221h251v-193q0 -122 47 -151q18 -11 57 -11h6q88 0 88 173v450q0 96 -20 143.5t-78 47.5q-104 0 -104 -171l-236 10v898h651v-240h-404v-357q19 37 68.5 60t108.5 23q154 0 214 -135.5t60 -430t-20.5 -409t-60.5 -174.5q-77 -117 -279 -117z " />
<glyph unicode="6" horiz-adv-x="951" d="M370 1019q63 84 219 84t224 -125t68 -398v-97q0 -254 -80 -379t-302 -125q-274 1 -351 209q-46 125 -46 339v723q0 382 176 482q86 48 224 49q179 0 260.5 -101.5t82.5 -343.5v-91h-250v36q0 159 -18 213t-90 54t-94.5 -58t-22.5 -220v-251zM499 212q72 0 97.5 47 t25.5 175v167q0 148 -25.5 209t-86.5 61t-97.5 -27.5t-42.5 -66.5v-318q0 -131 28.5 -189t100.5 -58z" />
<glyph unicode="7" horiz-adv-x="951" d="M500 1h-292q24 342 103.5 627t143 469t90 259.5t42 118t17.5 51.5h-500v235h777v-195q-5 -47 -32 -121.5t-71 -189.5q-239 -624 -278 -1254z" />
<glyph unicode="8" horiz-adv-x="951" d="M479 -21q-192 0 -287.5 111.5t-98.5 340.5q-1 7 -1 134.5t40 237.5t109 158q-141 100 -141 380q0 231 89.5 335.5t291 104.5t288.5 -102t87 -338q0 -283 -140 -380q66 -48 104 -159t38 -245v-121q-2 -233 -94.5 -345t-284.5 -112zM384 258.5q23 -50.5 94.5 -50.5 t91.5 50.5t20 183.5v144q0 270 -110 270q-55 0 -87.5 -70t-32.5 -201v-147q1 -129 24 -179.5zM418 1056q22 -22 60 -22q0 -1 1 -1q37 0 59 23q23 23 37 86t14 175q0 111 -11.5 166.5t-33.5 72.5t-65 17t-65 -19q-46 -38 -46 -243t50 -255z" />
<glyph unicode="9" horiz-adv-x="951" d="M734 105.5q-89 -125.5 -277 -125.5t-275 103t-88 340v96h253v-37q1 -163 22.5 -217.5t81.5 -54.5t74 24.5t23 48t9 155.5v263q-55 -37 -163 -37q-178 0 -252.5 129t-74.5 391v64q0 328 113 441q92 92 262.5 92t251 -65.5t105 -181.5t24.5 -301v-703q0 -299 -89 -424.5z M444 884q99 0 113 86v334q0 130 -23.5 187t-90 57t-90.5 -58t-24 -189v-157q0 -146 23.5 -203t91.5 -57z" />
<glyph unicode=":" horiz-adv-x="555" d="M136 270v269h283v-269h-283zM136 1038v269h283v-269h-283z" />
<glyph unicode=";" horiz-adv-x="561" d="M184 -107l78 362h-130v278h303v-269l-109 -371h-142zM126 944v306h301v-306h-301z" />
<glyph unicode="&#x3c;" horiz-adv-x="730" d="M638 238l-573 369v292l573 365v-275l-396 -236l396 -243v-272z" />
<glyph unicode="=" horiz-adv-x="722" d="M104 549v189h514v-189h-514zM104 892v184h514v-184h-514z" />
<glyph unicode="&#x3e;" horiz-adv-x="730" d="M90 238v275l396 236l-396 243v272l574 -366v-293z" />
<glyph unicode="?" horiz-adv-x="897" d="M251 494v316q92 24 130 45.5t59.5 36t47.5 51.5t42.5 106.5t16.5 234.5v66q0 126 -7 144.5t-19 36.5t-45 18q-79 0 -89 -75q-6 -48 -6 -138v-176h-261v216q0 405 345 405q188 0 265 -96q51 -63 68 -160t17 -225v-28v-22v-18q0 -70 -7 -138q-19 -180 -90 -271 q-73 -93 -231 -139v-190h-236zM257 1v298h232v-298h-232z" />
<glyph unicode="@" horiz-adv-x="1492" d="M736 -59q-307 0 -473 221t-166 674q0 602 314 828q162 116 402 116q287 0 435 -226.5t148 -643.5q0 -250 -69 -391t-213 -141q-64 0 -120 58.5t-79 160.5q-19 -111 -70.5 -173.5t-125.5 -62.5q-119 0 -196.5 109t-77.5 330.5t72.5 352t199.5 130.5q59 0 107 -35t72 -87 l31 122h129v-544q0 -99 16.5 -147t55 -48t58.5 36q40 70 41 362q0 667 -427 667q-257 0 -382 -202t-125 -575.5t110.5 -547.5t335.5 -174q101 0 193 28l27 -168q-143 -29 -223 -29zM761 1100q-143 0 -143 -296q0 -257 130 -257q58 0 99 58.5t41 153.5v303q-74 38 -127 38z " />
<glyph unicode="A" d="M604 529l-118 884h-4l-108 -884h230zM52 0l251 1760h354l267 -1760h-250l-42 314h-284l-38 -314h-258z" />
<glyph unicode="B" horiz-adv-x="996" d="M885 1308q0 -284 -154 -349q188 -63 188 -415v-45q-2 -265 -92.5 -382t-295.5 -117h-389v1760h381q197 0 279 -91.5t83 -306.5v-54zM410 208h95q80 0 112 55t32 197v142q0 134 -26 189.5t-100 55.5h-113v-639zM410 1048h99q69 0 90.5 44t21.5 181v106q-1 102 -28 136.5 t-93 34.5h-90v-502z" />
<glyph unicode="C" horiz-adv-x="961" d="M784 102.5q-91 -122.5 -286 -122.5t-291.5 130.5t-96.5 375.5v767q0 393 206 491q76 36 184 36q371 0 371 -468v-242h-259v225q0 136 -23 194.5t-90 58.5t-93 -62t-26 -190v-822q0 -142 25 -203t91 -61t91 62t25 205v252h263v-249q0 -255 -91 -377.5z" />
<glyph unicode="D" horiz-adv-x="1005" d="M399 208h88q74 0 107.5 48t33.5 176l-1 869q0 137 -33.5 195t-115.5 58h-79v-1346zM131 0v1760h395q194 0 281.5 -114.5t87.5 -337.5l1 -794q0 -266 -88 -390t-291 -124h-386z" />
<glyph unicode="E" horiz-adv-x="816" d="M132 0v1760h590v-231h-322v-512h306v-226h-306v-560h334v-231h-602z" />
<glyph unicode="F" horiz-adv-x="796" d="M131 0v1760h604v-233h-336v-468h312v-234h-312v-825h-268z" />
<glyph unicode="G" horiz-adv-x="1000" d="M463 -18q-166 0 -259.5 130.5t-93.5 402.5v765q0 244 95.5 372t303.5 128q259 0 329 -193q42 -116 42 -317v-125h-250v184q0 121 -25.5 170t-96 49t-99.5 -58.5t-29 -207.5v-763q0 -173 26 -241t101.5 -68t107 73t31.5 246v237h-135v195h369v-961h-120l-41 173 q-21 -89 -92 -140t-164 -51z" />
<glyph unicode="H" horiz-adv-x="1040" d="M132 0v1760h268v-712h240v712h268v-1760h-268v818h-240v-818h-268z" />
<glyph unicode="I" horiz-adv-x="552" d="M142 0v1760h268v-1760h-268z" />
<glyph unicode="J" horiz-adv-x="922" d="M699 97.5q-95 -117.5 -267.5 -117.5t-268 104.5t-95.5 304.5v314h259v-301q0 -146 47 -178q21 -14 52 -14q61 0 80.5 50t19.5 158v1342h268v-1329q0 -216 -95 -333.5z" />
<glyph unicode="K" horiz-adv-x="970" d="M132 0v1760h268v-810l268 810h277l-292 -868l315 -892h-283l-283 822v-822h-270z" />
<glyph unicode="L" horiz-adv-x="761" d="M132 0v1760h268v-1532h339v-228h-607z" />
<glyph unicode="M" horiz-adv-x="1418" d="M132 0v1760h333l250 -1286l235 1286h335v-1760h-239v656l10 602l-237 -1250h-213l-247 1250l10 -602v-656h-237z" />
<glyph unicode="N" horiz-adv-x="1069" d="M132 0v1760h210l373 -1056l-19 480v576h241v-1760h-190l-383 1093l15 -462v-631h-247z" />
<glyph unicode="O" horiz-adv-x="999" d="M403.5 273q23.5 -61 96.5 -61t96 62.5t23 214.5v820q0 125 -23.5 182.5t-92 57.5t-96 -57.5t-27.5 -181.5v-821q0 -155 23.5 -216zM796 107q-92 -127 -294.5 -127t-297 127.5t-94.5 384.5v805q0 484 395 484q204 0 293.5 -123t89.5 -361v-805q0 -258 -92 -385z" />
<glyph unicode="P" horiz-adv-x="944" d="M132 0v1760h404q205 0 280.5 -124.5t79.5 -371.5v-37q0 -262 -74.5 -397.5t-276.5 -135.5h-145v-694h-268zM400 915h92q85 0 110.5 65.5t25.5 249.5v34q-1 156 -27.5 223t-106.5 67h-94v-639z" />
<glyph unicode="Q" horiz-adv-x="1009" d="M888 492q0 -383 -204 -477l164 -192l-132 -115l-251 273q-175 11 -265 132.5t-90 378.5v805q0 484 395 484q204 0 293.5 -123t89.5 -361v-805zM403.5 273q23.5 -61 96.5 -61t96 62.5t23 214.5v820q0 125 -23.5 182.5t-92 57.5t-96 -57.5t-27.5 -181.5v-821 q0 -155 23.5 -216z" />
<glyph unicode="R" horiz-adv-x="1010" d="M486 827l-86 4v-831h-268v1760h443q138 0 206 -55.5t89.5 -155t21.5 -260t-34 -244.5t-126 -113q91 -16 127 -123t36 -445.5t10 -363.5h-268q-10 20 -10 631q0 117 -28 155.5t-113 40.5zM401 1039h107q51 0 75.5 23t34 79t9.5 171v11q0 143 -24 187t-111 44h-91v-515z " />
<glyph unicode="S" horiz-adv-x="905" d="M97 495v157h254v-177q0 -147 25 -206.5t94 -59.5t91.5 49t22.5 160t-40 193.5t-127 172.5l-130 134q-91 95 -141.5 197t-50.5 236q0 218 84 324t289 106t277.5 -123.5t72.5 -360.5v-109h-247v126q0 128 -22 183.5t-84.5 55.5t-90 -42t-27.5 -126t28 -134t101 -128 l145 -157q109 -118 164.5 -239t55.5 -264q0 -247 -83 -365t-290.5 -118t-289 131.5t-81.5 383.5z" />
<glyph unicode="T" horiz-adv-x="703" d="M222 0v1528h-206v232h671v-232h-198v-1528h-267z" />
<glyph unicode="U" horiz-adv-x="1020" d="M806 94.5q-92 -114.5 -295.5 -114.5t-296 115t-92.5 357v1309h268v-1304q0 -139 13 -169t31.5 -54.5t76.5 -24.5t83 34t30.5 84.5t5.5 129.5v1304h268v-1309q0 -243 -92 -357.5z" />
<glyph unicode="V" horiz-adv-x="966" d="M329 0l-273 1760h255l115 -795l71 -560h7l61 560l96 795h250l-251 -1760h-331z" />
<glyph unicode="W" horiz-adv-x="1388" d="M275 0l-215 1760h240l129 -1254l164 1254h216l165 -1254l114 1254h241l-202 -1760h-267l-156 1170l-162 -1170h-267z" />
<glyph unicode="X" horiz-adv-x="879" d="M618 0l-179 541l-145 -541h-259l271 944l-270 816h226l175 -523l141 523h251l-266 -901l287 -859h-232z" />
<glyph unicode="Y" horiz-adv-x="862" d="M304 0v703l-295 1057h256l174 -658h4l155 658h255l-281 -1057v-703h-268z" />
<glyph unicode="Z" horiz-adv-x="810" d="M98 0v238l365 1291h-332v231h613v-217l-365 -1312h357v-231h-638z" />
<glyph unicode="[" horiz-adv-x="764" d="M179 0v1761h471v-209h-205v-1343h205v-209h-471z" />
<glyph unicode="\" horiz-adv-x="868" d="M507 0l-411 1761h238l410 -1761h-237z" />
<glyph unicode="]" horiz-adv-x="764" d="M135 0v209h205v1343h-205v209h471v-1761h-471z" />
<glyph unicode="^" horiz-adv-x="1030" d="M114 576l241 923h319l241 -923h-256l-144 712l-144 -712h-257z" />
<glyph unicode="_" horiz-adv-x="748" d="M48 -211v183h651v-183h-651z" />
<glyph unicode="`" horiz-adv-x="650" d="M517 908l-413 94v265l413 -203v-156z" />
<glyph unicode="a" horiz-adv-x="981" d="M591 814q-126 -56 -170 -106t-44 -155v-161q0 -105 22 -150.5t71.5 -45.5t81 33.5t39.5 75.5v509zM382 -15q-147 0 -210 105.5t-65 303.5v96q0 192 104 291q67 65 227 126q29 11 80.5 30t72.5 27v131q0 122 -17.5 165.5t-80 43.5t-83.5 -46t-21 -155v-67h-262v45 q0 213 79.5 325t282 112t288 -112t85.5 -336v-1070h-267v149q-20 -69 -76.5 -116.5t-136.5 -47.5z" />
<glyph unicode="b" horiz-adv-x="996" d="M397 140v-140h-265v1775h265v-383q22 56 77 91t119 35q192 0 253 -172q39 -110 39 -277v-635v-4q0 -325 -145 -412q-54 -33 -126 -33h-5q-153 2 -212 155zM421 258.5q24 -61.5 91.5 -61.5t87 59.5t19.5 202.5v614q0 179 -47 215q-21 16 -54 16q-65 0 -93 -50t-28 -180 v-618q0 -136 24 -197.5z" />
<glyph unicode="c" horiz-adv-x="943" d="M494 -18q-225 0 -304.5 133t-79.5 385v486q0 327 114 441q91 91 275 91t266 -111.5t82 -321.5v-165h-256v174q0 137 -24.5 172t-82.5 35t-82.5 -52t-24.5 -159v-676q0 -111 22.5 -163t87.5 -52q89 1 101 125q3 29 3 68v21v178h256v-152q0 -220 -82 -338.5t-271 -118.5z " />
<glyph unicode="d" horiz-adv-x="998" d="M386 -15q-121 0 -181 68t-77.5 172.5t-17.5 253.5v611q0 188 69 308t228 120q62 0 113.5 -30t80.5 -81v368h265v-1775h-265v139q-60 -154 -215 -154zM400.5 257.5q23.5 -61.5 88 -61.5t89 61.5t24.5 205.5v600q0 185 -56 224q-24 16 -58 16q-67 0 -89 -61t-22 -182v-617 q0 -124 23.5 -185.5z" />
<glyph unicode="e" horiz-adv-x="958" d="M482 -18q-253 0 -326 193q-46 123 -46 324v559q0 460 383 460q204 0 282.5 -121t78.5 -344v-321h-477v-295q0 -156 27 -198.5t81 -42.5t70 25q27 44 31 90t4 126v132h262v-80q0 -204 -32 -293t-74 -129q-88 -85 -264 -85zM376 887h214v192q0 123 -19.5 176.5t-79.5 53.5 h-1q-104 0 -112 -159q-2 -30 -2 -78v-185z" />
<glyph unicode="f" horiz-adv-x="637" d="M173 0v1250h-116v191h117v78q0 126 65.5 195.5t174.5 69.5t176 -25v-166q-30 4 -70 4q-82 0 -82 -86v-70h152v-191h-152v-1250h-265z" />
<glyph unicode="g" horiz-adv-x="990" d="M865 185q0 -192 -93.5 -301t-316 -109t-355.5 107l93 167q119 -76 222 -76t144 52t41 140v119q-25 -72 -76.5 -101.5t-131.5 -29.5q-157 0 -217.5 117t-60.5 312v483q0 453 284 453h4q156 0 198 -151v133h265v-1315zM404.5 412.5q23.5 -58.5 85 -58.5t86 52.5t24.5 189.5 v491q0 105 -25.5 161t-90.5 56t-84 -57.5t-19 -158.5v-494q0 -123 23.5 -181.5z" />
<glyph unicode="h" horiz-adv-x="1016" d="M132 0v1775h265v-447q21 81 83 135.5t150 54.5q130 0 197 -86.5t67 -250.5v-1181h-264v1156q0 145 -106 145q-61 0 -94 -50t-33 -136v-1115h-265z" />
<glyph unicode="i" horiz-adv-x="534" d="M136 0v1500h265v-1500h-265zM133 1638v230h267v-230h-267z" />
<glyph unicode="j" horiz-adv-x="564" d="M222 -196q-18 -1 -78 -1t-83 17v183q17 -4 45 -1q63 3 63 67v1431h265v-1421q0 -137 -55.5 -205t-156.5 -70zM165 1638v230h267v-230h-267z" />
<glyph unicode="k" horiz-adv-x="937" d="M132 0v1775h265v-957l256 682h269l-289 -738l306 -762h-270l-272 713v-713h-265z" />
<glyph unicode="l" horiz-adv-x="534" d="M135 0v1775h264v-1775h-264z" />
<glyph unicode="m" horiz-adv-x="1505" d="M1118 0v1152q0 149 -101 149q-61 0 -94 -42t-33 -121v-1138h-265v1154q0 147 -98 147q-65 0 -97.5 -49.5t-32.5 -127.5v-1124h-265v1500h265v-163q23 84 83 132.5t157 48.5q166 0 222 -151q81 151 255 151q141 0 204.5 -94t63.5 -275v-1149h-264z" />
<glyph unicode="n" horiz-adv-x="1020" d="M638 1518q260 0 260 -337v-1181h-265v1165q0 65 -29.5 102t-85.5 37t-88.5 -48t-32.5 -129v-1127h-265v1500h265v-172q20 80 86 135t155 55z" />
<glyph unicode="o" horiz-adv-x="970" d="M486 196q62 0 84.5 54.5t22.5 162.5v671q0 110 -23 165t-85 55t-85 -54.5t-23 -165.5v-671q0 -165 54 -202q22 -15 55 -15zM486 -18q-212 0 -294 127t-82 367v561q0 481 375 481t375 -481v-561q0 -375 -193 -461q-74 -33 -181 -33z" />
<glyph unicode="p" horiz-adv-x="998" d="M132 -285v1785h265v-135q28 71 89 110.5t127.5 39.5t116.5 -24q93 -45 125.5 -158.5t32.5 -284.5v-547q0 -264 -51 -367.5t-137 -133.5q-50 -18 -110.5 -18t-111 31t-81.5 78v-376h-265zM421 255.5q24 -58.5 90 -58.5t88 60.5t22 192.5v622q0 180 -49 216q-22 16 -56 16 q-60 0 -89.5 -49.5t-29.5 -181.5v-634q0 -125 24 -183.5z" />
<glyph unicode="q" horiz-adv-x="991" d="M110 1048q0 467 273 467q158 0 214 -129v114h265v-1785h-265v387q-21 -50 -73 -85t-119 -35t-121 25q-100 47 -137 168t-37 306v567zM478 196q64 0 91.5 51.5t27.5 181.5v634q0 126 -26 183t-91 57t-84.5 -61t-19.5 -184v-622q0 -186 46 -223q22 -17 56 -17z" />
<glyph unicode="r" horiz-adv-x="688" d="M654 1518q4 0 4 -168l-1 -56q-80 0 -157 -27t-101 -77v-1190h-267v1500h267v-167q26 88 91.5 136.5t163.5 48.5z" />
<glyph unicode="s" horiz-adv-x="867" d="M82 1150q0 368 354 368q176 0 257.5 -100.5t81.5 -334.5v-82h-237v99q0 102 -23 151.5t-76.5 49.5t-79 -31t-25.5 -106q0 -119 106 -221l142 -129q219 -204 219 -449q0 -192 -87 -288t-270 -96t-270 104.5t-87 335.5v97h249v-121q0 -200 102 -200q54 0 78 35.5t24 120.5 q0 150 -138 278q-4 4 -64.5 58t-70.5 64q-185 169 -185 397z" />
<glyph unicode="t" horiz-adv-x="645" d="M405 -10q-140 0 -188 53.5t-48 185.5v1048h-122v192h122v292h265v-292h146v-192h-146v-1002q0 -53 27.5 -68t123.5 -15v-202h-180z" />
<glyph unicode="u" horiz-adv-x="1015" d="M389 -19q-267 0 -267 359v1160h266v-1119q0 -93 23 -137.5t86 -44.5q121 0 121 180l1 1121h264v-1500h-265v156q-63 -175 -229 -175z" />
<glyph unicode="v" horiz-adv-x="834" d="M255 0l-217 1500h250l97 -798l33 -359h20l28 360l83 797h248l-217 -1500h-325z" />
<glyph unicode="w" horiz-adv-x="1251" d="M783 0l-152 1127l-162 -1127h-224l-201 1500h223l76 -633l34 -322h6l33 323l89 632h236l98 -620l42 -335h6l29 334l67 621h222l-190 -1500h-232z" />
<glyph unicode="x" horiz-adv-x="820" d="M558 0l-157 449l-139 -449h-245l267 783l-250 717h235l154 -433l132 433h234l-254 -745l269 -755h-246z" />
<glyph unicode="y" horiz-adv-x="852" d="M88 -265v183h87q50 0 77.5 8t30.5 32q6 10 6 37t-7 73l-240 1433h252l96 -768l40 -404h22l36 404l88 768h251l-260 -1565q-17 -113 -57 -157t-140 -44h-282z" />
<glyph unicode="z" horiz-adv-x="727" d="M70 0v200l330 1073h-305v227h574v-191l-328 -1087h314v-222h-585z" />
<glyph unicode="{" horiz-adv-x="798" d="M614 -121q-189 0 -265.5 72.5t-76.5 265.5v275q0 163 -34 190.5t-105 27.5v240q71 0 96 20t34 58t9 140v275q0 193 76.5 265.5t265.5 72.5h60v-199q-89 0 -114 -28.5t-25 -123.5v-246q0 -131 -12.5 -197t-45 -101t-101.5 -56q69 -21 101.5 -56t45 -101t12.5 -197v-246 q0 -95 25 -123.5t114 -28.5v-199h-60z" />
<glyph unicode="|" horiz-adv-x="537" d="M150 -84v1947h243v-1947h-243z" />
<glyph unicode="}" horiz-adv-x="798" d="M133 -121v199q89 0 114 28.5t25 123.5v246q0 131 12.5 197t45.5 101t102 56q-69 21 -102 56t-45.5 101t-12.5 197v246q0 95 -25 123.5t-114 28.5v199h60q189 0 265.5 -72.5t76.5 -265.5v-275q0 -163 34 -190.5t105 -27.5v-240q-71 0 -96 -20t-34 -58t-9 -140v-275 q0 -193 -76.5 -265.5t-265.5 -72.5h-60z" />
<glyph unicode="~" horiz-adv-x="1117" d="M851 849.5q-43 -39.5 -93 -39.5t-194.5 52t-187.5 52t-62.5 -21t-41.5 -72l-172 82q80 266 247 266q57 0 207.5 -48t163.5 -48q70 0 105 110l186 -42q-20 -80 -67.5 -166t-90.5 -125.5z" />
<glyph unicode="&#xa1;" horiz-adv-x="525" d="M405 1524v-256h-260v256h260zM327 1101l89 -1338h-284l85 1338h110z" />
<glyph unicode="&#xa2;" horiz-adv-x="788" d="M529 -17v-234h-113v238q-162 21 -234 141t-72 372v486q0 327 114 441q69 69 192 86v253h113v-249q161 -9 239.5 -115.5t78.5 -316.5v-165h-256v174q0 137 -24.5 172t-82.5 35t-82.5 -52t-24.5 -159v-676q0 -111 22.5 -163t87.5 -52q89 1 101 125q3 29 3 68v21v178h256 v-152q0 -220 -78 -333t-240 -123z" />
<glyph unicode="&#xa3;" horiz-adv-x="1077" d="M719 1393v2q0 172 -141 172q-160 0 -161 -153q0 -32 45.5 -192t69.5 -249h333v-190h-283q17 -85 17 -161q0 -150 -48.5 -251.5t-135.5 -144.5h539v-226h-872v205q126 55 190.5 157.5t64.5 268.5q0 77 -15 152h-230v190h189q-115 366 -115 416q0 190 106 291t320 101 q371 0 371 -400v-135h-244v147z" />
<glyph unicode="&#xa4;" horiz-adv-x="1159" d="M274 509l-149 150l91 91q-53 98 -53 214.5t52 213.5l-90 90l149 150l87 -88q97 55 218 55t218 -54l87 87l150 -149l-90 -90q54 -97 54 -215t-54 -216l90 -90l-150 -149l-89 88q-92 -52 -216 -52t-216 53zM579 741q93 0 151 65t58 160.5t-57 157.5t-151 62t-151.5 -64 t-57.5 -158.5t57.5 -158.5t150.5 -64z" />
<glyph unicode="&#xa5;" horiz-adv-x="866" d="M572 468h202v-153h-202v-315h-268v315h-210v153h210v151h-210v151h191l-276 990h256l174 -658h4l155 658h255l-263 -990h184v-151h-202v-151z" />
<glyph unicode="&#xa6;" horiz-adv-x="530" d="M122 -84v808h286v-808h-286zM122 931v830h286v-830h-286z" />
<glyph unicode="&#xa7;" horiz-adv-x="950" d="M492 220q74 0 74 67q0 46 -12.5 65.5t-20.5 31t-24.5 26.5t-28 25t-33 26.5t-34.5 25.5t-38.5 27.5t-75.5 54t-112 106t-62 166.5q0 189 123 302q-60 55 -91.5 132t-31.5 158q0 165 104 256.5t273 91.5t260 -96.5t91 -312.5h-273q0 97 -18 133.5t-65 36.5q-85 0 -85 -91 q0 -78 218 -224q3 -1 4 -2t3 -2t31 -19.5t73 -63t77.5 -114t33.5 -143.5t-43 -149t-109 -136q79 -73 117 -141t38 -164q0 -150 -97.5 -231.5t-278.5 -81.5t-276.5 96t-95.5 315h299q0 -102 23 -136.5t63 -34.5zM541 735q45 75 45 121q0 94 -160 161q-45 -65 -45 -117.5 t47.5 -95.5t112.5 -69z" />
<glyph unicode="&#xa8;" d="M105 903v226h282v-226h-282zM589 903v226h282v-226h-282z" />
<glyph unicode="&#xa9;" horiz-adv-x="1466" d="M900.5 476q-50.5 -53 -162.5 -53t-176.5 60t-64.5 164v401q0 256 239 256q102 0 156.5 -50.5t54.5 -149.5v-153h-165v101q0 77 -46 77q-26 0 -35 -16t-9 -48v-409q0 -25 12 -45t32 -20q46 0 46 65v149h169v-163q0 -113 -50.5 -166zM733 333q141 0 256 71t178.5 192 t63.5 265t-63.5 265t-178.5 192t-256 71t-256 -71t-178.5 -192t-63.5 -265t63.5 -265t178.5 -192t256 -71zM733 204q-184 0 -334.5 86t-236.5 236.5t-86 334.5t86 334.5t236.5 236.5t334.5 86t334.5 -86t236.5 -236.5t86 -334.5t-86 -334.5t-236.5 -236.5t-334.5 -86z" />
<glyph unicode="&#xaa;" horiz-adv-x="927" d="M386 385q-117 0 -167.5 83.5t-52.5 240.5v79q0 113 56 208q18 31 77.5 65t91 47t162.5 62v42q0 126 -8 160q-15 65 -67.5 65t-69.5 -35t-17 -121v-58h-208q-1 5 -1 36q0 175 65.5 261.5t225 86.5t227 -89t67.5 -268v-853h-212v110q-12 -44 -59.5 -83t-109.5 -39z M398.5 589.5q17.5 -36.5 57.5 -36.5t64.5 26.5t31.5 60.5v397q-103 -44 -137 -82t-34 -124v-121q0 -84 17.5 -120.5z" />
<glyph unicode="&#xab;" horiz-adv-x="1304" d="M579 327l-491 285v275l491 271v-268l-312 -141l312 -150v-272zM1133 327l-491 285v275l491 271v-268l-312 -141l312 -150v-272z" />
<glyph unicode="&#xac;" horiz-adv-x="947" d="M602 439v304h-505v236h729v-540h-224z" />
<glyph unicode="&#xad;" horiz-adv-x="696" d="M90 509v232h516v-232h-516z" />
<glyph unicode="&#xae;" horiz-adv-x="1502" d="M529 430v852h289q101 0 136 -59t35 -155.5t-20.5 -137t-72.5 -57.5q79 -15 79 -122v-321h-184v332q0 35 -15.5 45.5t-56.5 10.5v-388h-190zM751 334q141 0 256 71t178.5 192t63.5 265t-63.5 265t-178.5 192t-256 71t-256 -71t-178.5 -192t-63.5 -265t63.5 -265 t178.5 -192t256 -71zM751 205q-184 0 -334.5 86t-236.5 236.5t-86 334.5t86 334.5t236.5 236.5t334.5 86t334.5 -86t236.5 -236.5t86 -334.5t-86 -334.5t-236.5 -236.5t-334.5 -86zM720 965h48q37 0 37 65t-15.5 79.5t-69.5 14.5v-159z" />
<glyph unicode="&#xaf;" horiz-adv-x="696" d="M90 926v151h507v-151h-507z" />
<glyph unicode="&#xb0;" horiz-adv-x="915" d="M458 1112q65 0 103.5 45t38.5 112t-38.5 112t-103.5 45t-103.5 -45t-38.5 -112t38.5 -112t103.5 -45zM457 931q-162 0 -257.5 90t-95.5 247.5t95.5 248t257.5 90.5t258 -90.5t96 -247.5t-96 -247.5t-258 -90.5z" />
<glyph unicode="&#xb1;" horiz-adv-x="854" d="M336 475v233h-218v177h218v231h182v-231h220v-177h-220v-233h-182zM156 112v183h516v-183h-516z" />
<glyph unicode="&#xb2;" horiz-adv-x="831" d="M439 1621q-36 0 -55 -37.5t-19 -135.5v-154h-182l-1 74q0 169 22 241q22 71 51 103q62 68 192 68q85 0 141 -46q103 -85 103 -268.5t-87 -337.5q-38 -68 -78 -130q-107 -163 -139 -282h291v-151h-493v62q0 114 97.5 309.5t173.5 289.5q55 88 55 241.5t-72 153.5z" />
<glyph unicode="&#xb3;" horiz-adv-x="856" d="M352 1469l-1 -28h-187l-1 33q1 158 64 231t206 73t211 -75.5t68 -228.5q0 -201 -120 -241q70 -30 96.5 -100t26.5 -188q0 -172 -69.5 -257.5t-217 -85.5t-209 79t-61.5 246v78h186v-79q0 -96 17 -133t71 -37t70.5 43t16.5 150.5t-26 157.5t-98 50h-29v140h26q71 3 99 40 t28 129t-21.5 125.5t-66 33.5t-62 -35t-17.5 -121z" />
<glyph unicode="&#xb4;" horiz-adv-x="650" d="M101 1763v156l441 192v-258z" />
<glyph unicode="&#xb6;" horiz-adv-x="1119" d="M442 0v1087q-170 19 -251.5 103t-81.5 247q0 227 195 287q120 37 337 37h332v-1761h-194v1527h-143v-1527h-194z" />
<glyph unicode="&#xb7;" horiz-adv-x="480" d="M132 750v245h231v-245h-231z" />
<glyph unicode="&#xb8;" horiz-adv-x="1015" d="M317 -501q231 0 231 141q0 64 -46.5 106.5t-113.5 57.5l40 196h82l15 -141q228 -78 228 -264q0 -91 -77.5 -162t-209.5 -71q-78 0 -149 26v111z" />
<glyph unicode="&#xb9;" horiz-adv-x="628" d="M238 564v964q-66 -49 -162 -49v130q65 5 135 48t84 102h149v-1195h-206z" />
<glyph unicode="&#xba;" horiz-adv-x="908" d="M466 551q85 0 85 174v535q0 87 -19 131t-69 44t-69 -43.5t-19 -131.5v-535q0 -174 91 -174zM464 381q-166 0 -235.5 99.5t-69.5 295.5v446q0 384 305 384q173 0 237.5 -104t64.5 -280v-446q0 -297 -158 -368q-60 -27 -144 -27z" />
<glyph unicode="&#xbb;" horiz-adv-x="1304" d="M151 327v272l312 150l-312 141v268l490 -271v-275zM704 327v272l312 150l-312 141v268l491 -271v-275z" />
<glyph unicode="&#xbc;" horiz-adv-x="1535" d="M1191 0v192h-289v114l225 759h223v-741h69v-132h-69v-192h-159zM232 551v915q-56 -47 -142 -47v119q57 5 116.5 45.5t73.5 96.5h132v-1129h-180zM423 0l500 1767h189l-500 -1767h-189zM1050 324h141v540z" />
<glyph unicode="&#xbd;" horiz-adv-x="1620" d="M1296 1002q-71 0 -71 -168v-145h-170l-1 70q0 159 20 227t48 98q59 64 179 64t176 -87t56 -198.5t-23 -190t-59.5 -142t-74.5 -122.5q-99 -152 -131 -270h276v-138h-464v58q0 105 94 294t162 272q52 82 52 195t-17.5 148t-51.5 35zM232 551v915q-56 -47 -142 -47v119 q57 5 116.5 45.5t73.5 96.5h132v-1129h-180zM423 0l500 1767h189l-500 -1767h-189z" />
<glyph unicode="&#xbe;" horiz-adv-x="1555" d="M250 1404l-1 -26h-161v30q0 146 56 214.5t179 68.5q238 0 238 -283q0 -187 -105 -225q60 -28 84 -94t24 -199.5t-59.5 -212.5t-185.5 -79t-181 74t-55 227v70h160v-70q0 -92 15 -127t63.5 -35t64 40.5t15.5 142t-23.5 148.5t-87.5 47q-22 0 -25 -1v136h21q42 1 66 13 q50 25 50 124q0 101 -21 134q-20 32 -59.5 32t-55.5 -33.5t-16 -115.5zM1211 0v192h-289v114l225 759h223v-741h69v-132h-69v-192h-159zM474 0l500 1767h189l-500 -1767h-189zM1070 324h141v540z" />
<glyph unicode="&#xbf;" horiz-adv-x="1044" d="M725 1004v-316q-92 -24 -130 -45.5t-59.5 -36t-47.5 -51.5t-42.5 -106.5t-16.5 -234.5v-66q0 -126 7 -144.5t19 -36.5t45 -18q79 0 89 75q6 48 6 138v176h261v-216q0 -405 -345 -405q-188 0 -265 96q-51 63 -68 160t-17 225v28v22v18q0 70 7 138q19 180 90 271 q73 93 231 139v190h236zM719 1497v-298h-232v298h232z" />
<glyph unicode="&#xc0;" d="M690 1888l-413 94v265l413 -203v-156zM604 529l-118 884h-4l-108 -884h230zM52 0l251 1760h354l267 -1760h-250l-42 314h-284l-38 -314h-258z" />
<glyph unicode="&#xc1;" d="M276 1898v156l441 192v-258zM604 529l-118 884h-4l-108 -884h230zM52 0l251 1760h354l267 -1760h-250l-42 314h-284l-38 -314h-258z" />
<glyph unicode="&#xc2;" d="M142 1868l189 337h302l188 -337h-253l-86 236l-86 -236h-254zM604 529l-118 884h-4l-108 -884h230zM52 0l251 1760h354l267 -1760h-250l-42 314h-284l-38 -314h-258z" />
<glyph unicode="&#xc3;" d="M745.5 1924.5q-40.5 -38.5 -98 -38.5t-156.5 41t-127.5 41t-44 -3.5t-42.5 -57.5l-130 52q28 98 75.5 140t104 42t161.5 -37t126 -37h4q17 3 29.5 16.5t26.5 54.5l142 -28l-9 -48q-21 -99 -61.5 -137.5zM604 529l-118 884h-4l-108 -884h230zM52 0l251 1760h354l267 -1760 h-250l-42 314h-284l-38 -314h-258z" />
<glyph unicode="&#xc4;" d="M99 1883v226h282v-226h-282zM583 1883v226h282v-226h-282zM604 529l-118 884h-4l-108 -884h230zM52 0l251 1760h354l267 -1760h-250l-42 314h-284l-38 -314h-258z" />
<glyph unicode="&#xc5;" d="M482 1980q56 0 87.5 39t31.5 92t-31.5 91.5t-87.5 38.5t-87.5 -38.5t-31.5 -91.5t31.5 -92t87.5 -39zM651.5 1949q-62.5 -63 -170 -63t-170.5 63t-63 161t63 161t170.5 63t170 -63t62.5 -161t-62.5 -161zM604 529l-118 884h-4l-108 -884h230zM52 0l251 1760h354 l267 -1760h-250l-42 314h-284l-38 -314h-258z" />
<glyph unicode="&#xc6;" horiz-adv-x="1246" d="M52 0l314 1761h786v-232h-278v-512h262v-232h-262v-554h290v-231h-558v314h-240l-54 -314h-260zM396 512h210v1018l-35 -1z" />
<glyph unicode="&#xc7;" horiz-adv-x="961" d="M291 -501q231 0 231 141q0 64 -46.5 106.5t-113.5 57.5l40 196h82l15 -141q228 -78 228 -264q0 -91 -77.5 -162t-209.5 -71q-78 0 -149 26v111zM784 102.5q-91 -122.5 -286 -122.5t-291.5 130.5t-96.5 375.5v767q0 393 206 491q76 36 184 36q371 0 371 -468v-242h-259 v225q0 136 -23 194.5t-90 58.5t-93 -62t-26 -190v-822q0 -142 25 -203t91 -61t91 62t25 205v252h263v-249q0 -255 -91 -377.5z" />
<glyph unicode="&#xc8;" horiz-adv-x="816" d="M647 1888l-413 94v265l413 -203v-156zM132 0v1760h590v-231h-322v-512h306v-226h-306v-560h334v-231h-602z" />
<glyph unicode="&#xc9;" horiz-adv-x="816" d="M132 0v1760h590v-231h-322v-512h306v-226h-306v-560h334v-231h-602zM233 1898v156l441 192v-258z" />
<glyph unicode="&#xca;" horiz-adv-x="816" d="M132 0v1760h590v-231h-322v-512h306v-226h-306v-560h334v-231h-602zM99 1868l189 337h302l188 -337h-253l-86 236l-86 -236h-254z" />
<glyph unicode="&#xcb;" horiz-adv-x="816" d="M132 0v1760h590v-231h-322v-512h306v-226h-306v-560h334v-231h-602zM56 1883v226h282v-226h-282zM540 1883v226h282v-226h-282z" />
<glyph unicode="&#xcc;" horiz-adv-x="552" d="M484 1888l-413 94v265l413 -203v-156zM142 0v1760h268v-1760h-268z" />
<glyph unicode="&#xcd;" horiz-adv-x="552" d="M70 1898v156l441 192v-258zM142 0v1760h268v-1760h-268z" />
<glyph unicode="&#xce;" horiz-adv-x="552" d="M-64 1868l189 337h302l188 -337h-253l-86 236l-86 -236h-254zM142 0v1760h268v-1760h-268z" />
<glyph unicode="&#xcf;" horiz-adv-x="552" d="M-107 1883v226h282v-226h-282zM377 1883v226h282v-226h-282zM142 0v1760h268v-1760h-268z" />
<glyph unicode="&#xd0;" horiz-adv-x="1005" d="M399 208h88q74 0 107.5 48t33.5 176l-1 869q0 137 -33.5 195t-115.5 58h-79v-1346zM131 0v1760h395q194 0 281.5 -114.5t87.5 -337.5l1 -794q0 -266 -88 -390t-291 -124h-386zM58 848v175h478v-175h-478z" />
<glyph unicode="&#xd1;" horiz-adv-x="1069" d="M798.5 1924.5q-40.5 -38.5 -98 -38.5t-156.5 41t-127.5 41t-44 -3.5t-42.5 -57.5l-130 52q28 98 75.5 140t104 42t161.5 -37t126 -37h4q17 3 29.5 16.5t26.5 54.5l142 -28l-9 -48q-21 -99 -61.5 -137.5zM132 0v1760h210l373 -1056l-19 480v576h241v-1760h-190l-383 1093 l15 -462v-631h-247z" />
<glyph unicode="&#xd2;" horiz-adv-x="999" d="M707 1892l-413 94v265l413 -203v-156zM403.5 273q23.5 -61 96.5 -61t96 62.5t23 214.5v820q0 125 -23.5 182.5t-92 57.5t-96 -57.5t-27.5 -181.5v-821q0 -155 23.5 -216zM796 107q-92 -127 -294.5 -127t-297 127.5t-94.5 384.5v805q0 484 395 484q204 0 293.5 -123 t89.5 -361v-805q0 -258 -92 -385z" />
<glyph unicode="&#xd3;" horiz-adv-x="999" d="M403.5 273q23.5 -61 96.5 -61t96 62.5t23 214.5v820q0 125 -23.5 182.5t-92 57.5t-96 -57.5t-27.5 -181.5v-821q0 -155 23.5 -216zM796 107q-92 -127 -294.5 -127t-297 127.5t-94.5 384.5v805q0 484 395 484q204 0 293.5 -123t89.5 -361v-805q0 -258 -92 -385zM294 1902 v156l441 192v-258z" />
<glyph unicode="&#xd4;" horiz-adv-x="999" d="M403.5 273q23.5 -61 96.5 -61t96 62.5t23 214.5v820q0 125 -23.5 182.5t-92 57.5t-96 -57.5t-27.5 -181.5v-821q0 -155 23.5 -216zM796 107q-92 -127 -294.5 -127t-297 127.5t-94.5 384.5v805q0 484 395 484q204 0 293.5 -123t89.5 -361v-805q0 -258 -92 -385zM159 1872 l189 337h302l188 -337h-253l-86 236l-86 -236h-254z" />
<glyph unicode="&#xd5;" horiz-adv-x="999" d="M762.5 1928.5q-40.5 -38.5 -98 -38.5t-156.5 41t-127.5 41t-44 -3.5t-42.5 -57.5l-130 52q28 98 75.5 140t104 42t161.5 -37t126 -37h4q17 3 29.5 16.5t26.5 54.5l142 -28l-9 -48q-21 -99 -61.5 -137.5zM403.5 273q23.5 -61 96.5 -61t96 62.5t23 214.5v820 q0 125 -23.5 182.5t-92 57.5t-96 -57.5t-27.5 -181.5v-821q0 -155 23.5 -216zM796 107q-92 -127 -294.5 -127t-297 127.5t-94.5 384.5v805q0 484 395 484q204 0 293.5 -123t89.5 -361v-805q0 -258 -92 -385z" />
<glyph unicode="&#xd6;" horiz-adv-x="999" d="M403.5 273q23.5 -61 96.5 -61t96 62.5t23 214.5v820q0 125 -23.5 182.5t-92 57.5t-96 -57.5t-27.5 -181.5v-821q0 -155 23.5 -216zM796 107q-92 -127 -294.5 -127t-297 127.5t-94.5 384.5v805q0 484 395 484q204 0 293.5 -123t89.5 -361v-805q0 -258 -92 -385zM116 1887 v226h282v-226h-282zM600 1887v226h282v-226h-282z" />
<glyph unicode="&#xd7;" horiz-adv-x="710" d="M208 314l-164 164l147 147l-147 147l164 164l147 -147l147 147l164 -164l-147 -147l147 -147l-164 -164l-147 147z" />
<glyph unicode="&#xd8;" horiz-adv-x="900" d="M619 1328q-2 111 -24.5 166t-91 55t-96 -57.5t-27.5 -181.5v-662zM193 -206l-99 40l101 287q-85 127 -85 371v805q0 484 395 484q158 0 247 -74l70 199l107 -36l-96 -271q55 -116 55 -302v-805q0 -258 -92 -385t-294 -127q-136 0 -223 57zM404 273q24 -61 96.5 -61 t95.5 62.5t23 214.5v507l-231 -653q6 -44 16 -70z" />
<glyph unicode="&#xd9;" horiz-adv-x="1020" d="M718 1885l-413 94v265l413 -203v-156zM806 94.5q-92 -114.5 -295.5 -114.5t-296 115t-92.5 357v1309h268v-1304q0 -139 13 -169t31.5 -54.5t76.5 -24.5t83 34t30.5 84.5t5.5 129.5v1304h268v-1309q0 -243 -92 -357.5z" />
<glyph unicode="&#xda;" horiz-adv-x="1020" d="M806 94.5q-92 -114.5 -295.5 -114.5t-296 115t-92.5 357v1309h268v-1304q0 -139 13 -169t31.5 -54.5t76.5 -24.5t83 34t30.5 84.5t5.5 129.5v1304h268v-1309q0 -243 -92 -357.5zM309 1896v156l441 192v-258z" />
<glyph unicode="&#xdb;" horiz-adv-x="1020" d="M806 94.5q-92 -114.5 -295.5 -114.5t-296 115t-92.5 357v1309h268v-1304q0 -139 13 -169t31.5 -54.5t76.5 -24.5t83 34t30.5 84.5t5.5 129.5v1304h268v-1309q0 -243 -92 -357.5zM175 1865l189 337h302l188 -337h-253l-86 236l-86 -236h-254z" />
<glyph unicode="&#xdc;" horiz-adv-x="1020" d="M806 94.5q-92 -114.5 -295.5 -114.5t-296 115t-92.5 357v1309h268v-1304q0 -139 13 -169t31.5 -54.5t76.5 -24.5t83 34t30.5 84.5t5.5 129.5v1304h268v-1309q0 -243 -92 -357.5zM132 1880v226h282v-226h-282zM616 1880v226h282v-226h-282z" />
<glyph unicode="&#xdd;" horiz-adv-x="862" d="M229 1898v156l441 192v-258zM304 0v703l-295 1057h256l174 -658h4l155 658h255l-281 -1057v-703h-268z" />
<glyph unicode="&#xde;" horiz-adv-x="982" d="M146 0v1761h268v-264h136q207 0 281.5 -130.5t78.5 -385.5v-28q0 -415 -180 -509q-69 -36 -171 -36h-145v-408h-268zM414 630h92q84 0 110 70t26 255v24q0 164 -26.5 237.5t-107.5 73.5h-94v-660z" />
<glyph unicode="&#xdf;" horiz-adv-x="1032" d="M135 0v1417q0 188 85 276t289 88t295.5 -82.5t91.5 -281.5v-197q0 -118 -36 -182.5t-123 -92.5q123 -29 171 -121.5t48 -270.5v-77q0 -188 -32 -272q-34 -84 -74 -123q-86 -81 -257 -81h-104v212q122 0 164 36.5t42 146.5v261q0 100 -42.5 138t-154.5 38v200 q77 0 107 32.5t30 105.5v268q0 69 -26.5 96.5t-89 27.5t-91 -28.5t-28.5 -95.5v-1438h-265z" />
<glyph unicode="&#xe0;" horiz-adv-x="981" d="M718 1628l-413 94v265l413 -203v-156zM591 814q-126 -56 -170 -106t-44 -155v-161q0 -105 22 -150.5t71.5 -45.5t81 33.5t39.5 75.5v509zM382 -15q-147 0 -210 105.5t-65 303.5v96q0 192 104 291q67 65 227 126q29 11 80.5 30t72.5 27v131q0 122 -17.5 165.5t-80 43.5 t-83.5 -46t-21 -155v-67h-262v45q0 213 79.5 325t282 112t288 -112t85.5 -336v-1070h-267v149q-20 -69 -76.5 -116.5t-136.5 -47.5z" />
<glyph unicode="&#xe1;" horiz-adv-x="981" d="M304 1638v156l441 192v-258zM591 814q-126 -56 -170 -106t-44 -155v-161q0 -105 22 -150.5t71.5 -45.5t81 33.5t39.5 75.5v509zM382 -15q-147 0 -210 105.5t-65 303.5v96q0 192 104 291q67 65 227 126q29 11 80.5 30t72.5 27v131q0 122 -17.5 165.5t-80 43.5t-83.5 -46 t-21 -155v-67h-262v45q0 213 79.5 325t282 112t288 -112t85.5 -336v-1070h-267v149q-20 -69 -76.5 -116.5t-136.5 -47.5z" />
<glyph unicode="&#xe2;" horiz-adv-x="981" d="M170 1608l189 337h302l188 -337h-253l-86 236l-86 -236h-254zM591 814q-126 -56 -170 -106t-44 -155v-161q0 -105 22 -150.5t71.5 -45.5t81 33.5t39.5 75.5v509zM382 -15q-147 0 -210 105.5t-65 303.5v96q0 192 104 291q67 65 227 126q29 11 80.5 30t72.5 27v131 q0 122 -17.5 165.5t-80 43.5t-83.5 -46t-21 -155v-67h-262v45q0 213 79.5 325t282 112t288 -112t85.5 -336v-1070h-267v149q-20 -69 -76.5 -116.5t-136.5 -47.5z" />
<glyph unicode="&#xe3;" horiz-adv-x="981" d="M773.5 1664.5q-40.5 -38.5 -98 -38.5t-156.5 41t-127.5 41t-44 -3.5t-42.5 -57.5l-130 52q28 98 75.5 140t104 42t161.5 -37t126 -37h4q17 3 29.5 16.5t26.5 54.5l142 -28l-9 -48q-21 -99 -61.5 -137.5zM591 814q-126 -56 -170 -106t-44 -155v-161q0 -105 22 -150.5 t71.5 -45.5t81 33.5t39.5 75.5v509zM382 -15q-147 0 -210 105.5t-65 303.5v96q0 192 104 291q67 65 227 126q29 11 80.5 30t72.5 27v131q0 122 -17.5 165.5t-80 43.5t-83.5 -46t-21 -155v-67h-262v45q0 213 79.5 325t282 112t288 -112t85.5 -336v-1070h-267v149 q-20 -69 -76.5 -116.5t-136.5 -47.5z" />
<glyph unicode="&#xe4;" horiz-adv-x="981" d="M127 1623v226h282v-226h-282zM611 1623v226h282v-226h-282zM591 814q-126 -56 -170 -106t-44 -155v-161q0 -105 22 -150.5t71.5 -45.5t81 33.5t39.5 75.5v509zM382 -15q-147 0 -210 105.5t-65 303.5v96q0 192 104 291q67 65 227 126q29 11 80.5 30t72.5 27v131 q0 122 -17.5 165.5t-80 43.5t-83.5 -46t-21 -155v-67h-262v45q0 213 79.5 325t282 112t288 -112t85.5 -336v-1070h-267v149q-20 -69 -76.5 -116.5t-136.5 -47.5z" />
<glyph unicode="&#xe5;" horiz-adv-x="981" d="M510 1720q56 0 87.5 39t31.5 92t-31.5 91.5t-87.5 38.5t-87.5 -38.5t-31.5 -91.5t31.5 -92t87.5 -39zM679.5 1689q-62.5 -63 -170 -63t-170.5 63t-63 161t63 161t170.5 63t170 -63t62.5 -161t-62.5 -161zM591 814q-126 -56 -170 -106t-44 -155v-161q0 -105 22 -150.5 t71.5 -45.5t81 33.5t39.5 75.5v509zM382 -15q-147 0 -210 105.5t-65 303.5v96q0 192 104 291q67 65 227 126q29 11 80.5 30t72.5 27v131q0 122 -17.5 165.5t-80 43.5t-83.5 -46t-21 -155v-67h-262v45q0 213 79.5 325t282 112t288 -112t85.5 -336v-1070h-267v149 q-20 -69 -76.5 -116.5t-136.5 -47.5z" />
<glyph unicode="&#xe6;" horiz-adv-x="1443" d="M1075 464l-1 84v21h263v-70q0 -203 -29.5 -294t-67.5 -133q-83 -90 -255 -90q-97 0 -165.5 39t-101.5 107q-38 -59 -114.5 -101t-165.5 -42q-162 0 -246.5 110t-84.5 311v100q2 140 74 250q25 38 95 78t109.5 56.5t112.5 43.5t94 35v57.5v86t-18 127t-80 64.5 t-83.5 -43.5t-21.5 -151.5v-73h-261q-1 6 -1 80q0 178 79.5 290t294.5 112q162 0 229 -109q77 109 264.5 109t266 -121t78.5 -344q0 -301 -2 -327h-477v-254q0 -147 23 -211.5t81.5 -64.5t78.5 39q32 61 32 229zM399 242.5q22 -45.5 71.5 -45.5t81 33.5t39.5 75.5v497 q-67 -30 -103 -50q-36 -19 -64 -49q-47 -50 -47 -160v-151q0 -105 22 -150.5zM860 906h214v173q0 123 -19.5 176.5t-76 53.5t-75.5 -25q-31 -42 -37 -93t-6 -134v-151z" />
<glyph unicode="&#xe7;" horiz-adv-x="943" d="M274 -501q231 0 231 141q0 64 -46.5 106.5t-113.5 57.5l40 196h82l15 -141q228 -78 228 -264q0 -91 -77.5 -162t-209.5 -71q-78 0 -149 26v111zM494 -18q-225 0 -304.5 133t-79.5 385v486q0 327 114 441q91 91 275 91t266 -111.5t82 -321.5v-165h-256v174 q0 137 -24.5 172t-82.5 35t-82.5 -52t-24.5 -159v-676q0 -111 22.5 -163t87.5 -52q89 1 101 125q3 29 3 68v21v178h256v-152q0 -220 -82 -338.5t-271 -118.5z" />
<glyph unicode="&#xe8;" horiz-adv-x="958" d="M694 1627l-413 94v265l413 -203v-156zM482 -18q-253 0 -326 193q-46 123 -46 324v559q0 460 383 460q204 0 282.5 -121t78.5 -344v-321h-477v-295q0 -156 27 -198.5t81 -42.5t70 25q27 44 31 90t4 126v132h262v-80q0 -204 -32 -293t-74 -129q-88 -85 -264 -85zM376 887 h214v192q0 123 -19.5 176.5t-79.5 53.5h-1q-104 0 -112 -159q-2 -30 -2 -78v-185z" />
<glyph unicode="&#xe9;" horiz-adv-x="958" d="M482 -18q-253 0 -326 193q-46 123 -46 324v559q0 460 383 460q204 0 282.5 -121t78.5 -344v-321h-477v-295q0 -156 27 -198.5t81 -42.5t70 25q27 44 31 90t4 126v132h262v-80q0 -204 -32 -293t-74 -129q-88 -85 -264 -85zM376 887h214v192q0 123 -19.5 176.5t-79.5 53.5 h-1q-104 0 -112 -159q-2 -30 -2 -78v-185zM281 1638v156l441 192v-258z" />
<glyph unicode="&#xea;" horiz-adv-x="958" d="M482 -18q-253 0 -326 193q-46 123 -46 324v559q0 460 383 460q204 0 282.5 -121t78.5 -344v-321h-477v-295q0 -156 27 -198.5t81 -42.5t70 25q27 44 31 90t4 126v132h262v-80q0 -204 -32 -293t-74 -129q-88 -85 -264 -85zM376 887h214v192q0 123 -19.5 176.5t-79.5 53.5 h-1q-104 0 -112 -159q-2 -30 -2 -78v-185zM146 1607l189 337h302l188 -337h-253l-86 236l-86 -236h-254z" />
<glyph unicode="&#xeb;" horiz-adv-x="958" d="M482 -18q-253 0 -326 193q-46 123 -46 324v559q0 460 383 460q204 0 282.5 -121t78.5 -344v-321h-477v-295q0 -156 27 -198.5t81 -42.5t70 25q27 44 31 90t4 126v132h262v-80q0 -204 -32 -293t-74 -129q-88 -85 -264 -85zM376 887h214v192q0 123 -19.5 176.5t-79.5 53.5 h-1q-104 0 -112 -159q-2 -30 -2 -78v-185zM103 1622v226h282v-226h-282zM587 1622v226h282v-226h-282z" />
<glyph unicode="&#xec;" horiz-adv-x="537" d="M472 1628l-413 94v265l413 -203v-156zM136 0v1500h265v-1500h-265z" />
<glyph unicode="&#xed;" horiz-adv-x="537" d="M136 0v1500h265v-1500h-265zM59 1638v156l441 192v-258z" />
<glyph unicode="&#xee;" horiz-adv-x="537" d="M136 0v1500h265v-1500h-265zM-76 1608l189 337h302l188 -337h-253l-86 236l-86 -236h-254z" />
<glyph unicode="&#xef;" horiz-adv-x="537" d="M136 0v1500h265v-1500h-265zM-119 1623v226h282v-226h-282zM365 1623v226h282v-226h-282z" />
<glyph unicode="&#xf0;" horiz-adv-x="1013" d="M430 1098q116 0 175 -56q0 51 -15.5 170.5t-38.5 165.5l-209 -116l-65 137l189 106q-71 81 -197 125l137 151q170 -26 281 -156l199 110l66 -137l-179 -100q45 -80 77.5 -290t32.5 -351v-330q0 -347 -113 -457q-94 -90 -279 -91q-224 0 -310 125.5t-86 378.5v103 q0 267 80 389.5t255 122.5zM489 212q72 0 99 55.5t27 188.5v320q-6 43 -41.5 70t-97.5 27t-87.5 -58t-25.5 -202v-179q0 -127 27 -174.5t99 -47.5z" />
<glyph unicode="&#xf1;" horiz-adv-x="1020" d="M773.5 1664.5q-40.5 -38.5 -98 -38.5t-156.5 41t-127.5 41t-44 -3.5t-42.5 -57.5l-130 52q28 98 75.5 140t104 42t161.5 -37t126 -37h4q17 3 29.5 16.5t26.5 54.5l142 -28l-9 -48q-21 -99 -61.5 -137.5zM638 1518q260 0 260 -337v-1181h-265v1165q0 65 -29.5 102 t-85.5 37t-88.5 -48t-32.5 -129v-1127h-265v1500h265v-172q20 80 86 135t155 55z" />
<glyph unicode="&#xf2;" horiz-adv-x="970" d="M693 1628l-413 94v265l413 -203v-156zM486 196q62 0 84.5 54.5t22.5 162.5v671q0 110 -23 165t-85 55t-85 -54.5t-23 -165.5v-671q0 -165 54 -202q22 -15 55 -15zM486 -18q-212 0 -294 127t-82 367v561q0 481 375 481t375 -481v-561q0 -375 -193 -461q-74 -33 -181 -33z " />
<glyph unicode="&#xf3;" horiz-adv-x="970" d="M486 196q62 0 84.5 54.5t22.5 162.5v671q0 110 -23 165t-85 55t-85 -54.5t-23 -165.5v-671q0 -165 54 -202q22 -15 55 -15zM486 -18q-212 0 -294 127t-82 367v561q0 481 375 481t375 -481v-561q0 -375 -193 -461q-74 -33 -181 -33zM280 1638v156l441 192v-258z" />
<glyph unicode="&#xf4;" horiz-adv-x="970" d="M486 196q62 0 84.5 54.5t22.5 162.5v671q0 110 -23 165t-85 55t-85 -54.5t-23 -165.5v-671q0 -165 54 -202q22 -15 55 -15zM486 -18q-212 0 -294 127t-82 367v561q0 481 375 481t375 -481v-561q0 -375 -193 -461q-74 -33 -181 -33zM145 1608l189 337h302l188 -337h-253 l-86 236l-86 -236h-254z" />
<glyph unicode="&#xf5;" horiz-adv-x="970" d="M748.5 1664.5q-40.5 -38.5 -98 -38.5t-156.5 41t-127.5 41t-44 -3.5t-42.5 -57.5l-130 52q28 98 75.5 140t104 42t161.5 -37t126 -37h4q17 3 29.5 16.5t26.5 54.5l142 -28l-9 -48q-21 -99 -61.5 -137.5zM486 196q62 0 84.5 54.5t22.5 162.5v671q0 110 -23 165t-85 55 t-85 -54.5t-23 -165.5v-671q0 -165 54 -202q22 -15 55 -15zM486 -18q-212 0 -294 127t-82 367v561q0 481 375 481t375 -481v-561q0 -375 -193 -461q-74 -33 -181 -33z" />
<glyph unicode="&#xf6;" horiz-adv-x="970" d="M486 196q62 0 84.5 54.5t22.5 162.5v671q0 110 -23 165t-85 55t-85 -54.5t-23 -165.5v-671q0 -165 54 -202q22 -15 55 -15zM486 -18q-212 0 -294 127t-82 367v561q0 481 375 481t375 -481v-561q0 -375 -193 -461q-74 -33 -181 -33zM102 1623v226h282v-226h-282zM586 1623 v226h282v-226h-282z" />
<glyph unicode="&#xf7;" horiz-adv-x="804" d="M253 237v298h298v-298h-298zM94 638v232h616v-232h-616zM253 976v298h298v-298h-298z" />
<glyph unicode="&#xf8;" horiz-adv-x="879" d="M573 1242q-40 51 -87 62q-63 0 -86 -54.5t-23 -165.5v-540zM240 55q-130 110 -130 421v561q0 481 376 481q89 0 156 -27l51 181l101 -28l-59 -211q125 -117 125 -396v-561q0 -375 -193 -461q-74 -33 -171 -33t-162 22l-50 -177l-100 28zM402 247q24 -51 85 -51t83.5 54.5 t22.5 162.5v515z" />
<glyph unicode="&#xf9;" horiz-adv-x="1015" d="M725 1628l-413 94v265l413 -203v-156zM389 -19q-267 0 -267 359v1160h266v-1119q0 -93 23 -137.5t86 -44.5q121 0 121 180l1 1121h264v-1500h-265v156q-63 -175 -229 -175z" />
<glyph unicode="&#xfa;" horiz-adv-x="1015" d="M389 -19q-267 0 -267 359v1160h266v-1119q0 -93 23 -137.5t86 -44.5q121 0 121 180l1 1121h264v-1500h-265v156q-63 -175 -229 -175zM311 1638v156l441 192v-258z" />
<glyph unicode="&#xfb;" horiz-adv-x="1015" d="M389 -19q-267 0 -267 359v1160h266v-1119q0 -93 23 -137.5t86 -44.5q121 0 121 180l1 1121h264v-1500h-265v156q-63 -175 -229 -175zM177 1608l189 337h302l188 -337h-253l-86 236l-86 -236h-254z" />
<glyph unicode="&#xfc;" horiz-adv-x="1015" d="M389 -19q-267 0 -267 359v1160h266v-1119q0 -93 23 -137.5t86 -44.5q121 0 121 180l1 1121h264v-1500h-265v156q-63 -175 -229 -175zM134 1623v226h282v-226h-282zM618 1623v226h282v-226h-282z" />
<glyph unicode="&#xfd;" horiz-adv-x="852" d="M225 1638v156l441 192v-258zM88 -265v183h87q50 0 77.5 8t30.5 32q6 10 6 37t-7 73l-240 1433h252l96 -768l40 -404h22l36 404l88 768h251l-260 -1565q-17 -113 -57 -157t-140 -44h-282z" />
<glyph unicode="&#xfe;" horiz-adv-x="1000" d="M133 -285v2060h266v-410q28 71 87.5 110.5t125.5 39.5t116 -24q91 -44 124 -156t33 -287v-547q0 -311 -75.5 -415t-223.5 -104q-58 0 -107 31t-80 78v-376h-266zM515 198q63 0 84 60t21 193v618q0 122 -11.5 153t-28 55t-60.5 24q-44 -1 -68 -19q-53 -39 -53 -206v-6 v-630q0 -188 57 -226q23 -16 59 -16z" />
<glyph unicode="&#xff;" horiz-adv-x="852" d="M48 1623v226h282v-226h-282zM532 1623v226h282v-226h-282zM88 -265v183h87q50 0 77.5 8t30.5 32q6 10 6 37t-7 73l-240 1433h252l96 -768l40 -404h22l36 404l88 768h251l-260 -1565q-17 -113 -57 -157t-140 -44h-282z" />
<glyph unicode="&#x131;" horiz-adv-x="537" d="M136 0v1500h265v-1500h-265z" />
<glyph unicode="&#x152;" horiz-adv-x="1235" d="M497 0q-203 0 -295 119.5t-92 374.5v801q0 234 92 350t298 116h641v-232h-265v-512h249v-232h-249v-554h277v-231h-656zM497 233h111v1291h-108q-70 0 -96 -49.5t-26 -169.5v-814q0 -152 22 -204.5t97 -53.5z" />
<glyph unicode="&#x153;" horiz-adv-x="1451" d="M492 -18q-208 0 -295 125t-87 371v559q0 224 92.5 352.5t289.5 128.5q148 0 245 -108q92 108 248 108q205 0 283.5 -121t78.5 -344q0 -301 -2 -327h-477v-289q0 -157 28 -199t81.5 -42t73.5 39q31 59 31 195t-1 139h264v-70q0 -206 -32.5 -296.5t-74.5 -132.5 q-88 -88 -251 -88t-250 103q-95 -103 -245 -103zM404 251q24 -55 87 -55t87 55.5t24 161.5v671q0 109 -24.5 164.5t-87 55.5t-86.5 -55t-24 -165v-671q0 -107 24 -162zM868 1059l1 -153h213v173q0 123 -19.5 176.5t-79.5 53.5q-105 0 -113 -171q-2 -32 -2 -79z" />
<glyph unicode="&#x178;" horiz-adv-x="862" d="M52 1883v226h282v-226h-282zM536 1883v226h282v-226h-282zM304 0v703l-295 1057h256l174 -658h4l155 658h255l-281 -1057v-703h-268z" />
<glyph unicode="&#x2c6;" horiz-adv-x="970" d="M145 1608l189 337h302l188 -337h-253l-86 236l-86 -236h-254z" />
<glyph unicode="&#x2da;" horiz-adv-x="923" d="M462 1000q56 0 87.5 39t31.5 92t-31.5 91.5t-87.5 38.5t-87.5 -38.5t-31.5 -91.5t31.5 -92t87.5 -39zM631.5 969q-62.5 -63 -170 -63t-170.5 63t-63 161t63 161t170.5 63t170 -63t62.5 -161t-62.5 -161z" />
<glyph unicode="&#x2dc;" horiz-adv-x="1117" d="M821.5 944.5q-40.5 -38.5 -98 -38.5t-156.5 41t-127.5 41t-44 -3.5t-42.5 -57.5l-130 52q28 98 75.5 140t104 42t161.5 -37t126 -37h4q17 3 29.5 16.5t26.5 54.5l142 -28l-9 -48q-21 -99 -61.5 -137.5z" />
<glyph unicode="&#x2013;" horiz-adv-x="756" d="M120 509v232h516v-232h-516z" />
<glyph unicode="&#x2014;" horiz-adv-x="1153" d="M60 509v232h1032v-232h-1032z" />
<glyph unicode="&#x2018;" horiz-adv-x="586" d="M119 1065v271l136 439h153l-93 -430h153v-280h-349z" />
<glyph unicode="&#x2019;" horiz-adv-x="586" d="M188 1065l94 429h-153v281h349v-272l-136 -438h-154z" />
<glyph unicode="&#x201a;" horiz-adv-x="484" d="M138 -324l78 324h-136v258h331v-249l-109 -333h-164z" />
<glyph unicode="&#x201c;" horiz-adv-x="1030" d="M140 1141v253l110 381h164l-78 -372h135v-262h-331zM606 1141v253l110 381h164l-78 -372h135v-262h-331z" />
<glyph unicode="&#x201d;" horiz-adv-x="1077" d="M212 1141l78 372h-135v262h331v-253l-110 -381h-164zM678 1141l78 372h-135v262h331v-253l-110 -381h-164z" />
<glyph unicode="&#x201e;" horiz-adv-x="1016" d="M208 -373l78 373h-135v261h330v-253l-109 -381h-164zM674 -373l78 373h-135v261h330v-253l-109 -381h-164z" />
<glyph unicode="&#x2022;" horiz-adv-x="861" d="M430 451q-127 0 -196 77t-69 213t69 213t196 77t196.5 -77t69.5 -213t-69.5 -213t-196.5 -77z" />
<glyph unicode="&#x2039;" horiz-adv-x="606" d="M548 327l-491 285v275l491 271v-268l-312 -141l312 -150v-272z" />
<glyph unicode="&#x203a;" horiz-adv-x="727" d="M139 327v272l312 150l-312 141v268l491 -271v-275z" />
<glyph unicode="&#x20ac;" horiz-adv-x="1076" d="M784 102.5q-91 -122.5 -286 -122.5t-291.5 130.5t-96.5 375.5v239h-87v144h87v97h-87v136h87v151q0 393 206 491q76 36 184 36q371 0 371 -468v-242h-259v225q0 136 -23 194.5t-90 58.5t-93 -62t-26 -190v-194h168v-136h-168v-97h168v-144h-168v-251q0 -142 25 -203 t91 -61t91 62t25 205v252h263v-249q0 -255 -91 -377.5z" />
<glyph unicode="&#x2122;" horiz-adv-x="1676" d="M694 507v1254h287l148 -878l144 878h288v-1254h-188v489l7 473l-157 -962h-185l-165 962l7 -473v-489h-186zM231 507v1085h-149v169h490v-169h-143v-1085h-198z" />
<glyph unicode="&#x25fc;" horiz-adv-x="1500" d="M0 1500h1500v-1500h-1500v1500z" />
<glyph unicode="&#xfb01;" horiz-adv-x="1171" d="M438 1500h600v-1500h-265v1309h-335v-1309h-265v1309h-116v191h117v66q0 126 65.5 195.5t174.5 69.5t176 -25v-166q-30 4 -70 4q-82 0 -82 -86v-58zM773 1800h265v-193h-265v193z" />
<glyph unicode="&#xfb02;" horiz-adv-x="1171" d="M493 1798q190 0 543 -61v-1737h-264v1593q-130 29 -186 29t-92 -10q-56 -16 -56 -79v-92h152v-191h-152v-1250h-265v1250h-116v191h117v78q0 156 51 207t123 61.5t145 10.5z" />
<glyph unicode="&#xfb03;" horiz-adv-x="1808" d="M1075 1500h600v-1500h-265v1309h-335v-1309h-265v1309h-372v-1309h-265v1309h-116v191h117v71q0 126 65.5 195.5t174.5 69.5t176 -25v-166q-30 4 -70 4q-82 0 -82 -86v-63h373v71q0 126 65.5 195.5t174.5 69.5t176 -25v-166q-29 4 -69 4q-82 0 -83 -86v-63zM1410 1800 h265v-193h-265v193z" />
<glyph unicode="&#xfb04;" horiz-adv-x="1808" d="M811 1441v78q0 156 51 207t123 61.5t145 10.5q190 0 543 -61v-1737h-264v1593q-131 29 -186.5 29t-91.5 -10q-56 -16 -56 -79v-92h152v-191h-152v-1250h-265v1250h-372v-1250h-265v1250h-116v191h117v78q0 126 65.5 195.5t174.5 69.5t176 -25v-166q-30 4 -70 4 q-82 0 -82 -86v-70h373z" />
</font>
</defs>
</svg>
