<?xml version="1.0" standalone="no"?>
<!DOCTYPE svg PUBLIC "-//W3C//DTD SVG 1.1//EN" "http://www.w3.org/Graphics/SVG/1.1/DTD/svg11.dtd" >
<svg xmlns="http://www.w3.org/2000/svg">
<metadata></metadata>
<defs>
<font id="lcars-monoregular" horiz-adv-x="427" >
<font-face units-per-em="1024" ascent="1024" descent="0" />
<missing-glyph horiz-adv-x="500" />
<glyph horiz-adv-x="0" d="M0 0v0v0v0z" />
<glyph horiz-adv-x="0" d="M0 0v0v0v0z" />
<glyph horiz-adv-x="341" />
<glyph horiz-adv-x="0" d="M0 0v0v0v0z" />
<glyph unicode=" " horiz-adv-x="0" d="M0 0v0v0v0z" />
<glyph unicode="#" d="M198 768h56l-46 -152h75l46 152h57l-46 -152h87l-17 -60h-87l-28 -88h92l-18 -60h-91l-46 -152h-56l46 152h-75l-48 -152h-56l46 152h-89l19 60h89l27 88h-96l19 60h94zM189 556l-27 -88h77l27 88h-77z" />
<glyph unicode="-" d="M0 580h427v-136h-427v136z" />
<glyph unicode="." d="M0 137h137v-137h-137v137z" />
<glyph unicode="0" d="M375 72q-25 -36 -66 -54t-96 -18q-56 0 -96.5 18t-65.5 54t-38 88t-13 122v477q0 66 13 115.5t38 82.5q26 34 66.5 50.5t95.5 16.5t96 -16.5t66 -50.5q26 -33 39 -82.5t13 -115.5v-477q0 -70 -13 -122t-39 -88v0zM212 131q16 0 30 7t23 21q8 14 13 43.5t5 75.5v488 q0 55 -12.5 86.5t-36.5 38.5q-5 1 -13 1.5t-18 0.5t-20.5 -5.5t-20.5 -17.5q-10 -11 -14.5 -37t-4.5 -67v-488q0 -46 4 -76.5t13 -44.5q9 -13 22 -19.5t30 -6.5v0z" />
<glyph unicode="1" d="M195 0v831q-11 -11 -25 -21t-32 -16q-18 -7 -35 -10.5t-35 -3.5v116q25 4 48.5 14t45.5 27t39.5 38.5t28.5 48.5h122v-1024h-157v0z" />
<glyph unicode="2" d="M12 0v60q0 39 6.5 78.5t20.5 78.5q14 38 35 81.5t51 92.5q1 1 11.5 19t32.5 53q20 34 35.5 57.5t24.5 35.5q23 37 34.5 88t11.5 115q0 66 -14.5 98t-43.5 32q-25 0 -39.5 -18t-20.5 -54q-1 -14 -2 -33.5t-1 -42.5v-128h-154v61q0 95 9 158.5t29 95.5q17 34 42.5 55 t57.5 31q18 5 40 7.5t47 2.5q26 0 49 -5.5t43 -16.5q20 -12 36 -26.5t28 -35.5q23 -38 34.5 -88t11.5 -111q0 -62 -13 -115.5t-37 -99.5t-49 -87t-50 -77q-45 -65 -73 -126t-41 -115h242v-121h-394v0z" />
<glyph unicode="3" d="M374 73q-26 -37 -68 -55t-99 -18q-58 0 -98 16.5t-63 50.5t-34.5 88t-11.5 127v64h140v-70q0 -40 2.5 -69.5t9.5 -44.5q6 -15 20 -23.5t35 -8.5q20 0 34.5 9t21.5 28q8 19 10.5 52.5t2.5 82.5t-4.5 83t-13.5 54t-27 30.5t-45 10.5h-39v116h41q27 0 44.5 9t26.5 26 q11 18 15 48t4 72q0 41 -4 69t-13 42q-8 14 -21.5 21.5t-31.5 7.5t-30.5 -7.5t-18.5 -21.5q-8 -15 -11 -41t-3 -63v-31h-143v31q0 69 11.5 119t35.5 82q24 33 63.5 49t95.5 16q57 0 97.5 -16.5t66.5 -48.5q27 -33 40 -82t13 -116q0 -41 -6.5 -75.5t-19.5 -62.5 q-12 -28 -30.5 -47.5t-44.5 -29.5q28 -13 48 -35.5t32 -53.5q12 -30 18 -70.5t6 -89.5q-1 -74 -14 -130t-40 -94v0z" />
<glyph unicode="4" d="M229 0v181h-229v114l205 729h150v-719h72v-126h-72v-179h-126v0zM109 305h120v506l-120 -506v0z" />
<glyph unicode="5" d="M210 0q-105 0 -157.5 52.5t-52.5 155.5v127h152v-111q0 -35 7.5 -57t21.5 -30q5 -3 14 -5t20 -2h1h2q27 0 40 24.5t13 74.5v261q0 28 -2.5 48.5t-9.5 33.5q-6 14 -17.5 20.5t-29.5 6.5q-31 0 -47.5 -24.5t-16.5 -74.5l-141 5v519h392v-138h-244v-205q5 10 16 19t25 15 q16 6 31.5 10t33.5 4q46 0 78 -19.5t50 -59.5q18 -38 27 -100.5t9 -146.5q0 -85 -3 -143.5t-9 -92.5q-6 -33 -15 -58t-21 -42q-23 -34 -64.5 -50.5t-102.5 -16.5v0z" />
<glyph unicode="6" d="M147 591q16 24 46.5 35.5t72.5 11.5t73 -18t50 -53t28.5 -91.5t9.5 -134.5v-54q0 -72 -11.5 -125.5t-33.5 -89.5q-21 -36 -62.5 -54t-102.5 -18q-76 0 -123.5 29.5t-69.5 89.5q-12 35 -18 83t-6 109v411q0 109 24 177t72 96q24 14 54.5 21.5t67.5 7.5q49 0 85 -14.5 t59 -43.5q22 -29 33 -78t11 -117v-51h-136v21q0 44 -2.5 75t-8.5 46q-5 15 -17 23t-32 8q-19 0 -32.5 -8t-18.5 -25q-5 -16 -8.5 -48t-3.5 -78v-143v0zM162 166q8 -17 22 -25t33 -8t32.5 6.5t20.5 20.5q6 13 9.5 38.5t3.5 60.5v96q0 42 -3.5 72t-9.5 47q-7 18 -19 26.5 t-29 8.5t-30 -4t-23 -12q-10 -7 -15.5 -16.5t-8.5 -20.5v-183q1 -37 5 -64t12 -43z" />
<glyph unicode="7" d="M217 0h-161q4 50 9.5 97.5t12.5 93.5t16 89.5t20 84.5q22 83 41.5 151.5t37.5 121.5q18 54 30 91.5t19 58.5q8 22 13.5 39.5t10.5 29.5q4 13 6.5 20.5t3.5 9.5h-276v137h427v-113q-2 -14 -6.5 -31t-10.5 -39q-8 -21 -17.5 -48.5t-22.5 -62.5q-32 -90 -58 -181.5 t-45.5 -182.5t-31.5 -182.5t-18 -183.5v0z" />
<glyph unicode="8" d="M374 63q-26 -32 -65.5 -47.5t-93.5 -15.5t-94 15.5t-66 47.5t-40 80.5t-15 112.5v21.5v55.5q0 36 5.5 70t16.5 65q12 30 27 53t35 37q-40 28 -59.5 82t-19.5 135q0 65 12.5 113.5t37.5 77.5q24 28 64.5 43t97.5 15q56 0 96 -14.5t64 -43.5t36 -77t12 -116 q0 -81 -19.5 -134.5t-59.5 -82.5q18 -14 33 -36t25 -54q11 -32 16 -67t5 -73v-68q1 -66 -12.5 -114.5t-38.5 -80.5v0zM162 159q7 -14 20 -21.5t33 -7.5q21 0 33.5 7.5t17.5 21.5t8.5 40.5t3.5 63.5v82q0 77 -15.5 115t-45.5 38q-16 0 -28 -10t-22 -29q-9 -20 -14 -48.5 t-5 -65.5v-84q2 -37 5 -62.5t9 -39.5v0zM181 613q6 -7 14.5 -9.5t19.5 -2.5v0v0q10 0 18 3.5t14 9.5q7 7 12 19.5t9 30.5t6 42.5t2 56.5t-1.5 55t-4.5 39q-4 15 -8.5 25.5t-10.5 15.5q-7 5 -15.5 7.5t-20.5 2.5q-11 0 -20 -2.5t-16 -7.5q-13 -13 -19 -48t-6 -92q0 -59 7 -95 t20 -50v0z" />
<glyph unicode="9" d="M377 72q-25 -36 -64 -54t-93 -18q-52 0 -91.5 14.5t-63.5 43.5t-37 77.5t-13 115.5v56h144v-20q0 -46 3.5 -77t8.5 -46q6 -16 17.5 -23.5t28.5 -7.5q16 0 26.5 3.5t14.5 10.5q4 6 7.5 13.5t5.5 13.5q3 6 4 28t1 61v147q-15 -11 -38 -16t-54 -5q-50 0 -85.5 18t-57.5 56 q-21 35 -31 91t-10 130v36q0 94 15.5 156.5t47.5 94.5q27 27 64 40t85 13t83 -9t58 -29q23 -19 37.5 -44.5t22.5 -57.5q6 -33 10 -75.5t4 -95.5v-399q0 -86 -13 -146t-37 -96v0zM213 514q28 0 44 12.5t19 36.5v190q0 37 -3.5 63.5t-9.5 41.5q-7 16 -19.5 24.5t-31.5 8.5 q-20 0 -32.5 -8t-19.5 -25q-6 -16 -9 -43t-3 -64v-89q0 -41 4 -70t10 -46q7 -17 19.5 -24.5t31.5 -7.5v0z" />
<glyph unicode=":" d="M154 768h119v-119h-119v119v0zM154 375h119v-119h-119v119v0z" />
<glyph unicode="@" d="M256 205l-17 188h-51l-17 -188h85v0zM222 853h-17l-5 -174l-12 -201h51l-12 201l-5 174v0zM311 205q20 0 33.5 13.5t13.5 34.5v655q0 22 -13.5 35t-33.5 13h-195q-20 0 -34 -13t-14 -35v-794q0 -20 14 -33t34 -13h311v-68h-301q-52 0 -89 37t-37 89v772q0 52 37 89t89 37 h173q53 0 90.5 -37t37.5 -89v-633q0 -53 -37 -90t-90 -37h-198l52 749h119l34 -682h4v0z" />
<glyph unicode="A" d="M0 0l123 1024h172l132 -1024h-123l-21 159h-138l-19 -159h-126v0zM270 268l-58 579h-2l-53 -579h113v0z" />
<glyph unicode="B" d="M408 761q0 -83 -21.5 -133.5t-63.5 -69.5q51 -18 76.5 -78t25.5 -163v-27q0 -77 -13 -132.5t-38 -89.5t-65.5 -51t-96.5 -17h-212v1024h210q54 0 92 -13t62 -40q23 -27 33.5 -71.5t12.5 -105.5v-33h-2zM147 609h54q20 0 32.5 6.5t17.5 19.5q6 13 9 39.5t3 66.5v61 q0 30 -4 50t-12 30q-7 11 -20 16t-31 5h-49v-294v0zM147 121h53q21 0 36.5 8t24.5 25q9 15 13 44t4 70v82q0 38 -3.5 66t-9.5 45q-8 16 -21.5 24t-33.5 8h-63v-372v0z" />
<glyph unicode="C" d="M375 70q-25 -35 -64.5 -52.5t-93.5 -17.5t-95 18.5t-67 56.5q-27 37 -41 90t-14 123v436q0 112 28.5 181.5t85.5 98.5q22 10 47.5 15t55.5 5q52 0 90.5 -16.5t64.5 -50t38.5 -83.5t12.5 -116v-138h-145v128q0 38 -3.5 66t-9.5 44q-7 17 -19.5 26t-30.5 9q-19 0 -32 -9 t-19 -27q-8 -18 -11 -45t-3 -63v-467q0 -41 3.5 -70t10.5 -46q6 -18 19 -26.5t32 -8.5q18 0 31 9t20 27t10.5 47.5t3.5 68.5v144h147v-142q0 -73 -13 -126.5t-39 -88.5v0z" />
<glyph unicode="D" d="M0 0v1024h220q54 0 93.5 -16.5t63.5 -50.5q24 -33 37 -82t13 -114v-462q0 -77 -13 -134t-37 -93t-65 -54t-97 -18h-215v0zM150 121h50q20 0 35 6.5t24 20.5q9 15 14 40.5t5 62.5v505q0 40 -5 68t-14 45q-9 16 -25 25t-39 9h-45v-782z" />
<glyph unicode="E" d="M0 0v1024h418v-135h-229v-298h217v-130h-217v-326h238v-135h-427v0z" />
<glyph unicode="F" d="M0 0v1024h427v-135h-273v-273h256v-136h-256v-480h-154v0z" />
<glyph unicode="G" d="M196 0q-46 0 -81.5 19t-61.5 56t-38.5 94.5t-12.5 134.5v435q0 69 13 122.5t40 89.5q26 35 67.5 54t99.5 19q72 0 117.5 -27t64.5 -82q11 -34 17 -79t6 -102v-72h-139v104q0 35 -3.5 59t-9.5 39q-8 14 -21 20.5t-32 6.5t-33 -9t-22 -25q-7 -17 -11 -46.5t-4 -71.5v-435 q0 -49 3.5 -83.5t10.5 -53.5t21 -29t35 -10q20 0 35.5 10t24.5 31q9 20 13 55.5t4 84.5v135h-77v111h205v-548h-67l-22 99q-6 -26 -19 -45.5t-32 -34.5q-21 -12 -43 -19t-48 -7v0z" />
<glyph unicode="H" d="M0 0v1024h147v-415h131v415h149v-1024h-147v476h-133v-476h-147v0z" />
<glyph unicode="I" d="M135 0v1024h155v-1024h-155v0z" />
<glyph unicode="J" d="M370 68q-28 -33 -67.5 -50.5t-89.5 -17.5q-51 0 -90 15t-67 45t-42 74t-14 102v180h152v-172q0 -42 6.5 -67.5t20.5 -34.5q7 -4 14.5 -6.5t16.5 -2.5q18 0 29.5 7.5t18.5 21.5q5 14 8.5 37t3.5 54v771h157v-765q0 -62 -14 -109.5t-43 -81.5v0z" />
<glyph unicode="K" d="M0 0v1024h137v-471l136 471h142l-149 -505l161 -519h-145l-144 478v-478h-138v0z" />
<glyph unicode="L" d="M0 0v1024h154v-891h273v-133h-427v0z" />
<glyph unicode="M" d="M0 0v1024h123l92 -748l87 748h125v-1024h-89v382l3 350l-87 -730h-78l-92 730l3 -350v-382h-87v0z" />
<glyph unicode="N" d="M0 0v1024h121l176 -614l-10 278v336h140v-1024h-111l-181 637l8 -268v-369h-143z" />
<glyph unicode="O" d="M375 72q-25 -36 -65 -54t-97 -18q-55 0 -95.5 18t-66.5 54q-25 36 -38 90.5t-13 127.5v459q0 69 13.5 120.5t40.5 85.5t67.5 51.5t95.5 17.5q56 0 96 -17.5t64 -52.5t37 -86t13 -119v-457q0 -74 -13 -128.5t-39 -91.5v0zM160 167q7 -18 20 -26t33 -8q21 0 34 9t19 27 q7 18 9.5 48.5t2.5 72.5v466q0 36 -3.5 62t-9.5 42q-7 17 -19.5 25t-32.5 8q-19 0 -32 -8t-21 -25q-7 -16 -11 -42t-4 -60v-468q3 -45 6 -75.5t9 -47.5v0z" />
<glyph unicode="P" d="M0 2v1022h225q58 0 97 -18t60 -54t32 -89.5t13 -125.5v-22q0 -75 -10.5 -133.5t-30.5 -96.5q-21 -40 -59.5 -59.5t-94.5 -19.5h-82v-403h-150v-1zM150 532h51q25 0 40 9.5t22 28.5q8 19 10.5 55t2.5 90v21q0 44 -3.5 77t-11.5 52q-6 19 -21.5 29.5t-38.5 10.5h-51v-373v0 z" />
<glyph unicode="Q" d="M427 387q0 -94 -28.5 -153t-84.5 -82l90 -96l-71 -56l-138 135q-48 2 -84.5 18.5t-61.5 46.5q-24 30 -36.5 76.5t-12.5 110.5v398q0 60 13.5 104.5t40.5 74.5t67.5 45t95.5 15q56 0 96 -15.5t64 -45.5t37 -74.5t13 -103.5v-398zM160 280q7 -15 20 -23t33 -8q21 0 34 8 t19 23q7 15 9.5 42t2.5 64v404q0 31 -3.5 54t-9.5 37q-7 14 -19.5 21.5t-32.5 7.5q-19 0 -32 -7.5t-21 -21.5q-5 -14 -8.5 -36t-3.5 -53v-406q0 -39 3 -65.5t9 -40.5v0z" />
<glyph unicode="R" d="M195 481l-48 2v-483h-147v1024h244q38 0 66.5 -8t47.5 -24q20 -17 31.5 -39t18.5 -52q6 -29 9 -66.5t3 -85.5q0 -46 -5 -81.5t-14 -59.5q-9 -25 -26.5 -41.5t-43.5 -25.5q26 -5 43 -23t27 -49q10 -30 15.5 -95.5t5.5 -163.5q0 -99 1 -150.5t4 -59.5h-149q-1 3 -2 27.5 t-1.5 70t-1 113t-0.5 156.5q0 34 -4 56.5t-11 33.5q-8 12 -23.5 17.5t-39.5 6.5zM148 604h60q14 0 24.5 3.5t16.5 10.5q7 6 11.5 17.5t7.5 28.5t4 41.5t1 57.5v7q0 41 -3.5 68.5t-10.5 40.5q-6 13 -21.5 19.5t-39.5 6.5h-50v-301v0z" />
<glyph unicode="S" d="M2 294v88h145v-100q0 -43 3.5 -72.5t9.5 -45.5q8 -17 21.5 -25.5t33.5 -8.5q21 0 34 6.5t19 20.5t10 37t4 53q0 31 -7 59.5t-19 51.5t-30 47.5t-43 50.5l-75 76q-26 27 -46.5 55.5t-34.5 57.5q-12 30 -19.5 63.5t-7.5 71.5q0 61 11.5 107.5t36.5 76.5q24 30 65 45t100 15 t99 -17.5t60 -52.5q21 -35 31 -86t10 -119v-61h-140v71q0 36 -2.5 62.5t-9.5 42.5q-6 15 -18 22.5t-30 7.5q-19 0 -32 -6t-21 -18q-7 -11 -11 -29t-4 -42q0 -25 4 -44t11 -33q8 -14 23 -32t35 -41l84 -89q31 -33 55 -67.5t39 -69.5q15 -34 23.5 -71.5t8.5 -78.5 q0 -70 -11.5 -122t-35.5 -86q-25 -33 -66 -50t-100 -17t-100.5 19t-65.5 56q-24 39 -35.5 94t-11.5 127v0z" />
<glyph unicode="T" d="M131 0v889h-131v135h427v-135h-127v-889h-169v0z" />
<glyph unicode="U" d="M375 67q-25 -34 -66 -50.5t-96 -16.5q-56 0 -96 16.5t-66 50.5q-25 33 -38 84t-13 120v753h147v-749q0 -40 1.5 -64.5t5.5 -33.5q3 -8 7.5 -16t9.5 -14q5 -8 15.5 -11t26.5 -3q17 0 28 5t18 14q7 10 11.5 22t5.5 26q2 14 3 33t1 42v749h147v-753q0 -70 -13 -121t-39 -83 v0z" />
<glyph unicode="V" d="M137 0l-137 1024h128l58 -463l36 -325h3l31 325l46 463h125l-125 -1024h-165z" />
<glyph unicode="W" d="M72 0l-72 1024h80l43 -730l56 730h74l54 -730l39 730h81l-69 -1024h-90l-53 681l-53 -681h-90v0z" />
<glyph unicode="X" d="M305 0l-93 314l-77 -314h-135l142 550l-142 474h119l93 -304l73 304h131l-140 -524l151 -500h-122z" />
<glyph unicode="Y" d="M148 0v410l-148 614h130l88 -382h2l77 382h130l-142 -614v-410h-137v0z" />
<glyph unicode="Z" d="M0 0v138l241 751h-219v135h405v-126l-241 -763h236v-135h-422z" />
<glyph unicode="_" d="M0 137h427v-137h-427v137z" />
<glyph unicode="&#x25fc;" horiz-adv-x="500" d="M0 0v0v0v0v0z" />
</font>
</defs>
</svg>
